%TF.GenerationSoftware,KiCad,Pcbnew,8.0.0*%
%TF.CreationDate,2024-02-26T11:32:59-08:00*%
%TF.ProjectId,gotek-breakout,676f7465-6b2d-4627-9265-616b6f75742e,rev?*%
%TF.SameCoordinates,Original*%
%TF.FileFunction,Legend,Bot*%
%TF.FilePolarity,Positive*%
%FSLAX46Y46*%
G04 Gerber Fmt 4.6, Leading zero omitted, Abs format (unit mm)*
G04 Created by KiCad (PCBNEW 8.0.0) date 2024-02-26 11:32:59*
%MOMM*%
%LPD*%
G01*
G04 APERTURE LIST*
%ADD10C,0.150000*%
G04 APERTURE END LIST*
D10*
X57677506Y-114369819D02*
X57677506Y-115084104D01*
X57677506Y-115084104D02*
X57725125Y-115226961D01*
X57725125Y-115226961D02*
X57820363Y-115322200D01*
X57820363Y-115322200D02*
X57963220Y-115369819D01*
X57963220Y-115369819D02*
X58058458Y-115369819D01*
X56725125Y-115369819D02*
X57201315Y-115369819D01*
X57201315Y-115369819D02*
X57201315Y-114369819D01*
X55820363Y-115274580D02*
X55867982Y-115322200D01*
X55867982Y-115322200D02*
X56010839Y-115369819D01*
X56010839Y-115369819D02*
X56106077Y-115369819D01*
X56106077Y-115369819D02*
X56248934Y-115322200D01*
X56248934Y-115322200D02*
X56344172Y-115226961D01*
X56344172Y-115226961D02*
X56391791Y-115131723D01*
X56391791Y-115131723D02*
X56439410Y-114941247D01*
X56439410Y-114941247D02*
X56439410Y-114798390D01*
X56439410Y-114798390D02*
X56391791Y-114607914D01*
X56391791Y-114607914D02*
X56344172Y-114512676D01*
X56344172Y-114512676D02*
X56248934Y-114417438D01*
X56248934Y-114417438D02*
X56106077Y-114369819D01*
X56106077Y-114369819D02*
X56010839Y-114369819D01*
X56010839Y-114369819D02*
X55867982Y-114417438D01*
X55867982Y-114417438D02*
X55820363Y-114465057D01*
X55106077Y-114369819D02*
X55106077Y-115084104D01*
X55106077Y-115084104D02*
X55153696Y-115226961D01*
X55153696Y-115226961D02*
X55248934Y-115322200D01*
X55248934Y-115322200D02*
X55391791Y-115369819D01*
X55391791Y-115369819D02*
X55487029Y-115369819D01*
X54153696Y-115369819D02*
X54629886Y-115369819D01*
X54629886Y-115369819D02*
X54629886Y-114369819D01*
X53248934Y-115274580D02*
X53296553Y-115322200D01*
X53296553Y-115322200D02*
X53439410Y-115369819D01*
X53439410Y-115369819D02*
X53534648Y-115369819D01*
X53534648Y-115369819D02*
X53677505Y-115322200D01*
X53677505Y-115322200D02*
X53772743Y-115226961D01*
X53772743Y-115226961D02*
X53820362Y-115131723D01*
X53820362Y-115131723D02*
X53867981Y-114941247D01*
X53867981Y-114941247D02*
X53867981Y-114798390D01*
X53867981Y-114798390D02*
X53820362Y-114607914D01*
X53820362Y-114607914D02*
X53772743Y-114512676D01*
X53772743Y-114512676D02*
X53677505Y-114417438D01*
X53677505Y-114417438D02*
X53534648Y-114369819D01*
X53534648Y-114369819D02*
X53439410Y-114369819D01*
X53439410Y-114369819D02*
X53296553Y-114417438D01*
X53296553Y-114417438D02*
X53248934Y-114465057D01*
X52534648Y-114369819D02*
X52534648Y-115084104D01*
X52534648Y-115084104D02*
X52582267Y-115226961D01*
X52582267Y-115226961D02*
X52677505Y-115322200D01*
X52677505Y-115322200D02*
X52820362Y-115369819D01*
X52820362Y-115369819D02*
X52915600Y-115369819D01*
X51582267Y-115369819D02*
X52058457Y-115369819D01*
X52058457Y-115369819D02*
X52058457Y-114369819D01*
X50677505Y-115274580D02*
X50725124Y-115322200D01*
X50725124Y-115322200D02*
X50867981Y-115369819D01*
X50867981Y-115369819D02*
X50963219Y-115369819D01*
X50963219Y-115369819D02*
X51106076Y-115322200D01*
X51106076Y-115322200D02*
X51201314Y-115226961D01*
X51201314Y-115226961D02*
X51248933Y-115131723D01*
X51248933Y-115131723D02*
X51296552Y-114941247D01*
X51296552Y-114941247D02*
X51296552Y-114798390D01*
X51296552Y-114798390D02*
X51248933Y-114607914D01*
X51248933Y-114607914D02*
X51201314Y-114512676D01*
X51201314Y-114512676D02*
X51106076Y-114417438D01*
X51106076Y-114417438D02*
X50963219Y-114369819D01*
X50963219Y-114369819D02*
X50867981Y-114369819D01*
X50867981Y-114369819D02*
X50725124Y-114417438D01*
X50725124Y-114417438D02*
X50677505Y-114465057D01*
X49963219Y-114369819D02*
X49963219Y-115084104D01*
X49963219Y-115084104D02*
X50010838Y-115226961D01*
X50010838Y-115226961D02*
X50106076Y-115322200D01*
X50106076Y-115322200D02*
X50248933Y-115369819D01*
X50248933Y-115369819D02*
X50344171Y-115369819D01*
X49010838Y-115369819D02*
X49487028Y-115369819D01*
X49487028Y-115369819D02*
X49487028Y-114369819D01*
X48106076Y-115274580D02*
X48153695Y-115322200D01*
X48153695Y-115322200D02*
X48296552Y-115369819D01*
X48296552Y-115369819D02*
X48391790Y-115369819D01*
X48391790Y-115369819D02*
X48534647Y-115322200D01*
X48534647Y-115322200D02*
X48629885Y-115226961D01*
X48629885Y-115226961D02*
X48677504Y-115131723D01*
X48677504Y-115131723D02*
X48725123Y-114941247D01*
X48725123Y-114941247D02*
X48725123Y-114798390D01*
X48725123Y-114798390D02*
X48677504Y-114607914D01*
X48677504Y-114607914D02*
X48629885Y-114512676D01*
X48629885Y-114512676D02*
X48534647Y-114417438D01*
X48534647Y-114417438D02*
X48391790Y-114369819D01*
X48391790Y-114369819D02*
X48296552Y-114369819D01*
X48296552Y-114369819D02*
X48153695Y-114417438D01*
X48153695Y-114417438D02*
X48106076Y-114465057D01*
M02*
