%TF.GenerationSoftware,KiCad,Pcbnew,8.0.0*%
%TF.CreationDate,2024-02-26T11:32:58-08:00*%
%TF.ProjectId,gotek-breakout,676f7465-6b2d-4627-9265-616b6f75742e,rev?*%
%TF.SameCoordinates,Original*%
%TF.FileFunction,Legend,Top*%
%TF.FilePolarity,Positive*%
%FSLAX46Y46*%
G04 Gerber Fmt 4.6, Leading zero omitted, Abs format (unit mm)*
G04 Created by KiCad (PCBNEW 8.0.0) date 2024-02-26 11:32:58*
%MOMM*%
%LPD*%
G01*
G04 APERTURE LIST*
%ADD10C,0.150000*%
%ADD11C,0.120000*%
G04 APERTURE END LIST*
D10*
X80603697Y-107689533D02*
X81213221Y-107689533D01*
X80908459Y-107994295D02*
X80908459Y-107384771D01*
X81975125Y-107194295D02*
X81594173Y-107194295D01*
X81594173Y-107194295D02*
X81556077Y-107575247D01*
X81556077Y-107575247D02*
X81594173Y-107537152D01*
X81594173Y-107537152D02*
X81670363Y-107499057D01*
X81670363Y-107499057D02*
X81860839Y-107499057D01*
X81860839Y-107499057D02*
X81937030Y-107537152D01*
X81937030Y-107537152D02*
X81975125Y-107575247D01*
X81975125Y-107575247D02*
X82013220Y-107651438D01*
X82013220Y-107651438D02*
X82013220Y-107841914D01*
X82013220Y-107841914D02*
X81975125Y-107918104D01*
X81975125Y-107918104D02*
X81937030Y-107956200D01*
X81937030Y-107956200D02*
X81860839Y-107994295D01*
X81860839Y-107994295D02*
X81670363Y-107994295D01*
X81670363Y-107994295D02*
X81594173Y-107956200D01*
X81594173Y-107956200D02*
X81556077Y-107918104D01*
X82241792Y-107194295D02*
X82508459Y-107994295D01*
X82508459Y-107994295D02*
X82775125Y-107194295D01*
X81022744Y-99732390D02*
X80946554Y-99694295D01*
X80946554Y-99694295D02*
X80832268Y-99694295D01*
X80832268Y-99694295D02*
X80717982Y-99732390D01*
X80717982Y-99732390D02*
X80641792Y-99808580D01*
X80641792Y-99808580D02*
X80603697Y-99884771D01*
X80603697Y-99884771D02*
X80565601Y-100037152D01*
X80565601Y-100037152D02*
X80565601Y-100151438D01*
X80565601Y-100151438D02*
X80603697Y-100303819D01*
X80603697Y-100303819D02*
X80641792Y-100380009D01*
X80641792Y-100380009D02*
X80717982Y-100456200D01*
X80717982Y-100456200D02*
X80832268Y-100494295D01*
X80832268Y-100494295D02*
X80908459Y-100494295D01*
X80908459Y-100494295D02*
X81022744Y-100456200D01*
X81022744Y-100456200D02*
X81060840Y-100418104D01*
X81060840Y-100418104D02*
X81060840Y-100151438D01*
X81060840Y-100151438D02*
X80908459Y-100151438D01*
X81403697Y-100494295D02*
X81403697Y-99694295D01*
X81403697Y-99694295D02*
X81860840Y-100494295D01*
X81860840Y-100494295D02*
X81860840Y-99694295D01*
X82241792Y-100494295D02*
X82241792Y-99694295D01*
X82241792Y-99694295D02*
X82432268Y-99694295D01*
X82432268Y-99694295D02*
X82546554Y-99732390D01*
X82546554Y-99732390D02*
X82622744Y-99808580D01*
X82622744Y-99808580D02*
X82660839Y-99884771D01*
X82660839Y-99884771D02*
X82698935Y-100037152D01*
X82698935Y-100037152D02*
X82698935Y-100151438D01*
X82698935Y-100151438D02*
X82660839Y-100303819D01*
X82660839Y-100303819D02*
X82622744Y-100380009D01*
X82622744Y-100380009D02*
X82546554Y-100456200D01*
X82546554Y-100456200D02*
X82432268Y-100494295D01*
X82432268Y-100494295D02*
X82241792Y-100494295D01*
X81251316Y-105694295D02*
X81251316Y-104894295D01*
X81251316Y-104894295D02*
X81441792Y-104894295D01*
X81441792Y-104894295D02*
X81556078Y-104932390D01*
X81556078Y-104932390D02*
X81632268Y-105008580D01*
X81632268Y-105008580D02*
X81670363Y-105084771D01*
X81670363Y-105084771D02*
X81708459Y-105237152D01*
X81708459Y-105237152D02*
X81708459Y-105351438D01*
X81708459Y-105351438D02*
X81670363Y-105503819D01*
X81670363Y-105503819D02*
X81632268Y-105580009D01*
X81632268Y-105580009D02*
X81556078Y-105656200D01*
X81556078Y-105656200D02*
X81441792Y-105694295D01*
X81441792Y-105694295D02*
X81251316Y-105694295D01*
X82051316Y-105389533D02*
X82660840Y-105389533D01*
X82356078Y-105694295D02*
X82356078Y-105084771D01*
X81251316Y-103094295D02*
X81251316Y-102294295D01*
X81251316Y-102294295D02*
X81441792Y-102294295D01*
X81441792Y-102294295D02*
X81556078Y-102332390D01*
X81556078Y-102332390D02*
X81632268Y-102408580D01*
X81632268Y-102408580D02*
X81670363Y-102484771D01*
X81670363Y-102484771D02*
X81708459Y-102637152D01*
X81708459Y-102637152D02*
X81708459Y-102751438D01*
X81708459Y-102751438D02*
X81670363Y-102903819D01*
X81670363Y-102903819D02*
X81632268Y-102980009D01*
X81632268Y-102980009D02*
X81556078Y-103056200D01*
X81556078Y-103056200D02*
X81441792Y-103094295D01*
X81441792Y-103094295D02*
X81251316Y-103094295D01*
X82051316Y-102789533D02*
X82660840Y-102789533D01*
X69589160Y-100394295D02*
X69589160Y-99594295D01*
X69589160Y-99594295D02*
X70046303Y-100394295D01*
X70046303Y-100394295D02*
X70046303Y-99594295D01*
X70884398Y-100318104D02*
X70846302Y-100356200D01*
X70846302Y-100356200D02*
X70732017Y-100394295D01*
X70732017Y-100394295D02*
X70655826Y-100394295D01*
X70655826Y-100394295D02*
X70541540Y-100356200D01*
X70541540Y-100356200D02*
X70465350Y-100280009D01*
X70465350Y-100280009D02*
X70427255Y-100203819D01*
X70427255Y-100203819D02*
X70389159Y-100051438D01*
X70389159Y-100051438D02*
X70389159Y-99937152D01*
X70389159Y-99937152D02*
X70427255Y-99784771D01*
X70427255Y-99784771D02*
X70465350Y-99708580D01*
X70465350Y-99708580D02*
X70541540Y-99632390D01*
X70541540Y-99632390D02*
X70655826Y-99594295D01*
X70655826Y-99594295D02*
X70732017Y-99594295D01*
X70732017Y-99594295D02*
X70846302Y-99632390D01*
X70846302Y-99632390D02*
X70884398Y-99670485D01*
X69589160Y-105289533D02*
X70198684Y-105289533D01*
X69893922Y-105594295D02*
X69893922Y-104984771D01*
X70960588Y-104794295D02*
X70579636Y-104794295D01*
X70579636Y-104794295D02*
X70541540Y-105175247D01*
X70541540Y-105175247D02*
X70579636Y-105137152D01*
X70579636Y-105137152D02*
X70655826Y-105099057D01*
X70655826Y-105099057D02*
X70846302Y-105099057D01*
X70846302Y-105099057D02*
X70922493Y-105137152D01*
X70922493Y-105137152D02*
X70960588Y-105175247D01*
X70960588Y-105175247D02*
X70998683Y-105251438D01*
X70998683Y-105251438D02*
X70998683Y-105441914D01*
X70998683Y-105441914D02*
X70960588Y-105518104D01*
X70960588Y-105518104D02*
X70922493Y-105556200D01*
X70922493Y-105556200D02*
X70846302Y-105594295D01*
X70846302Y-105594295D02*
X70655826Y-105594295D01*
X70655826Y-105594295D02*
X70579636Y-105556200D01*
X70579636Y-105556200D02*
X70541540Y-105518104D01*
X71227255Y-104794295D02*
X71493922Y-105594295D01*
X71493922Y-105594295D02*
X71760588Y-104794295D01*
X70046303Y-102918104D02*
X70008207Y-102956200D01*
X70008207Y-102956200D02*
X69893922Y-102994295D01*
X69893922Y-102994295D02*
X69817731Y-102994295D01*
X69817731Y-102994295D02*
X69703445Y-102956200D01*
X69703445Y-102956200D02*
X69627255Y-102880009D01*
X69627255Y-102880009D02*
X69589160Y-102803819D01*
X69589160Y-102803819D02*
X69551064Y-102651438D01*
X69551064Y-102651438D02*
X69551064Y-102537152D01*
X69551064Y-102537152D02*
X69589160Y-102384771D01*
X69589160Y-102384771D02*
X69627255Y-102308580D01*
X69627255Y-102308580D02*
X69703445Y-102232390D01*
X69703445Y-102232390D02*
X69817731Y-102194295D01*
X69817731Y-102194295D02*
X69893922Y-102194295D01*
X69893922Y-102194295D02*
X70008207Y-102232390D01*
X70008207Y-102232390D02*
X70046303Y-102270485D01*
X70770112Y-102994295D02*
X70389160Y-102994295D01*
X70389160Y-102994295D02*
X70389160Y-102194295D01*
X71036779Y-102994295D02*
X71036779Y-102194295D01*
X71493922Y-102994295D02*
X71151064Y-102537152D01*
X71493922Y-102194295D02*
X71036779Y-102651438D01*
X60672744Y-104832390D02*
X60596554Y-104794295D01*
X60596554Y-104794295D02*
X60482268Y-104794295D01*
X60482268Y-104794295D02*
X60367982Y-104832390D01*
X60367982Y-104832390D02*
X60291792Y-104908580D01*
X60291792Y-104908580D02*
X60253697Y-104984771D01*
X60253697Y-104984771D02*
X60215601Y-105137152D01*
X60215601Y-105137152D02*
X60215601Y-105251438D01*
X60215601Y-105251438D02*
X60253697Y-105403819D01*
X60253697Y-105403819D02*
X60291792Y-105480009D01*
X60291792Y-105480009D02*
X60367982Y-105556200D01*
X60367982Y-105556200D02*
X60482268Y-105594295D01*
X60482268Y-105594295D02*
X60558459Y-105594295D01*
X60558459Y-105594295D02*
X60672744Y-105556200D01*
X60672744Y-105556200D02*
X60710840Y-105518104D01*
X60710840Y-105518104D02*
X60710840Y-105251438D01*
X60710840Y-105251438D02*
X60558459Y-105251438D01*
X61053697Y-105594295D02*
X61053697Y-104794295D01*
X61053697Y-104794295D02*
X61510840Y-105594295D01*
X61510840Y-105594295D02*
X61510840Y-104794295D01*
X61891792Y-105594295D02*
X61891792Y-104794295D01*
X61891792Y-104794295D02*
X62082268Y-104794295D01*
X62082268Y-104794295D02*
X62196554Y-104832390D01*
X62196554Y-104832390D02*
X62272744Y-104908580D01*
X62272744Y-104908580D02*
X62310839Y-104984771D01*
X62310839Y-104984771D02*
X62348935Y-105137152D01*
X62348935Y-105137152D02*
X62348935Y-105251438D01*
X62348935Y-105251438D02*
X62310839Y-105403819D01*
X62310839Y-105403819D02*
X62272744Y-105480009D01*
X62272744Y-105480009D02*
X62196554Y-105556200D01*
X62196554Y-105556200D02*
X62082268Y-105594295D01*
X62082268Y-105594295D02*
X61891792Y-105594295D01*
X59072744Y-103299057D02*
X59034649Y-103260961D01*
X59034649Y-103260961D02*
X58958458Y-103146676D01*
X58958458Y-103146676D02*
X58920363Y-103070485D01*
X58920363Y-103070485D02*
X58882268Y-102956200D01*
X58882268Y-102956200D02*
X58844173Y-102765723D01*
X58844173Y-102765723D02*
X58844173Y-102613342D01*
X58844173Y-102613342D02*
X58882268Y-102422866D01*
X58882268Y-102422866D02*
X58920363Y-102308580D01*
X58920363Y-102308580D02*
X58958458Y-102232390D01*
X58958458Y-102232390D02*
X59034649Y-102118104D01*
X59034649Y-102118104D02*
X59072744Y-102080009D01*
X59606077Y-102194295D02*
X59606077Y-102765723D01*
X59606077Y-102765723D02*
X59567982Y-102880009D01*
X59567982Y-102880009D02*
X59491791Y-102956200D01*
X59491791Y-102956200D02*
X59377506Y-102994295D01*
X59377506Y-102994295D02*
X59301315Y-102994295D01*
X60101315Y-102537152D02*
X60025125Y-102499057D01*
X60025125Y-102499057D02*
X59987030Y-102460961D01*
X59987030Y-102460961D02*
X59948934Y-102384771D01*
X59948934Y-102384771D02*
X59948934Y-102346676D01*
X59948934Y-102346676D02*
X59987030Y-102270485D01*
X59987030Y-102270485D02*
X60025125Y-102232390D01*
X60025125Y-102232390D02*
X60101315Y-102194295D01*
X60101315Y-102194295D02*
X60253696Y-102194295D01*
X60253696Y-102194295D02*
X60329887Y-102232390D01*
X60329887Y-102232390D02*
X60367982Y-102270485D01*
X60367982Y-102270485D02*
X60406077Y-102346676D01*
X60406077Y-102346676D02*
X60406077Y-102384771D01*
X60406077Y-102384771D02*
X60367982Y-102460961D01*
X60367982Y-102460961D02*
X60329887Y-102499057D01*
X60329887Y-102499057D02*
X60253696Y-102537152D01*
X60253696Y-102537152D02*
X60101315Y-102537152D01*
X60101315Y-102537152D02*
X60025125Y-102575247D01*
X60025125Y-102575247D02*
X59987030Y-102613342D01*
X59987030Y-102613342D02*
X59948934Y-102689533D01*
X59948934Y-102689533D02*
X59948934Y-102841914D01*
X59948934Y-102841914D02*
X59987030Y-102918104D01*
X59987030Y-102918104D02*
X60025125Y-102956200D01*
X60025125Y-102956200D02*
X60101315Y-102994295D01*
X60101315Y-102994295D02*
X60253696Y-102994295D01*
X60253696Y-102994295D02*
X60329887Y-102956200D01*
X60329887Y-102956200D02*
X60367982Y-102918104D01*
X60367982Y-102918104D02*
X60406077Y-102841914D01*
X60406077Y-102841914D02*
X60406077Y-102689533D01*
X60406077Y-102689533D02*
X60367982Y-102613342D01*
X60367982Y-102613342D02*
X60329887Y-102575247D01*
X60329887Y-102575247D02*
X60253696Y-102537152D01*
X60672744Y-103299057D02*
X60710839Y-103260961D01*
X60710839Y-103260961D02*
X60787030Y-103146676D01*
X60787030Y-103146676D02*
X60825125Y-103070485D01*
X60825125Y-103070485D02*
X60863220Y-102956200D01*
X60863220Y-102956200D02*
X60901316Y-102765723D01*
X60901316Y-102765723D02*
X60901316Y-102613342D01*
X60901316Y-102613342D02*
X60863220Y-102422866D01*
X60863220Y-102422866D02*
X60825125Y-102308580D01*
X60825125Y-102308580D02*
X60787030Y-102232390D01*
X60787030Y-102232390D02*
X60710839Y-102118104D01*
X60710839Y-102118104D02*
X60672744Y-102080009D01*
X61282268Y-102994295D02*
X61282268Y-102194295D01*
X61282268Y-102194295D02*
X61472744Y-102194295D01*
X61472744Y-102194295D02*
X61587030Y-102232390D01*
X61587030Y-102232390D02*
X61663220Y-102308580D01*
X61663220Y-102308580D02*
X61701315Y-102384771D01*
X61701315Y-102384771D02*
X61739411Y-102537152D01*
X61739411Y-102537152D02*
X61739411Y-102651438D01*
X61739411Y-102651438D02*
X61701315Y-102803819D01*
X61701315Y-102803819D02*
X61663220Y-102880009D01*
X61663220Y-102880009D02*
X61587030Y-102956200D01*
X61587030Y-102956200D02*
X61472744Y-102994295D01*
X61472744Y-102994295D02*
X61282268Y-102994295D01*
X61967982Y-102194295D02*
X62425125Y-102194295D01*
X62196553Y-102994295D02*
X62196553Y-102194295D01*
X58767982Y-100699057D02*
X58729887Y-100660961D01*
X58729887Y-100660961D02*
X58653696Y-100546676D01*
X58653696Y-100546676D02*
X58615601Y-100470485D01*
X58615601Y-100470485D02*
X58577506Y-100356200D01*
X58577506Y-100356200D02*
X58539411Y-100165723D01*
X58539411Y-100165723D02*
X58539411Y-100013342D01*
X58539411Y-100013342D02*
X58577506Y-99822866D01*
X58577506Y-99822866D02*
X58615601Y-99708580D01*
X58615601Y-99708580D02*
X58653696Y-99632390D01*
X58653696Y-99632390D02*
X58729887Y-99518104D01*
X58729887Y-99518104D02*
X58767982Y-99480009D01*
X59301315Y-99594295D02*
X59301315Y-100165723D01*
X59301315Y-100165723D02*
X59263220Y-100280009D01*
X59263220Y-100280009D02*
X59187029Y-100356200D01*
X59187029Y-100356200D02*
X59072744Y-100394295D01*
X59072744Y-100394295D02*
X58996553Y-100394295D01*
X59682268Y-100394295D02*
X59682268Y-99594295D01*
X60139411Y-100394295D02*
X59796553Y-99937152D01*
X60139411Y-99594295D02*
X59682268Y-100051438D01*
X60406077Y-100699057D02*
X60444172Y-100660961D01*
X60444172Y-100660961D02*
X60520363Y-100546676D01*
X60520363Y-100546676D02*
X60558458Y-100470485D01*
X60558458Y-100470485D02*
X60596553Y-100356200D01*
X60596553Y-100356200D02*
X60634649Y-100165723D01*
X60634649Y-100165723D02*
X60634649Y-100013342D01*
X60634649Y-100013342D02*
X60596553Y-99822866D01*
X60596553Y-99822866D02*
X60558458Y-99708580D01*
X60558458Y-99708580D02*
X60520363Y-99632390D01*
X60520363Y-99632390D02*
X60444172Y-99518104D01*
X60444172Y-99518104D02*
X60406077Y-99480009D01*
X60977505Y-100356200D02*
X61091791Y-100394295D01*
X61091791Y-100394295D02*
X61282267Y-100394295D01*
X61282267Y-100394295D02*
X61358458Y-100356200D01*
X61358458Y-100356200D02*
X61396553Y-100318104D01*
X61396553Y-100318104D02*
X61434648Y-100241914D01*
X61434648Y-100241914D02*
X61434648Y-100165723D01*
X61434648Y-100165723D02*
X61396553Y-100089533D01*
X61396553Y-100089533D02*
X61358458Y-100051438D01*
X61358458Y-100051438D02*
X61282267Y-100013342D01*
X61282267Y-100013342D02*
X61129886Y-99975247D01*
X61129886Y-99975247D02*
X61053696Y-99937152D01*
X61053696Y-99937152D02*
X61015601Y-99899057D01*
X61015601Y-99899057D02*
X60977505Y-99822866D01*
X60977505Y-99822866D02*
X60977505Y-99746676D01*
X60977505Y-99746676D02*
X61015601Y-99670485D01*
X61015601Y-99670485D02*
X61053696Y-99632390D01*
X61053696Y-99632390D02*
X61129886Y-99594295D01*
X61129886Y-99594295D02*
X61320363Y-99594295D01*
X61320363Y-99594295D02*
X61434648Y-99632390D01*
X61701315Y-99594295D02*
X61891791Y-100394295D01*
X61891791Y-100394295D02*
X62044172Y-99822866D01*
X62044172Y-99822866D02*
X62196553Y-100394295D01*
X62196553Y-100394295D02*
X62387030Y-99594295D01*
X55372744Y-102232390D02*
X55296554Y-102194295D01*
X55296554Y-102194295D02*
X55182268Y-102194295D01*
X55182268Y-102194295D02*
X55067982Y-102232390D01*
X55067982Y-102232390D02*
X54991792Y-102308580D01*
X54991792Y-102308580D02*
X54953697Y-102384771D01*
X54953697Y-102384771D02*
X54915601Y-102537152D01*
X54915601Y-102537152D02*
X54915601Y-102651438D01*
X54915601Y-102651438D02*
X54953697Y-102803819D01*
X54953697Y-102803819D02*
X54991792Y-102880009D01*
X54991792Y-102880009D02*
X55067982Y-102956200D01*
X55067982Y-102956200D02*
X55182268Y-102994295D01*
X55182268Y-102994295D02*
X55258459Y-102994295D01*
X55258459Y-102994295D02*
X55372744Y-102956200D01*
X55372744Y-102956200D02*
X55410840Y-102918104D01*
X55410840Y-102918104D02*
X55410840Y-102651438D01*
X55410840Y-102651438D02*
X55258459Y-102651438D01*
X55753697Y-102994295D02*
X55753697Y-102194295D01*
X55753697Y-102194295D02*
X56210840Y-102994295D01*
X56210840Y-102994295D02*
X56210840Y-102194295D01*
X56591792Y-102994295D02*
X56591792Y-102194295D01*
X56591792Y-102194295D02*
X56782268Y-102194295D01*
X56782268Y-102194295D02*
X56896554Y-102232390D01*
X56896554Y-102232390D02*
X56972744Y-102308580D01*
X56972744Y-102308580D02*
X57010839Y-102384771D01*
X57010839Y-102384771D02*
X57048935Y-102537152D01*
X57048935Y-102537152D02*
X57048935Y-102651438D01*
X57048935Y-102651438D02*
X57010839Y-102803819D01*
X57010839Y-102803819D02*
X56972744Y-102880009D01*
X56972744Y-102880009D02*
X56896554Y-102956200D01*
X56896554Y-102956200D02*
X56782268Y-102994295D01*
X56782268Y-102994295D02*
X56591792Y-102994295D01*
X55051064Y-100356200D02*
X55165350Y-100394295D01*
X55165350Y-100394295D02*
X55355826Y-100394295D01*
X55355826Y-100394295D02*
X55432017Y-100356200D01*
X55432017Y-100356200D02*
X55470112Y-100318104D01*
X55470112Y-100318104D02*
X55508207Y-100241914D01*
X55508207Y-100241914D02*
X55508207Y-100165723D01*
X55508207Y-100165723D02*
X55470112Y-100089533D01*
X55470112Y-100089533D02*
X55432017Y-100051438D01*
X55432017Y-100051438D02*
X55355826Y-100013342D01*
X55355826Y-100013342D02*
X55203445Y-99975247D01*
X55203445Y-99975247D02*
X55127255Y-99937152D01*
X55127255Y-99937152D02*
X55089160Y-99899057D01*
X55089160Y-99899057D02*
X55051064Y-99822866D01*
X55051064Y-99822866D02*
X55051064Y-99746676D01*
X55051064Y-99746676D02*
X55089160Y-99670485D01*
X55089160Y-99670485D02*
X55127255Y-99632390D01*
X55127255Y-99632390D02*
X55203445Y-99594295D01*
X55203445Y-99594295D02*
X55393922Y-99594295D01*
X55393922Y-99594295D02*
X55508207Y-99632390D01*
X55851065Y-100394295D02*
X55851065Y-99594295D01*
X55851065Y-99594295D02*
X56041541Y-99594295D01*
X56041541Y-99594295D02*
X56155827Y-99632390D01*
X56155827Y-99632390D02*
X56232017Y-99708580D01*
X56232017Y-99708580D02*
X56270112Y-99784771D01*
X56270112Y-99784771D02*
X56308208Y-99937152D01*
X56308208Y-99937152D02*
X56308208Y-100051438D01*
X56308208Y-100051438D02*
X56270112Y-100203819D01*
X56270112Y-100203819D02*
X56232017Y-100280009D01*
X56232017Y-100280009D02*
X56155827Y-100356200D01*
X56155827Y-100356200D02*
X56041541Y-100394295D01*
X56041541Y-100394295D02*
X55851065Y-100394295D01*
X56612969Y-100165723D02*
X56993922Y-100165723D01*
X56536779Y-100394295D02*
X56803446Y-99594295D01*
X56803446Y-99594295D02*
X57070112Y-100394295D01*
X45903697Y-102689533D02*
X46513221Y-102689533D01*
X46208459Y-102994295D02*
X46208459Y-102384771D01*
X46817982Y-102194295D02*
X47313220Y-102194295D01*
X47313220Y-102194295D02*
X47046554Y-102499057D01*
X47046554Y-102499057D02*
X47160839Y-102499057D01*
X47160839Y-102499057D02*
X47237030Y-102537152D01*
X47237030Y-102537152D02*
X47275125Y-102575247D01*
X47275125Y-102575247D02*
X47313220Y-102651438D01*
X47313220Y-102651438D02*
X47313220Y-102841914D01*
X47313220Y-102841914D02*
X47275125Y-102918104D01*
X47275125Y-102918104D02*
X47237030Y-102956200D01*
X47237030Y-102956200D02*
X47160839Y-102994295D01*
X47160839Y-102994295D02*
X46932268Y-102994295D01*
X46932268Y-102994295D02*
X46856077Y-102956200D01*
X46856077Y-102956200D02*
X46817982Y-102918104D01*
X47541792Y-102194295D02*
X47808459Y-102994295D01*
X47808459Y-102994295D02*
X48075125Y-102194295D01*
X45941791Y-100356200D02*
X46056077Y-100394295D01*
X46056077Y-100394295D02*
X46246553Y-100394295D01*
X46246553Y-100394295D02*
X46322744Y-100356200D01*
X46322744Y-100356200D02*
X46360839Y-100318104D01*
X46360839Y-100318104D02*
X46398934Y-100241914D01*
X46398934Y-100241914D02*
X46398934Y-100165723D01*
X46398934Y-100165723D02*
X46360839Y-100089533D01*
X46360839Y-100089533D02*
X46322744Y-100051438D01*
X46322744Y-100051438D02*
X46246553Y-100013342D01*
X46246553Y-100013342D02*
X46094172Y-99975247D01*
X46094172Y-99975247D02*
X46017982Y-99937152D01*
X46017982Y-99937152D02*
X45979887Y-99899057D01*
X45979887Y-99899057D02*
X45941791Y-99822866D01*
X45941791Y-99822866D02*
X45941791Y-99746676D01*
X45941791Y-99746676D02*
X45979887Y-99670485D01*
X45979887Y-99670485D02*
X46017982Y-99632390D01*
X46017982Y-99632390D02*
X46094172Y-99594295D01*
X46094172Y-99594295D02*
X46284649Y-99594295D01*
X46284649Y-99594295D02*
X46398934Y-99632390D01*
X47198935Y-100318104D02*
X47160839Y-100356200D01*
X47160839Y-100356200D02*
X47046554Y-100394295D01*
X47046554Y-100394295D02*
X46970363Y-100394295D01*
X46970363Y-100394295D02*
X46856077Y-100356200D01*
X46856077Y-100356200D02*
X46779887Y-100280009D01*
X46779887Y-100280009D02*
X46741792Y-100203819D01*
X46741792Y-100203819D02*
X46703696Y-100051438D01*
X46703696Y-100051438D02*
X46703696Y-99937152D01*
X46703696Y-99937152D02*
X46741792Y-99784771D01*
X46741792Y-99784771D02*
X46779887Y-99708580D01*
X46779887Y-99708580D02*
X46856077Y-99632390D01*
X46856077Y-99632390D02*
X46970363Y-99594295D01*
X46970363Y-99594295D02*
X47046554Y-99594295D01*
X47046554Y-99594295D02*
X47160839Y-99632390D01*
X47160839Y-99632390D02*
X47198935Y-99670485D01*
X47541792Y-100394295D02*
X47541792Y-99594295D01*
X47998935Y-100394295D02*
X47656077Y-99937152D01*
X47998935Y-99594295D02*
X47541792Y-100051438D01*
X65661666Y-107154819D02*
X65661666Y-107869104D01*
X65661666Y-107869104D02*
X65614047Y-108011961D01*
X65614047Y-108011961D02*
X65518809Y-108107200D01*
X65518809Y-108107200D02*
X65375952Y-108154819D01*
X65375952Y-108154819D02*
X65280714Y-108154819D01*
X66280714Y-107583390D02*
X66185476Y-107535771D01*
X66185476Y-107535771D02*
X66137857Y-107488152D01*
X66137857Y-107488152D02*
X66090238Y-107392914D01*
X66090238Y-107392914D02*
X66090238Y-107345295D01*
X66090238Y-107345295D02*
X66137857Y-107250057D01*
X66137857Y-107250057D02*
X66185476Y-107202438D01*
X66185476Y-107202438D02*
X66280714Y-107154819D01*
X66280714Y-107154819D02*
X66471190Y-107154819D01*
X66471190Y-107154819D02*
X66566428Y-107202438D01*
X66566428Y-107202438D02*
X66614047Y-107250057D01*
X66614047Y-107250057D02*
X66661666Y-107345295D01*
X66661666Y-107345295D02*
X66661666Y-107392914D01*
X66661666Y-107392914D02*
X66614047Y-107488152D01*
X66614047Y-107488152D02*
X66566428Y-107535771D01*
X66566428Y-107535771D02*
X66471190Y-107583390D01*
X66471190Y-107583390D02*
X66280714Y-107583390D01*
X66280714Y-107583390D02*
X66185476Y-107631009D01*
X66185476Y-107631009D02*
X66137857Y-107678628D01*
X66137857Y-107678628D02*
X66090238Y-107773866D01*
X66090238Y-107773866D02*
X66090238Y-107964342D01*
X66090238Y-107964342D02*
X66137857Y-108059580D01*
X66137857Y-108059580D02*
X66185476Y-108107200D01*
X66185476Y-108107200D02*
X66280714Y-108154819D01*
X66280714Y-108154819D02*
X66471190Y-108154819D01*
X66471190Y-108154819D02*
X66566428Y-108107200D01*
X66566428Y-108107200D02*
X66614047Y-108059580D01*
X66614047Y-108059580D02*
X66661666Y-107964342D01*
X66661666Y-107964342D02*
X66661666Y-107773866D01*
X66661666Y-107773866D02*
X66614047Y-107678628D01*
X66614047Y-107678628D02*
X66566428Y-107631009D01*
X66566428Y-107631009D02*
X66471190Y-107583390D01*
X51146666Y-104954819D02*
X51146666Y-105669104D01*
X51146666Y-105669104D02*
X51099047Y-105811961D01*
X51099047Y-105811961D02*
X51003809Y-105907200D01*
X51003809Y-105907200D02*
X50860952Y-105954819D01*
X50860952Y-105954819D02*
X50765714Y-105954819D01*
X51527619Y-104954819D02*
X52194285Y-104954819D01*
X52194285Y-104954819D02*
X51765714Y-105954819D01*
X86754819Y-113059523D02*
X87469104Y-113059523D01*
X87469104Y-113059523D02*
X87611961Y-113107142D01*
X87611961Y-113107142D02*
X87707200Y-113202380D01*
X87707200Y-113202380D02*
X87754819Y-113345237D01*
X87754819Y-113345237D02*
X87754819Y-113440475D01*
X87754819Y-112059523D02*
X87754819Y-112630951D01*
X87754819Y-112345237D02*
X86754819Y-112345237D01*
X86754819Y-112345237D02*
X86897676Y-112440475D01*
X86897676Y-112440475D02*
X86992914Y-112535713D01*
X86992914Y-112535713D02*
X87040533Y-112630951D01*
X86850057Y-111678570D02*
X86802438Y-111630951D01*
X86802438Y-111630951D02*
X86754819Y-111535713D01*
X86754819Y-111535713D02*
X86754819Y-111297618D01*
X86754819Y-111297618D02*
X86802438Y-111202380D01*
X86802438Y-111202380D02*
X86850057Y-111154761D01*
X86850057Y-111154761D02*
X86945295Y-111107142D01*
X86945295Y-111107142D02*
X87040533Y-111107142D01*
X87040533Y-111107142D02*
X87183390Y-111154761D01*
X87183390Y-111154761D02*
X87754819Y-111726189D01*
X87754819Y-111726189D02*
X87754819Y-111107142D01*
X87204820Y-104909523D02*
X87919105Y-104909523D01*
X87919105Y-104909523D02*
X88061962Y-104957142D01*
X88061962Y-104957142D02*
X88157201Y-105052380D01*
X88157201Y-105052380D02*
X88204820Y-105195237D01*
X88204820Y-105195237D02*
X88204820Y-105290475D01*
X88204820Y-103909523D02*
X88204820Y-104480951D01*
X88204820Y-104195237D02*
X87204820Y-104195237D01*
X87204820Y-104195237D02*
X87347677Y-104290475D01*
X87347677Y-104290475D02*
X87442915Y-104385713D01*
X87442915Y-104385713D02*
X87490534Y-104480951D01*
X88204820Y-102957142D02*
X88204820Y-103528570D01*
X88204820Y-103242856D02*
X87204820Y-103242856D01*
X87204820Y-103242856D02*
X87347677Y-103338094D01*
X87347677Y-103338094D02*
X87442915Y-103433332D01*
X87442915Y-103433332D02*
X87490534Y-103528570D01*
X74690476Y-109454819D02*
X74690476Y-110169104D01*
X74690476Y-110169104D02*
X74642857Y-110311961D01*
X74642857Y-110311961D02*
X74547619Y-110407200D01*
X74547619Y-110407200D02*
X74404762Y-110454819D01*
X74404762Y-110454819D02*
X74309524Y-110454819D01*
X75690476Y-110454819D02*
X75119048Y-110454819D01*
X75404762Y-110454819D02*
X75404762Y-109454819D01*
X75404762Y-109454819D02*
X75309524Y-109597676D01*
X75309524Y-109597676D02*
X75214286Y-109692914D01*
X75214286Y-109692914D02*
X75119048Y-109740533D01*
X76309524Y-109454819D02*
X76404762Y-109454819D01*
X76404762Y-109454819D02*
X76500000Y-109502438D01*
X76500000Y-109502438D02*
X76547619Y-109550057D01*
X76547619Y-109550057D02*
X76595238Y-109645295D01*
X76595238Y-109645295D02*
X76642857Y-109835771D01*
X76642857Y-109835771D02*
X76642857Y-110073866D01*
X76642857Y-110073866D02*
X76595238Y-110264342D01*
X76595238Y-110264342D02*
X76547619Y-110359580D01*
X76547619Y-110359580D02*
X76500000Y-110407200D01*
X76500000Y-110407200D02*
X76404762Y-110454819D01*
X76404762Y-110454819D02*
X76309524Y-110454819D01*
X76309524Y-110454819D02*
X76214286Y-110407200D01*
X76214286Y-110407200D02*
X76166667Y-110359580D01*
X76166667Y-110359580D02*
X76119048Y-110264342D01*
X76119048Y-110264342D02*
X76071429Y-110073866D01*
X76071429Y-110073866D02*
X76071429Y-109835771D01*
X76071429Y-109835771D02*
X76119048Y-109645295D01*
X76119048Y-109645295D02*
X76166667Y-109550057D01*
X76166667Y-109550057D02*
X76214286Y-109502438D01*
X76214286Y-109502438D02*
X76309524Y-109454819D01*
D11*
%TO.C,J8*%
X63395000Y-98895000D02*
X64725000Y-98895000D01*
X63395000Y-100225000D02*
X63395000Y-98895000D01*
X63395000Y-101495000D02*
X63395000Y-106635000D01*
X63395000Y-101495000D02*
X65995000Y-101495000D01*
X63395000Y-106635000D02*
X68595000Y-106635000D01*
X65995000Y-98895000D02*
X68595000Y-98895000D01*
X65995000Y-101495000D02*
X65995000Y-98895000D01*
X68595000Y-98895000D02*
X68595000Y-106635000D01*
%TO.C,J7*%
X48880000Y-98880000D02*
X50210000Y-98880000D01*
X48880000Y-100210000D02*
X48880000Y-98880000D01*
X48880000Y-101480000D02*
X48880000Y-104080000D01*
X48880000Y-101480000D02*
X51480000Y-101480000D01*
X48880000Y-104080000D02*
X54080000Y-104080000D01*
X51480000Y-98880000D02*
X54080000Y-98880000D01*
X51480000Y-101480000D02*
X51480000Y-98880000D01*
X54080000Y-98880000D02*
X54080000Y-104080000D01*
%TO.C,J12*%
X88460000Y-113560000D02*
X88460000Y-114010000D01*
X88910000Y-114010000D02*
X88460000Y-114010000D01*
X89140000Y-108490000D02*
X89140000Y-108910000D01*
X89140000Y-116010000D02*
X89140000Y-115590000D01*
X91120000Y-108490000D02*
X89140000Y-108490000D01*
X91120000Y-116010000D02*
X89140000Y-116010000D01*
X93090000Y-108490000D02*
X93490000Y-108490000D01*
X93490000Y-116010000D02*
X93090000Y-116010000D01*
%TO.C,J11*%
X83670000Y-98870000D02*
X85000000Y-98870000D01*
X83670000Y-100200000D02*
X83670000Y-98870000D01*
X83670000Y-101470000D02*
X83670000Y-109150000D01*
X83670000Y-101470000D02*
X86330000Y-101470000D01*
X83670000Y-109150000D02*
X86330000Y-109150000D01*
X86330000Y-101470000D02*
X86330000Y-109150000D01*
%TO.C,J10*%
X70170000Y-114410000D02*
X70170000Y-115480000D01*
X70170000Y-115480000D02*
X80830000Y-115480000D01*
X70220000Y-111620000D02*
X70220000Y-112590000D01*
X72840000Y-111100000D02*
X72840000Y-111620000D01*
X72840000Y-111620000D02*
X70220000Y-111620000D01*
X80780000Y-111620000D02*
X78160000Y-111620000D01*
X80780000Y-112590000D02*
X80780000Y-111620000D01*
X80830000Y-115480000D02*
X80830000Y-114410000D01*
%TD*%
M02*
