%TF.GenerationSoftware,KiCad,Pcbnew,8.0.0*%
%TF.CreationDate,2024-02-26T11:32:58-08:00*%
%TF.ProjectId,gotek-breakout,676f7465-6b2d-4627-9265-616b6f75742e,rev?*%
%TF.SameCoordinates,Original*%
%TF.FileFunction,Copper,L1,Top*%
%TF.FilePolarity,Positive*%
%FSLAX46Y46*%
G04 Gerber Fmt 4.6, Leading zero omitted, Abs format (unit mm)*
G04 Created by KiCad (PCBNEW 8.0.0) date 2024-02-26 11:32:58*
%MOMM*%
%LPD*%
G01*
G04 APERTURE LIST*
%TA.AperFunction,ComponentPad*%
%ADD10R,1.700000X1.700000*%
%TD*%
%TA.AperFunction,ComponentPad*%
%ADD11O,1.700000X1.700000*%
%TD*%
%TA.AperFunction,SMDPad,CuDef*%
%ADD12R,1.350000X0.400000*%
%TD*%
%TA.AperFunction,ComponentPad*%
%ADD13O,1.550000X0.890000*%
%TD*%
%TA.AperFunction,SMDPad,CuDef*%
%ADD14R,1.550000X1.200000*%
%TD*%
%TA.AperFunction,ComponentPad*%
%ADD15O,0.950000X1.250000*%
%TD*%
%TA.AperFunction,SMDPad,CuDef*%
%ADD16R,1.550000X1.500000*%
%TD*%
%TA.AperFunction,SMDPad,CuDef*%
%ADD17R,0.300000X1.000000*%
%TD*%
%TA.AperFunction,SMDPad,CuDef*%
%ADD18R,1.650000X1.300000*%
%TD*%
%TA.AperFunction,ViaPad*%
%ADD19C,0.800000*%
%TD*%
%TA.AperFunction,Conductor*%
%ADD20C,0.250000*%
%TD*%
%TA.AperFunction,Conductor*%
%ADD21C,0.200000*%
%TD*%
G04 APERTURE END LIST*
D10*
%TO.P,J8,1,Pin_1*%
%TO.N,/Gotek Side/ROT_SW*%
X64725000Y-100225000D03*
D11*
%TO.P,J8,2,Pin_2*%
%TO.N,unconnected-(J8-Pin_2-Pad2)*%
X67265000Y-100225000D03*
%TO.P,J8,3,Pin_3*%
%TO.N,/Gotek Side/ROT_DT*%
X64725000Y-102765000D03*
%TO.P,J8,4,Pin_4*%
%TO.N,/Gotek Side/ROT_CLK*%
X67265000Y-102765000D03*
%TO.P,J8,5,Pin_5*%
%TO.N,/Gotek Side/GND*%
X64725000Y-105305000D03*
%TO.P,J8,6,Pin_6*%
%TO.N,/Gotek Side/+5V*%
X67265000Y-105305000D03*
%TD*%
D10*
%TO.P,J7,1,Pin_1*%
%TO.N,/Gotek Side/OLED_SCK*%
X50210000Y-100210000D03*
D11*
%TO.P,J7,2,Pin_2*%
%TO.N,/Gotek Side/OLED_SDA*%
X52750000Y-100210000D03*
%TO.P,J7,3,Pin_3*%
%TO.N,/Gotek Side/+3V*%
X50210000Y-102750000D03*
%TO.P,J7,4,Pin_4*%
%TO.N,/Gotek Side/GND*%
X52750000Y-102750000D03*
%TD*%
D12*
%TO.P,J12,1,VBUS*%
%TO.N,/Gotek Side/+5V*%
X89400000Y-113550000D03*
%TO.P,J12,2,D-*%
%TO.N,/Gotek Side/USB_D-*%
X89400000Y-112900000D03*
%TO.P,J12,3,D+*%
%TO.N,/Gotek Side/USB_D+*%
X89400001Y-112250000D03*
%TO.P,J12,4,ID*%
%TO.N,unconnected-(J12-ID-Pad4)*%
X89400000Y-111600000D03*
%TO.P,J12,5,GND*%
%TO.N,/Gotek Side/GND*%
X89400000Y-110950000D03*
D13*
%TO.P,J12,6,Shield*%
X92100000Y-115750000D03*
D14*
X92100000Y-115150000D03*
D15*
X89400000Y-114749999D03*
D16*
X92100000Y-113250000D03*
X92100000Y-111250000D03*
D15*
X89400000Y-109750001D03*
D14*
X92100000Y-109350000D03*
D13*
X92100000Y-108750000D03*
%TD*%
D10*
%TO.P,J11,1,Pin_1*%
%TO.N,/Gotek Side/GND*%
X85000000Y-100200000D03*
D11*
%TO.P,J11,2,Pin_2*%
%TO.N,/Gotek Side/USB_D-*%
X85000000Y-102740000D03*
%TO.P,J11,3,Pin_3*%
%TO.N,/Gotek Side/USB_D+*%
X85000000Y-105280000D03*
%TO.P,J11,4,Pin_4*%
%TO.N,/Gotek Side/+5V*%
X85000000Y-107820000D03*
%TD*%
D17*
%TO.P,J10,1,Pin_1*%
%TO.N,/Gotek Side/ROT_SW*%
X73250000Y-111600000D03*
%TO.P,J10,2,Pin_2*%
%TO.N,/Gotek Side/ROT_DT*%
X73750000Y-111600000D03*
%TO.P,J10,3,Pin_3*%
%TO.N,/Gotek Side/ROT_CLK*%
X74250000Y-111600000D03*
%TO.P,J10,4,Pin_4*%
%TO.N,/Gotek Side/OLED_SDA*%
X74750000Y-111600000D03*
%TO.P,J10,5,Pin_5*%
%TO.N,/Gotek Side/OLED_SCK*%
X75250000Y-111600000D03*
%TO.P,J10,6,Pin_6*%
%TO.N,/Gotek Side/USB_D-*%
X75750000Y-111600000D03*
%TO.P,J10,7,Pin_7*%
%TO.N,/Gotek Side/USB_D+*%
X76250000Y-111600000D03*
%TO.P,J10,8,Pin_8*%
%TO.N,/Gotek Side/+3V*%
X76750000Y-111600000D03*
%TO.P,J10,9,Pin_9*%
%TO.N,/Gotek Side/+5V*%
X77250000Y-111600000D03*
%TO.P,J10,10,Pin_10*%
%TO.N,/Gotek Side/GND*%
X77750000Y-111600000D03*
D18*
%TO.P,J10,MP*%
%TO.N,N/C*%
X70975000Y-113500000D03*
X80025000Y-113500000D03*
%TD*%
D19*
%TO.N,/Gotek Side/GND*%
X91200000Y-107800000D03*
X59000000Y-100000000D03*
X77000000Y-100000000D03*
X59000000Y-106000000D03*
X64000000Y-113000000D03*
X57000000Y-113000000D03*
X50000000Y-113000000D03*
%TO.N,/Gotek Side/ROT_SW*%
X72000000Y-108900000D03*
%TO.N,/Gotek Side/+5V*%
X77250000Y-113450000D03*
%TO.N,/Gotek Side/+3V*%
X76429265Y-114525000D03*
%TO.N,/Gotek Side/GND*%
X93000000Y-101000000D03*
X84100000Y-113000000D03*
%TD*%
D20*
%TO.N,/Gotek Side/+5V*%
X77250000Y-111600000D02*
X77250000Y-108850000D01*
X77250000Y-108850000D02*
X78280000Y-107820000D01*
X78280000Y-107820000D02*
X85000000Y-107820000D01*
X85000000Y-107820000D02*
X85000000Y-110800000D01*
X85000000Y-110800000D02*
X87750000Y-113550000D01*
X87750000Y-113550000D02*
X89400000Y-113550000D01*
D21*
%TO.N,/Gotek Side/USB_D-*%
X85000000Y-102740000D02*
X87440000Y-102740000D01*
X90225001Y-112900000D02*
X89400000Y-112900000D01*
X87440000Y-102740000D02*
X90500000Y-105800000D01*
X90500000Y-112625001D02*
X90225001Y-112900000D01*
X90500000Y-105800000D02*
X90500000Y-112625001D01*
%TO.N,/Gotek Side/USB_D+*%
X88156000Y-108845280D02*
G75*
G02*
X88400020Y-109089280I0J-244020D01*
G01*
X87644000Y-110675280D02*
G75*
G03*
X87399980Y-110919280I0J-244020D01*
G01*
X86644000Y-109455280D02*
G75*
G03*
X86399980Y-109699280I0J-244020D01*
G01*
X88400000Y-110431280D02*
G75*
G02*
X88156000Y-110675300I-244000J-20D01*
G01*
X88400000Y-109211280D02*
G75*
G02*
X88156000Y-109455300I-244000J-20D01*
G01*
X88156000Y-110065280D02*
G75*
G02*
X88400020Y-110309280I0J-244020D01*
G01*
X87400000Y-108601280D02*
G75*
G03*
X87644000Y-108845300I244000J-20D01*
G01*
X86400000Y-109821280D02*
G75*
G03*
X86644000Y-110065300I244000J-20D01*
G01*
X87400000Y-111600000D02*
X87400000Y-111700000D01*
X86400000Y-109699280D02*
X86400000Y-109821280D01*
X87400000Y-111041280D02*
X87400000Y-111600000D01*
X85000000Y-105280000D02*
X87400000Y-107680000D01*
X87400000Y-107680000D02*
X87400000Y-108601280D01*
X87644000Y-108845280D02*
X88156000Y-108845280D01*
X88400000Y-109089280D02*
X88400000Y-109211280D01*
X87950000Y-112250000D02*
X89400001Y-112250000D01*
X88156000Y-109455280D02*
X87644000Y-109455280D01*
X88156000Y-110675280D02*
X87644000Y-110675280D01*
X87644000Y-109455280D02*
X86644000Y-109455280D01*
X87400000Y-110919280D02*
X87400000Y-111041280D01*
X86644000Y-110065280D02*
X87400000Y-110065280D01*
X87400000Y-110065280D02*
X88156000Y-110065280D01*
X88400000Y-110309280D02*
X88400000Y-110431280D01*
X87400000Y-111700000D02*
X87950000Y-112250000D01*
%TO.N,/Gotek Side/USB_D-*%
X75750000Y-111600000D02*
X75750000Y-106750000D01*
%TO.N,/Gotek Side/USB_D+*%
X76250000Y-106850000D02*
X76250000Y-111600000D01*
X83678332Y-105280000D02*
G75*
G03*
X83438300Y-105520000I-32J-240000D01*
G01*
X83438332Y-106040000D02*
G75*
G02*
X83198332Y-106280032I-240032J0D01*
G01*
X83078332Y-106280000D02*
G75*
G02*
X82838300Y-106040000I-32J240000D01*
G01*
X82838332Y-105520000D02*
G75*
G03*
X82598332Y-105279968I-240032J0D01*
G01*
X82838332Y-106040000D02*
X82838332Y-105520000D01*
X85000000Y-105280000D02*
X83678332Y-105280000D01*
X83438332Y-105520000D02*
X83438332Y-106040000D01*
X82598332Y-105280000D02*
X82478332Y-105280000D01*
X82100000Y-105280000D02*
X77820000Y-105280000D01*
X82478332Y-105280000D02*
X82100000Y-105280000D01*
X77820000Y-105280000D02*
X76250000Y-106850000D01*
X83198332Y-106280000D02*
X83078332Y-106280000D01*
%TO.N,/Gotek Side/USB_D-*%
X75750000Y-106750000D02*
X79760000Y-102740000D01*
X79760000Y-102740000D02*
X85000000Y-102740000D01*
D20*
%TO.N,/Gotek Side/GND*%
X92415000Y-109015000D02*
X91200000Y-107800000D01*
X92415000Y-110950000D02*
X92415000Y-109015000D01*
X77750000Y-112250000D02*
X78200000Y-112700000D01*
X77750000Y-111600000D02*
X77750000Y-112250000D01*
X77750000Y-110950000D02*
X78200000Y-110500000D01*
X77750000Y-111600000D02*
X77750000Y-110950000D01*
X77750000Y-111600000D02*
X78600000Y-111600000D01*
%TO.N,/Gotek Side/+3V*%
X76429265Y-113170735D02*
X76750000Y-112850000D01*
X76429265Y-114525000D02*
X76429265Y-113170735D01*
X76750000Y-112850000D02*
X76750000Y-111600000D01*
%TO.N,/Gotek Side/+5V*%
X77250000Y-113450000D02*
X77250000Y-111600000D01*
%TO.N,/Gotek Side/OLED_SCK*%
X50210000Y-100210000D02*
X51385000Y-101385000D01*
X61150000Y-101950000D02*
X62500000Y-103300000D01*
X51385000Y-101385000D02*
X53288604Y-101385000D01*
X53288604Y-101385000D02*
X53853604Y-101950000D01*
X53853604Y-101950000D02*
X61150000Y-101950000D01*
X62500000Y-103300000D02*
X62500000Y-108900000D01*
X68400000Y-114800000D02*
X74500000Y-114800000D01*
X62500000Y-108900000D02*
X68400000Y-114800000D01*
X74500000Y-114800000D02*
X75250000Y-114050000D01*
X75250000Y-114050000D02*
X75250000Y-111600000D01*
%TO.N,/Gotek Side/OLED_SDA*%
X52750000Y-100210000D02*
X54040000Y-101500000D01*
X54040000Y-101500000D02*
X71200000Y-101500000D01*
X71200000Y-101500000D02*
X74750000Y-105050000D01*
X74750000Y-105050000D02*
X74750000Y-111600000D01*
%TO.N,/Gotek Side/ROT_SW*%
X72000000Y-108900000D02*
X73250000Y-110150000D01*
X73250000Y-110150000D02*
X73250000Y-111600000D01*
%TO.N,/Gotek Side/ROT_DT*%
X64725000Y-102765000D02*
X66090000Y-104130000D01*
X73750000Y-107650000D02*
X73750000Y-111600000D01*
X66090000Y-104130000D02*
X70230000Y-104130000D01*
X70230000Y-104130000D02*
X73750000Y-107650000D01*
%TO.N,/Gotek Side/ROT_CLK*%
X67265000Y-102765000D02*
X70165000Y-102765000D01*
X74250000Y-106850000D02*
X74250000Y-111600000D01*
X70165000Y-102765000D02*
X74250000Y-106850000D01*
%TD*%
%TA.AperFunction,Conductor*%
%TO.N,/Gotek Side/GND*%
G36*
X93443039Y-98519685D02*
G01*
X93488794Y-98572489D01*
X93500000Y-98624000D01*
X93500000Y-108242412D01*
X93480315Y-108309451D01*
X93427511Y-108355206D01*
X93358353Y-108365150D01*
X93294797Y-108336125D01*
X93271522Y-108306978D01*
X93270833Y-108307440D01*
X93164029Y-108147598D01*
X93164026Y-108147594D01*
X93032405Y-108015973D01*
X93032401Y-108015970D01*
X92877631Y-107912555D01*
X92877622Y-107912550D01*
X92705646Y-107841316D01*
X92705638Y-107841314D01*
X92523077Y-107805000D01*
X92350000Y-107805000D01*
X92350000Y-108500000D01*
X91850000Y-108500000D01*
X91850000Y-107805000D01*
X91676923Y-107805000D01*
X91494361Y-107841314D01*
X91494353Y-107841316D01*
X91322377Y-107912550D01*
X91322365Y-107912557D01*
X91293389Y-107931918D01*
X91226711Y-107952795D01*
X91159331Y-107934309D01*
X91112642Y-107882330D01*
X91100500Y-107828815D01*
X91100500Y-105889060D01*
X91100501Y-105889047D01*
X91100501Y-105720944D01*
X91098348Y-105712908D01*
X91059577Y-105568216D01*
X91051947Y-105555000D01*
X90980524Y-105431290D01*
X90980518Y-105431282D01*
X87927590Y-102378355D01*
X87927588Y-102378352D01*
X87808717Y-102259481D01*
X87808716Y-102259480D01*
X87721904Y-102209360D01*
X87721904Y-102209359D01*
X87721900Y-102209358D01*
X87671785Y-102180423D01*
X87519057Y-102139499D01*
X87360943Y-102139499D01*
X87353347Y-102139499D01*
X87353331Y-102139500D01*
X86289091Y-102139500D01*
X86222052Y-102119815D01*
X86176711Y-102067909D01*
X86174037Y-102062175D01*
X86174034Y-102062170D01*
X86038496Y-101868600D01*
X86038495Y-101868599D01*
X85916179Y-101746283D01*
X85882696Y-101684963D01*
X85887680Y-101615271D01*
X85929551Y-101559337D01*
X85960529Y-101542422D01*
X86092086Y-101493354D01*
X86092093Y-101493350D01*
X86207187Y-101407190D01*
X86207190Y-101407187D01*
X86293350Y-101292093D01*
X86293354Y-101292086D01*
X86343596Y-101157379D01*
X86343598Y-101157372D01*
X86349999Y-101097844D01*
X86350000Y-101097827D01*
X86350000Y-100450000D01*
X85433012Y-100450000D01*
X85465925Y-100392993D01*
X85500000Y-100265826D01*
X85500000Y-100134174D01*
X85465925Y-100007007D01*
X85433012Y-99950000D01*
X86350000Y-99950000D01*
X86350000Y-99302172D01*
X86349999Y-99302155D01*
X86343598Y-99242627D01*
X86343596Y-99242620D01*
X86293354Y-99107913D01*
X86293350Y-99107906D01*
X86207190Y-98992812D01*
X86207187Y-98992809D01*
X86092093Y-98906649D01*
X86092086Y-98906645D01*
X85957379Y-98856403D01*
X85957372Y-98856401D01*
X85897844Y-98850000D01*
X85250000Y-98850000D01*
X85250000Y-99766988D01*
X85192993Y-99734075D01*
X85065826Y-99700000D01*
X84934174Y-99700000D01*
X84807007Y-99734075D01*
X84750000Y-99766988D01*
X84750000Y-98850000D01*
X84102155Y-98850000D01*
X84042627Y-98856401D01*
X84042620Y-98856403D01*
X83907913Y-98906645D01*
X83907906Y-98906649D01*
X83792812Y-98992809D01*
X83792809Y-98992812D01*
X83706649Y-99107906D01*
X83706645Y-99107913D01*
X83656403Y-99242620D01*
X83656401Y-99242627D01*
X83650000Y-99302155D01*
X83650000Y-99950000D01*
X84566988Y-99950000D01*
X84534075Y-100007007D01*
X84500000Y-100134174D01*
X84500000Y-100265826D01*
X84534075Y-100392993D01*
X84566988Y-100450000D01*
X83650000Y-100450000D01*
X83650000Y-101097844D01*
X83656401Y-101157372D01*
X83656403Y-101157379D01*
X83706645Y-101292086D01*
X83706649Y-101292093D01*
X83792809Y-101407187D01*
X83792812Y-101407190D01*
X83907906Y-101493350D01*
X83907913Y-101493354D01*
X84039470Y-101542421D01*
X84095403Y-101584292D01*
X84119821Y-101649756D01*
X84104970Y-101718029D01*
X84083819Y-101746284D01*
X83961503Y-101868600D01*
X83825965Y-102062170D01*
X83825962Y-102062175D01*
X83823289Y-102067909D01*
X83777115Y-102120346D01*
X83710909Y-102139500D01*
X79680940Y-102139500D01*
X79640019Y-102150464D01*
X79640019Y-102150465D01*
X79602751Y-102160451D01*
X79528214Y-102180423D01*
X79528209Y-102180426D01*
X79391290Y-102259475D01*
X79391282Y-102259481D01*
X75587181Y-106063583D01*
X75525858Y-106097068D01*
X75456166Y-106092084D01*
X75400233Y-106050212D01*
X75375816Y-105984748D01*
X75375500Y-105975902D01*
X75375500Y-104988396D01*
X75375499Y-104988389D01*
X75375454Y-104988164D01*
X75375408Y-104987935D01*
X75351463Y-104867549D01*
X75351287Y-104867125D01*
X75330251Y-104816337D01*
X75330251Y-104816336D01*
X75304315Y-104753720D01*
X75304313Y-104753717D01*
X75304312Y-104753714D01*
X75254744Y-104679532D01*
X75254716Y-104679490D01*
X75235859Y-104651268D01*
X75235855Y-104651263D01*
X75145637Y-104561045D01*
X75145606Y-104561016D01*
X71690198Y-101105608D01*
X71690178Y-101105586D01*
X71598733Y-101014141D01*
X71547509Y-100979915D01*
X71496287Y-100945689D01*
X71496286Y-100945688D01*
X71496283Y-100945686D01*
X71496280Y-100945685D01*
X71415792Y-100912347D01*
X71382453Y-100898537D01*
X71372427Y-100896543D01*
X71322029Y-100886518D01*
X71261610Y-100874500D01*
X71261607Y-100874500D01*
X71261606Y-100874500D01*
X68646887Y-100874500D01*
X68579848Y-100854815D01*
X68534093Y-100802011D01*
X68524149Y-100732853D01*
X68534504Y-100698098D01*
X68538900Y-100688670D01*
X68538900Y-100688668D01*
X68538903Y-100688663D01*
X68600063Y-100460408D01*
X68620659Y-100225000D01*
X68600063Y-99989592D01*
X68538903Y-99761337D01*
X68439035Y-99547171D01*
X68303495Y-99353599D01*
X68303494Y-99353597D01*
X68136402Y-99186506D01*
X68136395Y-99186501D01*
X67942834Y-99050967D01*
X67942830Y-99050965D01*
X67910660Y-99035964D01*
X67728663Y-98951097D01*
X67728659Y-98951096D01*
X67728655Y-98951094D01*
X67500413Y-98889938D01*
X67500403Y-98889936D01*
X67265001Y-98869341D01*
X67264999Y-98869341D01*
X67029596Y-98889936D01*
X67029586Y-98889938D01*
X66801344Y-98951094D01*
X66801335Y-98951098D01*
X66587171Y-99050964D01*
X66587169Y-99050965D01*
X66393600Y-99186503D01*
X66271673Y-99308430D01*
X66210350Y-99341914D01*
X66140658Y-99336930D01*
X66084725Y-99295058D01*
X66067810Y-99264081D01*
X66018797Y-99132671D01*
X66018793Y-99132664D01*
X65932547Y-99017455D01*
X65932544Y-99017452D01*
X65817335Y-98931206D01*
X65817328Y-98931202D01*
X65682482Y-98880908D01*
X65682483Y-98880908D01*
X65622883Y-98874501D01*
X65622881Y-98874500D01*
X65622873Y-98874500D01*
X65622864Y-98874500D01*
X63827129Y-98874500D01*
X63827123Y-98874501D01*
X63767516Y-98880908D01*
X63632671Y-98931202D01*
X63632664Y-98931206D01*
X63517455Y-99017452D01*
X63517452Y-99017455D01*
X63431206Y-99132664D01*
X63431202Y-99132671D01*
X63380908Y-99267517D01*
X63374501Y-99327116D01*
X63374500Y-99327135D01*
X63374501Y-100750500D01*
X63354816Y-100817539D01*
X63302013Y-100863294D01*
X63250501Y-100874500D01*
X54350453Y-100874500D01*
X54283414Y-100854815D01*
X54262772Y-100838181D01*
X54190697Y-100766106D01*
X54090236Y-100665646D01*
X54056752Y-100604324D01*
X54058143Y-100545872D01*
X54081042Y-100460413D01*
X54085063Y-100445408D01*
X54105659Y-100210000D01*
X54085063Y-99974592D01*
X54023903Y-99746337D01*
X53924035Y-99532171D01*
X53790817Y-99341914D01*
X53788494Y-99338597D01*
X53621402Y-99171506D01*
X53621395Y-99171501D01*
X53427834Y-99035967D01*
X53427830Y-99035965D01*
X53388129Y-99017452D01*
X53213663Y-98936097D01*
X53213659Y-98936096D01*
X53213655Y-98936094D01*
X52985413Y-98874938D01*
X52985403Y-98874936D01*
X52750001Y-98854341D01*
X52749999Y-98854341D01*
X52514596Y-98874936D01*
X52514586Y-98874938D01*
X52286344Y-98936094D01*
X52286335Y-98936098D01*
X52072171Y-99035964D01*
X52072169Y-99035965D01*
X51878600Y-99171503D01*
X51756673Y-99293430D01*
X51695350Y-99326914D01*
X51625658Y-99321930D01*
X51569725Y-99280058D01*
X51552810Y-99249081D01*
X51503797Y-99117671D01*
X51503793Y-99117664D01*
X51417547Y-99002455D01*
X51417544Y-99002452D01*
X51302335Y-98916206D01*
X51302328Y-98916202D01*
X51167482Y-98865908D01*
X51167483Y-98865908D01*
X51107883Y-98859501D01*
X51107881Y-98859500D01*
X51107873Y-98859500D01*
X51107864Y-98859500D01*
X49312129Y-98859500D01*
X49312123Y-98859501D01*
X49252516Y-98865908D01*
X49117671Y-98916202D01*
X49117664Y-98916206D01*
X49002455Y-99002452D01*
X49002452Y-99002455D01*
X48916206Y-99117664D01*
X48916202Y-99117671D01*
X48865908Y-99252517D01*
X48859501Y-99312116D01*
X48859500Y-99312135D01*
X48859500Y-101107870D01*
X48859501Y-101107876D01*
X48865908Y-101167483D01*
X48916202Y-101302328D01*
X48916206Y-101302335D01*
X49002452Y-101417544D01*
X49002455Y-101417547D01*
X49117664Y-101503793D01*
X49117671Y-101503797D01*
X49249081Y-101552810D01*
X49305015Y-101594681D01*
X49329432Y-101660145D01*
X49314580Y-101728418D01*
X49293430Y-101756673D01*
X49171503Y-101878600D01*
X49035965Y-102072169D01*
X49035964Y-102072171D01*
X48936098Y-102286335D01*
X48936094Y-102286344D01*
X48874938Y-102514586D01*
X48874936Y-102514596D01*
X48854341Y-102749999D01*
X48854341Y-102750000D01*
X48874936Y-102985403D01*
X48874938Y-102985413D01*
X48936094Y-103213655D01*
X48936096Y-103213659D01*
X48936097Y-103213663D01*
X49030500Y-103416110D01*
X49035965Y-103427830D01*
X49035967Y-103427834D01*
X49089650Y-103504500D01*
X49171505Y-103621401D01*
X49338599Y-103788495D01*
X49435384Y-103856265D01*
X49532165Y-103924032D01*
X49532167Y-103924033D01*
X49532170Y-103924035D01*
X49746337Y-104023903D01*
X49974592Y-104085063D01*
X50146039Y-104100063D01*
X50209999Y-104105659D01*
X50210000Y-104105659D01*
X50210001Y-104105659D01*
X50249234Y-104102226D01*
X50445408Y-104085063D01*
X50673663Y-104023903D01*
X50887830Y-103924035D01*
X51081401Y-103788495D01*
X51248495Y-103621401D01*
X51378730Y-103435405D01*
X51433307Y-103391781D01*
X51502805Y-103384587D01*
X51565160Y-103416110D01*
X51581879Y-103435405D01*
X51711890Y-103621078D01*
X51878917Y-103788105D01*
X52072421Y-103923600D01*
X52286507Y-104023429D01*
X52286516Y-104023433D01*
X52500000Y-104080634D01*
X52500000Y-103183012D01*
X52557007Y-103215925D01*
X52684174Y-103250000D01*
X52815826Y-103250000D01*
X52942993Y-103215925D01*
X53000000Y-103183012D01*
X53000000Y-104080633D01*
X53213483Y-104023433D01*
X53213492Y-104023429D01*
X53427578Y-103923600D01*
X53621082Y-103788105D01*
X53788105Y-103621082D01*
X53923600Y-103427578D01*
X54023429Y-103213492D01*
X54023432Y-103213486D01*
X54080636Y-103000000D01*
X53183012Y-103000000D01*
X53215925Y-102942993D01*
X53250000Y-102815826D01*
X53250000Y-102684174D01*
X53215925Y-102557007D01*
X53183012Y-102500000D01*
X53522244Y-102500000D01*
X53569694Y-102509438D01*
X53618349Y-102529591D01*
X53618350Y-102529592D01*
X53618351Y-102529592D01*
X53671152Y-102551463D01*
X53691201Y-102555451D01*
X53724800Y-102562134D01*
X53791996Y-102575501D01*
X53791998Y-102575501D01*
X53921325Y-102575501D01*
X53921345Y-102575500D01*
X60839548Y-102575500D01*
X60906587Y-102595185D01*
X60927229Y-102611819D01*
X61838181Y-103522771D01*
X61871666Y-103584094D01*
X61874500Y-103610452D01*
X61874500Y-108961610D01*
X61896611Y-109072771D01*
X61898537Y-109082452D01*
X61901345Y-109089231D01*
X61912347Y-109115792D01*
X61912347Y-109115793D01*
X61945685Y-109196281D01*
X61945687Y-109196285D01*
X61970846Y-109233936D01*
X61970847Y-109233938D01*
X62014141Y-109298732D01*
X62014144Y-109298736D01*
X62105586Y-109390178D01*
X62105608Y-109390198D01*
X67911016Y-115195606D01*
X67911045Y-115195637D01*
X68001264Y-115285856D01*
X68001267Y-115285858D01*
X68052490Y-115320084D01*
X68103714Y-115354312D01*
X68180563Y-115386143D01*
X68180564Y-115386144D01*
X68180565Y-115386144D01*
X68217548Y-115401463D01*
X68277971Y-115413481D01*
X68338393Y-115425500D01*
X74561607Y-115425500D01*
X74622029Y-115413481D01*
X74682452Y-115401463D01*
X74719435Y-115386144D01*
X74796286Y-115354312D01*
X74847509Y-115320084D01*
X74847511Y-115320083D01*
X74863876Y-115309148D01*
X74898733Y-115285858D01*
X74985858Y-115198733D01*
X74985859Y-115198731D01*
X74992925Y-115191665D01*
X74992928Y-115191661D01*
X75382790Y-114801798D01*
X75444111Y-114768315D01*
X75513803Y-114773299D01*
X75569736Y-114815171D01*
X75588400Y-114851163D01*
X75602083Y-114893278D01*
X75602086Y-114893284D01*
X75696732Y-115057216D01*
X75802785Y-115174999D01*
X75823394Y-115197888D01*
X75976530Y-115309148D01*
X75976535Y-115309151D01*
X76149457Y-115386142D01*
X76149462Y-115386144D01*
X76334619Y-115425500D01*
X76334620Y-115425500D01*
X76523909Y-115425500D01*
X76523911Y-115425500D01*
X76709068Y-115386144D01*
X76881995Y-115309151D01*
X77035136Y-115197888D01*
X77161798Y-115057216D01*
X77256444Y-114893284D01*
X77314939Y-114713256D01*
X77334725Y-114525000D01*
X77328672Y-114467411D01*
X77341241Y-114398684D01*
X77388973Y-114347660D01*
X77426204Y-114333164D01*
X77529803Y-114311144D01*
X77529807Y-114311142D01*
X77529808Y-114311142D01*
X77650328Y-114257482D01*
X77702730Y-114234151D01*
X77752667Y-114197870D01*
X78699500Y-114197870D01*
X78699501Y-114197876D01*
X78705908Y-114257483D01*
X78756202Y-114392328D01*
X78756206Y-114392335D01*
X78842452Y-114507544D01*
X78842455Y-114507547D01*
X78957664Y-114593793D01*
X78957671Y-114593797D01*
X79092517Y-114644091D01*
X79092516Y-114644091D01*
X79099444Y-114644835D01*
X79152127Y-114650500D01*
X80897872Y-114650499D01*
X80957483Y-114644091D01*
X81092331Y-114593796D01*
X81207546Y-114507546D01*
X81293796Y-114392331D01*
X81344091Y-114257483D01*
X81350500Y-114197873D01*
X81350499Y-112802128D01*
X81344091Y-112742517D01*
X81320992Y-112680586D01*
X81293797Y-112607671D01*
X81293793Y-112607664D01*
X81207547Y-112492455D01*
X81207544Y-112492452D01*
X81092335Y-112406206D01*
X81092328Y-112406202D01*
X80957482Y-112355908D01*
X80957483Y-112355908D01*
X80897883Y-112349501D01*
X80897881Y-112349500D01*
X80897873Y-112349500D01*
X80897864Y-112349500D01*
X79152129Y-112349500D01*
X79152123Y-112349501D01*
X79092516Y-112355908D01*
X78957671Y-112406202D01*
X78957664Y-112406206D01*
X78842455Y-112492452D01*
X78842452Y-112492455D01*
X78756206Y-112607664D01*
X78756202Y-112607671D01*
X78705908Y-112742517D01*
X78699501Y-112802116D01*
X78699501Y-112802123D01*
X78699500Y-112802135D01*
X78699500Y-114197870D01*
X77752667Y-114197870D01*
X77855871Y-114122888D01*
X77982533Y-113982216D01*
X78077179Y-113818284D01*
X78135674Y-113638256D01*
X78155460Y-113450000D01*
X78135674Y-113261744D01*
X78077179Y-113081716D01*
X77982533Y-112917784D01*
X77943514Y-112874449D01*
X77907350Y-112834284D01*
X77877120Y-112771292D01*
X77875500Y-112751312D01*
X77875500Y-112719159D01*
X77895185Y-112652120D01*
X77947989Y-112606365D01*
X77986245Y-112595870D01*
X78007372Y-112593598D01*
X78007379Y-112593596D01*
X78142086Y-112543354D01*
X78142093Y-112543350D01*
X78257187Y-112457190D01*
X78257190Y-112457187D01*
X78343350Y-112342093D01*
X78343354Y-112342086D01*
X78393596Y-112207379D01*
X78393598Y-112207372D01*
X78399999Y-112147844D01*
X78400000Y-112147827D01*
X78400000Y-111750000D01*
X78024500Y-111750000D01*
X77957461Y-111730315D01*
X77911706Y-111677511D01*
X77900500Y-111626002D01*
X77900499Y-111574002D01*
X77920182Y-111506963D01*
X77972985Y-111461207D01*
X78024499Y-111450000D01*
X78400000Y-111450000D01*
X78400000Y-111052172D01*
X78399999Y-111052155D01*
X78393598Y-110992627D01*
X78393596Y-110992620D01*
X78343354Y-110857913D01*
X78343350Y-110857906D01*
X78257190Y-110742812D01*
X78257187Y-110742809D01*
X78142093Y-110656649D01*
X78142086Y-110656645D01*
X78007379Y-110606403D01*
X78007373Y-110606401D01*
X77986241Y-110604129D01*
X77921690Y-110577389D01*
X77881844Y-110519995D01*
X77875500Y-110480840D01*
X77875500Y-109160452D01*
X77895185Y-109093413D01*
X77911819Y-109072771D01*
X78502771Y-108481819D01*
X78564094Y-108448334D01*
X78590452Y-108445500D01*
X83724773Y-108445500D01*
X83791812Y-108465185D01*
X83826348Y-108498377D01*
X83961500Y-108691395D01*
X83961505Y-108691401D01*
X84128599Y-108858495D01*
X84321624Y-108993653D01*
X84365248Y-109048228D01*
X84374500Y-109095226D01*
X84374500Y-110738393D01*
X84374500Y-110861607D01*
X84383312Y-110905909D01*
X84398537Y-110982452D01*
X84402552Y-110992145D01*
X84402552Y-110992146D01*
X84445685Y-111096281D01*
X84445688Y-111096286D01*
X84470773Y-111133827D01*
X84470774Y-111133830D01*
X84470775Y-111133830D01*
X84514141Y-111198733D01*
X84605586Y-111290178D01*
X84605608Y-111290198D01*
X87261016Y-113945606D01*
X87261045Y-113945637D01*
X87351263Y-114035855D01*
X87351267Y-114035858D01*
X87453707Y-114104307D01*
X87453713Y-114104310D01*
X87453714Y-114104311D01*
X87567548Y-114151463D01*
X87627971Y-114163481D01*
X87688393Y-114175500D01*
X87688394Y-114175500D01*
X88339242Y-114175500D01*
X88406281Y-114195185D01*
X88452036Y-114247989D01*
X88461980Y-114317147D01*
X88460859Y-114323691D01*
X88425789Y-114499998D01*
X88425790Y-114499999D01*
X89143763Y-114499999D01*
X89125000Y-114545298D01*
X89125000Y-114954700D01*
X89143763Y-114999999D01*
X88425789Y-114999999D01*
X88462466Y-115184388D01*
X88462468Y-115184396D01*
X88535964Y-115361832D01*
X88535969Y-115361841D01*
X88642667Y-115521525D01*
X88642670Y-115521529D01*
X88778469Y-115657328D01*
X88778473Y-115657331D01*
X88938157Y-115764029D01*
X88938167Y-115764034D01*
X89115599Y-115837529D01*
X89115606Y-115837532D01*
X89150000Y-115844372D01*
X89150000Y-115015055D01*
X89166866Y-115055774D01*
X89244225Y-115133133D01*
X89345299Y-115174999D01*
X89454701Y-115174999D01*
X89555775Y-115133133D01*
X89633134Y-115055774D01*
X89650000Y-115015055D01*
X89650000Y-115844371D01*
X89684393Y-115837532D01*
X89684400Y-115837529D01*
X89861832Y-115764034D01*
X89861842Y-115764029D01*
X90021526Y-115657331D01*
X90021530Y-115657328D01*
X90157329Y-115521529D01*
X90157332Y-115521525D01*
X90264030Y-115361841D01*
X90264035Y-115361832D01*
X90337531Y-115184396D01*
X90337533Y-115184388D01*
X90374210Y-114999999D01*
X89656237Y-114999999D01*
X89675000Y-114954700D01*
X89675000Y-114545298D01*
X89656237Y-114499999D01*
X90374210Y-114499999D01*
X90374210Y-114499998D01*
X90337533Y-114315609D01*
X90337532Y-114315605D01*
X90331101Y-114300079D01*
X90323631Y-114230610D01*
X90354904Y-114168130D01*
X90371346Y-114153359D01*
X90432546Y-114107546D01*
X90518796Y-113992331D01*
X90569091Y-113857483D01*
X90575500Y-113797873D01*
X90575499Y-113450098D01*
X90595183Y-113383060D01*
X90611842Y-113362394D01*
X90613348Y-113360889D01*
X90674682Y-113327424D01*
X90744372Y-113332432D01*
X90800292Y-113374322D01*
X90824687Y-113439794D01*
X90825000Y-113448599D01*
X90825000Y-114047844D01*
X90831401Y-114107372D01*
X90831403Y-114107380D01*
X90877759Y-114231667D01*
X90882743Y-114301359D01*
X90877759Y-114318333D01*
X90831403Y-114442619D01*
X90831401Y-114442627D01*
X90825000Y-114502155D01*
X90825000Y-114900000D01*
X91850000Y-114900000D01*
X91850000Y-109224000D01*
X91869685Y-109156961D01*
X91922489Y-109111206D01*
X91974000Y-109100000D01*
X92226000Y-109100000D01*
X92293039Y-109119685D01*
X92338794Y-109172489D01*
X92350000Y-109224000D01*
X92350000Y-115276000D01*
X92330315Y-115343039D01*
X92277511Y-115388794D01*
X92226000Y-115400000D01*
X90825000Y-115400000D01*
X90825000Y-115500000D01*
X91725272Y-115500000D01*
X91633386Y-115538060D01*
X91563060Y-115608386D01*
X91525000Y-115700272D01*
X91525000Y-115799728D01*
X91563060Y-115891614D01*
X91633386Y-115961940D01*
X91725272Y-116000000D01*
X90856216Y-116000000D01*
X90861316Y-116025644D01*
X90861317Y-116025649D01*
X90932548Y-116197618D01*
X90932555Y-116197631D01*
X91005707Y-116307109D01*
X91026585Y-116373786D01*
X91008101Y-116441166D01*
X90956122Y-116487857D01*
X90902605Y-116500000D01*
X45524000Y-116500000D01*
X45456961Y-116480315D01*
X45411206Y-116427511D01*
X45400000Y-116376000D01*
X45400000Y-98624000D01*
X45419685Y-98556961D01*
X45472489Y-98511206D01*
X45524000Y-98500000D01*
X93376000Y-98500000D01*
X93443039Y-98519685D01*
G37*
%TD.AperFunction*%
%TA.AperFunction,Conductor*%
G36*
X63405489Y-102145185D02*
G01*
X63451244Y-102197989D01*
X63461188Y-102267147D01*
X63452558Y-102296114D01*
X63452947Y-102296256D01*
X63451094Y-102301344D01*
X63389938Y-102529586D01*
X63389936Y-102529596D01*
X63369341Y-102764999D01*
X63369341Y-102765000D01*
X63389936Y-103000403D01*
X63389938Y-103000413D01*
X63451094Y-103228655D01*
X63451096Y-103228659D01*
X63451097Y-103228663D01*
X63536635Y-103412099D01*
X63550965Y-103442830D01*
X63550967Y-103442834D01*
X63606940Y-103522771D01*
X63686505Y-103636401D01*
X63853599Y-103803495D01*
X64025746Y-103924034D01*
X64039594Y-103933730D01*
X64083219Y-103988307D01*
X64090413Y-104057805D01*
X64058890Y-104120160D01*
X64039595Y-104136880D01*
X63853922Y-104266890D01*
X63853920Y-104266891D01*
X63686891Y-104433920D01*
X63686886Y-104433926D01*
X63551400Y-104627420D01*
X63551399Y-104627422D01*
X63451570Y-104841507D01*
X63451567Y-104841513D01*
X63394364Y-105054999D01*
X63394364Y-105055000D01*
X64291988Y-105055000D01*
X64259075Y-105112007D01*
X64225000Y-105239174D01*
X64225000Y-105370826D01*
X64259075Y-105497993D01*
X64291988Y-105555000D01*
X63394364Y-105555000D01*
X63451567Y-105768486D01*
X63451570Y-105768492D01*
X63551399Y-105982578D01*
X63686894Y-106176082D01*
X63853917Y-106343105D01*
X64047421Y-106478600D01*
X64261507Y-106578429D01*
X64261516Y-106578433D01*
X64475000Y-106635634D01*
X64475000Y-105738012D01*
X64532007Y-105770925D01*
X64659174Y-105805000D01*
X64790826Y-105805000D01*
X64917993Y-105770925D01*
X64975000Y-105738012D01*
X64975000Y-106635633D01*
X65188483Y-106578433D01*
X65188492Y-106578429D01*
X65402578Y-106478600D01*
X65596082Y-106343105D01*
X65763105Y-106176082D01*
X65893119Y-105990405D01*
X65947696Y-105946781D01*
X66017195Y-105939588D01*
X66079549Y-105971110D01*
X66096269Y-105990405D01*
X66226505Y-106176401D01*
X66393599Y-106343495D01*
X66456435Y-106387493D01*
X66587165Y-106479032D01*
X66587167Y-106479033D01*
X66587170Y-106479035D01*
X66801337Y-106578903D01*
X67029592Y-106640063D01*
X67217918Y-106656539D01*
X67264999Y-106660659D01*
X67265000Y-106660659D01*
X67265001Y-106660659D01*
X67304234Y-106657226D01*
X67500408Y-106640063D01*
X67728663Y-106578903D01*
X67942830Y-106479035D01*
X68136401Y-106343495D01*
X68303495Y-106176401D01*
X68439035Y-105982830D01*
X68538903Y-105768663D01*
X68600063Y-105540408D01*
X68620659Y-105305000D01*
X68600063Y-105069592D01*
X68557728Y-104911593D01*
X68559391Y-104841743D01*
X68598554Y-104783881D01*
X68662782Y-104756377D01*
X68677503Y-104755500D01*
X69919548Y-104755500D01*
X69986587Y-104775185D01*
X70007229Y-104791819D01*
X73088181Y-107872771D01*
X73121666Y-107934094D01*
X73124500Y-107960452D01*
X73124500Y-108663869D01*
X73104815Y-108730908D01*
X73052011Y-108776663D01*
X72982853Y-108786607D01*
X72919297Y-108757582D01*
X72882569Y-108702187D01*
X72827181Y-108531722D01*
X72827180Y-108531721D01*
X72827179Y-108531716D01*
X72732533Y-108367784D01*
X72605871Y-108227112D01*
X72603095Y-108225095D01*
X72452734Y-108115851D01*
X72452729Y-108115848D01*
X72279807Y-108038857D01*
X72279802Y-108038855D01*
X72134001Y-108007865D01*
X72094646Y-107999500D01*
X71905354Y-107999500D01*
X71872897Y-108006398D01*
X71720197Y-108038855D01*
X71720192Y-108038857D01*
X71547270Y-108115848D01*
X71547265Y-108115851D01*
X71394129Y-108227111D01*
X71267466Y-108367785D01*
X71172821Y-108531715D01*
X71172818Y-108531722D01*
X71117431Y-108702187D01*
X71114326Y-108711744D01*
X71094540Y-108900000D01*
X71114326Y-109088256D01*
X71114327Y-109088259D01*
X71172818Y-109268277D01*
X71172821Y-109268284D01*
X71267467Y-109432216D01*
X71369289Y-109545300D01*
X71394129Y-109572888D01*
X71547265Y-109684148D01*
X71547270Y-109684151D01*
X71720192Y-109761142D01*
X71720197Y-109761144D01*
X71905354Y-109800500D01*
X71964548Y-109800500D01*
X72031587Y-109820185D01*
X72052229Y-109836819D01*
X72588181Y-110372771D01*
X72621666Y-110434094D01*
X72624500Y-110460452D01*
X72624500Y-110920299D01*
X72616682Y-110963632D01*
X72605908Y-110992516D01*
X72599501Y-111052116D01*
X72599500Y-111052135D01*
X72599500Y-112147870D01*
X72599501Y-112147876D01*
X72605908Y-112207483D01*
X72656202Y-112342328D01*
X72656206Y-112342335D01*
X72742452Y-112457544D01*
X72742455Y-112457547D01*
X72857664Y-112543793D01*
X72857671Y-112543797D01*
X72902618Y-112560561D01*
X72992517Y-112594091D01*
X73052127Y-112600500D01*
X73447872Y-112600499D01*
X73447873Y-112600498D01*
X73447885Y-112600498D01*
X73486744Y-112596320D01*
X73513252Y-112596320D01*
X73552127Y-112600500D01*
X73947872Y-112600499D01*
X73947873Y-112600498D01*
X73947885Y-112600498D01*
X73986744Y-112596320D01*
X74013252Y-112596320D01*
X74052127Y-112600500D01*
X74447872Y-112600499D01*
X74447873Y-112600498D01*
X74447885Y-112600498D01*
X74486744Y-112596320D01*
X74513335Y-112596328D01*
X74513842Y-112596383D01*
X74578373Y-112623166D01*
X74618182Y-112680586D01*
X74624500Y-112719663D01*
X74624500Y-113739548D01*
X74604815Y-113806587D01*
X74588181Y-113827229D01*
X74277229Y-114138181D01*
X74215906Y-114171666D01*
X74189548Y-114174500D01*
X72424500Y-114174500D01*
X72357461Y-114154815D01*
X72311706Y-114102011D01*
X72300500Y-114050500D01*
X72300499Y-112802129D01*
X72300498Y-112802123D01*
X72300497Y-112802116D01*
X72294091Y-112742517D01*
X72270992Y-112680586D01*
X72243797Y-112607671D01*
X72243793Y-112607664D01*
X72157547Y-112492455D01*
X72157544Y-112492452D01*
X72042335Y-112406206D01*
X72042328Y-112406202D01*
X71907482Y-112355908D01*
X71907483Y-112355908D01*
X71847883Y-112349501D01*
X71847881Y-112349500D01*
X71847873Y-112349500D01*
X71847864Y-112349500D01*
X70102129Y-112349500D01*
X70102123Y-112349501D01*
X70042516Y-112355908D01*
X69907671Y-112406202D01*
X69907664Y-112406206D01*
X69792455Y-112492452D01*
X69792452Y-112492455D01*
X69706206Y-112607664D01*
X69706202Y-112607671D01*
X69655908Y-112742517D01*
X69649501Y-112802116D01*
X69649500Y-112802127D01*
X69649500Y-113450099D01*
X69649501Y-114050500D01*
X69629816Y-114117539D01*
X69577013Y-114163294D01*
X69525501Y-114174500D01*
X68710452Y-114174500D01*
X68643413Y-114154815D01*
X68622771Y-114138181D01*
X63161819Y-108677229D01*
X63128334Y-108615906D01*
X63125500Y-108589548D01*
X63125500Y-103238396D01*
X63125500Y-103238394D01*
X63123565Y-103228668D01*
X63123565Y-103228663D01*
X63123564Y-103228664D01*
X63123564Y-103228663D01*
X63101463Y-103117549D01*
X63101460Y-103117541D01*
X63097805Y-103108717D01*
X63097803Y-103108713D01*
X63054312Y-103003716D01*
X63054307Y-103003707D01*
X62985858Y-102901267D01*
X62985855Y-102901263D01*
X62895637Y-102811045D01*
X62895606Y-102811016D01*
X62421771Y-102337181D01*
X62388286Y-102275858D01*
X62393270Y-102206166D01*
X62435142Y-102150233D01*
X62500606Y-102125816D01*
X62509452Y-102125500D01*
X63338450Y-102125500D01*
X63405489Y-102145185D01*
G37*
%TD.AperFunction*%
%TA.AperFunction,Conductor*%
G36*
X89650000Y-110775500D02*
G01*
X89630315Y-110842539D01*
X89577511Y-110888294D01*
X89526000Y-110899500D01*
X89274000Y-110899500D01*
X89206961Y-110879815D01*
X89161206Y-110827011D01*
X89150000Y-110775500D01*
X89150000Y-110015057D01*
X89166866Y-110055776D01*
X89244225Y-110133135D01*
X89345299Y-110175001D01*
X89454701Y-110175001D01*
X89555775Y-110133135D01*
X89633134Y-110055776D01*
X89650000Y-110015057D01*
X89650000Y-110775500D01*
G37*
%TD.AperFunction*%
%TA.AperFunction,Conductor*%
G36*
X87206942Y-103360185D02*
G01*
X87227584Y-103376819D01*
X89863181Y-106012416D01*
X89896666Y-106073739D01*
X89899500Y-106100097D01*
X89899500Y-108565988D01*
X89879815Y-108633027D01*
X89827011Y-108678782D01*
X89757853Y-108688726D01*
X89728048Y-108680550D01*
X89684392Y-108662468D01*
X89684389Y-108662467D01*
X89650000Y-108655626D01*
X89650000Y-109484944D01*
X89633134Y-109444226D01*
X89555775Y-109366867D01*
X89454701Y-109325001D01*
X89345299Y-109325001D01*
X89244225Y-109366867D01*
X89166866Y-109444226D01*
X89150000Y-109484944D01*
X89150000Y-108655626D01*
X89115610Y-108662467D01*
X89115598Y-108662470D01*
X89030179Y-108697852D01*
X88960710Y-108705321D01*
X88898231Y-108674045D01*
X88879628Y-108652187D01*
X88855383Y-108615906D01*
X88811956Y-108550920D01*
X88694326Y-108433299D01*
X88694322Y-108433296D01*
X88694319Y-108433293D01*
X88556021Y-108340892D01*
X88556016Y-108340889D01*
X88556011Y-108340886D01*
X88556004Y-108340883D01*
X88402333Y-108277234D01*
X88402326Y-108277231D01*
X88320749Y-108261005D01*
X88239174Y-108244780D01*
X88239173Y-108244780D01*
X88124500Y-108244780D01*
X88057461Y-108225095D01*
X88011706Y-108172291D01*
X88000500Y-108120780D01*
X88000500Y-107769060D01*
X88000501Y-107769047D01*
X88000501Y-107600944D01*
X88000501Y-107600943D01*
X87959577Y-107448216D01*
X87893716Y-107334140D01*
X87880524Y-107311290D01*
X87880518Y-107311282D01*
X86332766Y-105763531D01*
X86299281Y-105702208D01*
X86300672Y-105643757D01*
X86320913Y-105568216D01*
X86335063Y-105515408D01*
X86355659Y-105280000D01*
X86335063Y-105044592D01*
X86281535Y-104844820D01*
X86273905Y-104816344D01*
X86273904Y-104816343D01*
X86273903Y-104816337D01*
X86174035Y-104602171D01*
X86174034Y-104602169D01*
X86038494Y-104408597D01*
X85871402Y-104241506D01*
X85871396Y-104241501D01*
X85685842Y-104111575D01*
X85642217Y-104056998D01*
X85635023Y-103987500D01*
X85666546Y-103925145D01*
X85685842Y-103908425D01*
X85708026Y-103892891D01*
X85871401Y-103778495D01*
X86038495Y-103611401D01*
X86174035Y-103417830D01*
X86176707Y-103412097D01*
X86222878Y-103359658D01*
X86289091Y-103340500D01*
X87139903Y-103340500D01*
X87206942Y-103360185D01*
G37*
%TD.AperFunction*%
%TD*%
M02*
