%TF.GenerationSoftware,KiCad,Pcbnew,8.0.0*%
%TF.CreationDate,2024-02-26T11:32:58-08:00*%
%TF.ProjectId,gotek-breakout,676f7465-6b2d-4627-9265-616b6f75742e,rev?*%
%TF.SameCoordinates,Original*%
%TF.FileFunction,Copper,L2,Bot*%
%TF.FilePolarity,Positive*%
%FSLAX46Y46*%
G04 Gerber Fmt 4.6, Leading zero omitted, Abs format (unit mm)*
G04 Created by KiCad (PCBNEW 8.0.0) date 2024-02-26 11:32:58*
%MOMM*%
%LPD*%
G01*
G04 APERTURE LIST*
%TA.AperFunction,ComponentPad*%
%ADD10R,1.700000X1.700000*%
%TD*%
%TA.AperFunction,ComponentPad*%
%ADD11O,1.700000X1.700000*%
%TD*%
%TA.AperFunction,ComponentPad*%
%ADD12O,1.550000X0.890000*%
%TD*%
%TA.AperFunction,ComponentPad*%
%ADD13O,0.950000X1.250000*%
%TD*%
%TA.AperFunction,ViaPad*%
%ADD14C,0.800000*%
%TD*%
%TA.AperFunction,Conductor*%
%ADD15C,0.250000*%
%TD*%
G04 APERTURE END LIST*
D10*
%TO.P,J8,1,Pin_1*%
%TO.N,/Gotek Side/ROT_SW*%
X64725000Y-100225000D03*
D11*
%TO.P,J8,2,Pin_2*%
%TO.N,unconnected-(J8-Pin_2-Pad2)*%
X67265000Y-100225000D03*
%TO.P,J8,3,Pin_3*%
%TO.N,/Gotek Side/ROT_DT*%
X64725000Y-102765000D03*
%TO.P,J8,4,Pin_4*%
%TO.N,/Gotek Side/ROT_CLK*%
X67265000Y-102765000D03*
%TO.P,J8,5,Pin_5*%
%TO.N,/Gotek Side/GND*%
X64725000Y-105305000D03*
%TO.P,J8,6,Pin_6*%
%TO.N,/Gotek Side/+5V*%
X67265000Y-105305000D03*
%TD*%
D10*
%TO.P,J7,1,Pin_1*%
%TO.N,/Gotek Side/OLED_SCK*%
X50210000Y-100210000D03*
D11*
%TO.P,J7,2,Pin_2*%
%TO.N,/Gotek Side/OLED_SDA*%
X52750000Y-100210000D03*
%TO.P,J7,3,Pin_3*%
%TO.N,/Gotek Side/+3V*%
X50210000Y-102750000D03*
%TO.P,J7,4,Pin_4*%
%TO.N,/Gotek Side/GND*%
X52750000Y-102750000D03*
%TD*%
D12*
%TO.P,J12,6,Shield*%
%TO.N,/Gotek Side/GND*%
X92100000Y-115750000D03*
D13*
X89400000Y-114749999D03*
X89400000Y-109750001D03*
D12*
X92100000Y-108750000D03*
%TD*%
D10*
%TO.P,J11,1,Pin_1*%
%TO.N,/Gotek Side/GND*%
X85000000Y-100200000D03*
D11*
%TO.P,J11,2,Pin_2*%
%TO.N,/Gotek Side/USB_D-*%
X85000000Y-102740000D03*
%TO.P,J11,3,Pin_3*%
%TO.N,/Gotek Side/USB_D+*%
X85000000Y-105280000D03*
%TO.P,J11,4,Pin_4*%
%TO.N,/Gotek Side/+5V*%
X85000000Y-107820000D03*
%TD*%
D14*
%TO.N,/Gotek Side/GND*%
X91200000Y-107800000D03*
X59000000Y-100000000D03*
X77000000Y-100000000D03*
X59000000Y-106000000D03*
X64000000Y-113000000D03*
X57000000Y-113000000D03*
X50000000Y-113000000D03*
%TO.N,/Gotek Side/ROT_SW*%
X72000000Y-108900000D03*
%TO.N,/Gotek Side/+5V*%
X77250000Y-113450000D03*
%TO.N,/Gotek Side/+3V*%
X76429265Y-114525000D03*
%TO.N,/Gotek Side/GND*%
X93000000Y-101000000D03*
X84100000Y-113000000D03*
%TD*%
D15*
%TO.N,/Gotek Side/+5V*%
X77250000Y-113450000D02*
X77200000Y-113500000D01*
X77200000Y-113500000D02*
X68600000Y-113500000D01*
X68600000Y-113500000D02*
X67265000Y-112165000D01*
X67265000Y-112165000D02*
X67265000Y-105305000D01*
%TO.N,/Gotek Side/+3V*%
X76429265Y-114525000D02*
X75154265Y-115800000D01*
X75154265Y-115800000D02*
X63260000Y-115800000D01*
X63260000Y-115800000D02*
X50210000Y-102750000D01*
%TO.N,/Gotek Side/ROT_SW*%
X72000000Y-108900000D02*
X72000000Y-105600000D01*
X72000000Y-105600000D02*
X67800000Y-101400000D01*
X67800000Y-101400000D02*
X65900000Y-101400000D01*
X65900000Y-101400000D02*
X64725000Y-100225000D01*
%TD*%
%TA.AperFunction,Conductor*%
%TO.N,/Gotek Side/GND*%
G36*
X93443039Y-98519685D02*
G01*
X93488794Y-98572489D01*
X93500000Y-98624000D01*
X93500000Y-108242412D01*
X93480315Y-108309451D01*
X93427511Y-108355206D01*
X93358353Y-108365150D01*
X93294797Y-108336125D01*
X93271522Y-108306978D01*
X93270833Y-108307440D01*
X93164029Y-108147598D01*
X93164026Y-108147594D01*
X93032405Y-108015973D01*
X93032401Y-108015970D01*
X92877631Y-107912555D01*
X92877622Y-107912550D01*
X92705646Y-107841316D01*
X92705638Y-107841314D01*
X92523077Y-107805000D01*
X92350000Y-107805000D01*
X92350000Y-108500000D01*
X91850000Y-108500000D01*
X91850000Y-107805000D01*
X91676923Y-107805000D01*
X91494361Y-107841314D01*
X91494353Y-107841316D01*
X91322377Y-107912550D01*
X91322368Y-107912555D01*
X91167598Y-108015970D01*
X91167594Y-108015973D01*
X91035973Y-108147594D01*
X91035970Y-108147598D01*
X90932555Y-108302368D01*
X90932548Y-108302381D01*
X90861317Y-108474350D01*
X90861316Y-108474355D01*
X90856216Y-108500000D01*
X91725272Y-108500000D01*
X91633386Y-108538060D01*
X91563060Y-108608386D01*
X91525000Y-108700272D01*
X91525000Y-108799728D01*
X91563060Y-108891614D01*
X91633386Y-108961940D01*
X91725272Y-109000000D01*
X90856216Y-109000000D01*
X90861316Y-109025644D01*
X90861317Y-109025649D01*
X90932548Y-109197618D01*
X90932555Y-109197631D01*
X91035970Y-109352401D01*
X91035973Y-109352405D01*
X91167594Y-109484026D01*
X91167598Y-109484029D01*
X91322368Y-109587444D01*
X91322377Y-109587449D01*
X91494353Y-109658683D01*
X91494361Y-109658685D01*
X91676921Y-109694999D01*
X91676924Y-109695000D01*
X91850000Y-109695000D01*
X91850000Y-109000000D01*
X92350000Y-109000000D01*
X92350000Y-109695000D01*
X92523076Y-109695000D01*
X92523078Y-109694999D01*
X92705638Y-109658685D01*
X92705646Y-109658683D01*
X92877622Y-109587449D01*
X92877631Y-109587444D01*
X93032401Y-109484029D01*
X93032405Y-109484026D01*
X93164026Y-109352405D01*
X93164029Y-109352401D01*
X93270833Y-109192560D01*
X93272203Y-109193475D01*
X93315597Y-109149294D01*
X93383733Y-109133828D01*
X93449414Y-109157655D01*
X93491787Y-109213210D01*
X93500000Y-109257587D01*
X93500000Y-115242412D01*
X93480315Y-115309451D01*
X93427511Y-115355206D01*
X93358353Y-115365150D01*
X93294797Y-115336125D01*
X93271522Y-115306978D01*
X93270833Y-115307440D01*
X93164029Y-115147598D01*
X93164026Y-115147594D01*
X93032405Y-115015973D01*
X93032401Y-115015970D01*
X92877631Y-114912555D01*
X92877622Y-114912550D01*
X92705646Y-114841316D01*
X92705638Y-114841314D01*
X92523077Y-114805000D01*
X92350000Y-114805000D01*
X92350000Y-115500000D01*
X91850000Y-115500000D01*
X91850000Y-114805000D01*
X91676923Y-114805000D01*
X91494361Y-114841314D01*
X91494353Y-114841316D01*
X91322377Y-114912550D01*
X91322368Y-114912555D01*
X91167598Y-115015970D01*
X91167594Y-115015973D01*
X91035973Y-115147594D01*
X91035970Y-115147598D01*
X90932555Y-115302368D01*
X90932548Y-115302381D01*
X90861317Y-115474350D01*
X90861316Y-115474355D01*
X90856216Y-115500000D01*
X91725272Y-115500000D01*
X91633386Y-115538060D01*
X91563060Y-115608386D01*
X91525000Y-115700272D01*
X91525000Y-115799728D01*
X91563060Y-115891614D01*
X91633386Y-115961940D01*
X91725272Y-116000000D01*
X90856216Y-116000000D01*
X90861316Y-116025644D01*
X90861317Y-116025649D01*
X90932548Y-116197618D01*
X90932555Y-116197631D01*
X91005707Y-116307109D01*
X91026585Y-116373786D01*
X91008101Y-116441166D01*
X90956122Y-116487857D01*
X90902605Y-116500000D01*
X75638219Y-116500000D01*
X75571180Y-116480315D01*
X75525425Y-116427511D01*
X75515481Y-116358353D01*
X75544506Y-116294797D01*
X75550537Y-116288319D01*
X75552998Y-116285858D01*
X75640123Y-116198733D01*
X75640123Y-116198731D01*
X75647190Y-116191665D01*
X75647192Y-116191661D01*
X76377036Y-115461819D01*
X76438359Y-115428334D01*
X76464717Y-115425500D01*
X76523909Y-115425500D01*
X76523911Y-115425500D01*
X76709068Y-115386144D01*
X76881995Y-115309151D01*
X77035136Y-115197888D01*
X77161798Y-115057216D01*
X77194832Y-114999999D01*
X88425789Y-114999999D01*
X88462466Y-115184388D01*
X88462468Y-115184396D01*
X88535964Y-115361832D01*
X88535969Y-115361841D01*
X88642667Y-115521525D01*
X88642670Y-115521529D01*
X88778469Y-115657328D01*
X88778473Y-115657331D01*
X88938157Y-115764029D01*
X88938167Y-115764034D01*
X89115599Y-115837529D01*
X89115606Y-115837532D01*
X89150000Y-115844372D01*
X89150000Y-115015055D01*
X89166866Y-115055774D01*
X89244225Y-115133133D01*
X89345299Y-115174999D01*
X89454701Y-115174999D01*
X89555775Y-115133133D01*
X89633134Y-115055774D01*
X89650000Y-115015055D01*
X89650000Y-115844371D01*
X89684393Y-115837532D01*
X89684400Y-115837529D01*
X89861832Y-115764034D01*
X89861842Y-115764029D01*
X90021526Y-115657331D01*
X90021530Y-115657328D01*
X90157329Y-115521529D01*
X90157332Y-115521525D01*
X90264030Y-115361841D01*
X90264035Y-115361832D01*
X90337531Y-115184396D01*
X90337533Y-115184388D01*
X90374210Y-114999999D01*
X89656237Y-114999999D01*
X89675000Y-114954700D01*
X89675000Y-114545298D01*
X89656237Y-114499999D01*
X90374210Y-114499999D01*
X90374210Y-114499998D01*
X90337533Y-114315609D01*
X90337531Y-114315601D01*
X90264035Y-114138165D01*
X90264030Y-114138156D01*
X90157332Y-113978472D01*
X90157329Y-113978468D01*
X90021530Y-113842669D01*
X90021526Y-113842666D01*
X89861842Y-113735968D01*
X89861833Y-113735963D01*
X89684397Y-113662467D01*
X89684389Y-113662465D01*
X89650000Y-113655624D01*
X89650000Y-114484942D01*
X89633134Y-114444224D01*
X89555775Y-114366865D01*
X89454701Y-114324999D01*
X89345299Y-114324999D01*
X89244225Y-114366865D01*
X89166866Y-114444224D01*
X89150000Y-114484942D01*
X89150000Y-113655624D01*
X89115610Y-113662465D01*
X89115602Y-113662467D01*
X88938166Y-113735963D01*
X88938157Y-113735968D01*
X88778473Y-113842666D01*
X88778469Y-113842669D01*
X88642670Y-113978468D01*
X88642667Y-113978472D01*
X88535969Y-114138156D01*
X88535964Y-114138165D01*
X88462468Y-114315601D01*
X88462466Y-114315609D01*
X88425789Y-114499998D01*
X88425790Y-114499999D01*
X89143763Y-114499999D01*
X89125000Y-114545298D01*
X89125000Y-114954700D01*
X89143763Y-114999999D01*
X88425789Y-114999999D01*
X77194832Y-114999999D01*
X77256444Y-114893284D01*
X77314939Y-114713256D01*
X77334725Y-114525000D01*
X77328672Y-114467411D01*
X77341241Y-114398684D01*
X77388973Y-114347660D01*
X77426204Y-114333164D01*
X77529803Y-114311144D01*
X77529807Y-114311142D01*
X77529808Y-114311142D01*
X77588058Y-114285206D01*
X77702730Y-114234151D01*
X77855871Y-114122888D01*
X77982533Y-113982216D01*
X78077179Y-113818284D01*
X78135674Y-113638256D01*
X78155460Y-113450000D01*
X78135674Y-113261744D01*
X78077179Y-113081716D01*
X77982533Y-112917784D01*
X77855871Y-112777112D01*
X77855863Y-112777106D01*
X77702734Y-112665851D01*
X77702729Y-112665848D01*
X77529807Y-112588857D01*
X77529802Y-112588855D01*
X77384001Y-112557865D01*
X77344646Y-112549500D01*
X77155354Y-112549500D01*
X77122897Y-112556398D01*
X76970197Y-112588855D01*
X76970192Y-112588857D01*
X76797270Y-112665848D01*
X76797265Y-112665851D01*
X76644135Y-112777106D01*
X76644129Y-112777111D01*
X76593382Y-112833472D01*
X76533895Y-112870121D01*
X76501232Y-112874500D01*
X68910452Y-112874500D01*
X68843413Y-112854815D01*
X68822771Y-112838181D01*
X67926819Y-111942229D01*
X67893334Y-111880906D01*
X67890500Y-111854548D01*
X67890500Y-110000001D01*
X88425789Y-110000001D01*
X88462466Y-110184390D01*
X88462468Y-110184398D01*
X88535964Y-110361834D01*
X88535969Y-110361843D01*
X88642667Y-110521527D01*
X88642670Y-110521531D01*
X88778469Y-110657330D01*
X88778473Y-110657333D01*
X88938157Y-110764031D01*
X88938167Y-110764036D01*
X89115599Y-110837531D01*
X89115606Y-110837534D01*
X89150000Y-110844374D01*
X89150000Y-110015057D01*
X89166866Y-110055776D01*
X89244225Y-110133135D01*
X89345299Y-110175001D01*
X89454701Y-110175001D01*
X89555775Y-110133135D01*
X89633134Y-110055776D01*
X89650000Y-110015057D01*
X89650000Y-110844373D01*
X89684393Y-110837534D01*
X89684400Y-110837531D01*
X89861832Y-110764036D01*
X89861842Y-110764031D01*
X90021526Y-110657333D01*
X90021530Y-110657330D01*
X90157329Y-110521531D01*
X90157332Y-110521527D01*
X90264030Y-110361843D01*
X90264035Y-110361834D01*
X90337531Y-110184398D01*
X90337533Y-110184390D01*
X90374210Y-110000001D01*
X89656237Y-110000001D01*
X89675000Y-109954702D01*
X89675000Y-109545300D01*
X89656237Y-109500001D01*
X90374210Y-109500001D01*
X90374210Y-109500000D01*
X90337533Y-109315611D01*
X90337531Y-109315603D01*
X90264035Y-109138167D01*
X90264030Y-109138158D01*
X90157332Y-108978474D01*
X90157329Y-108978470D01*
X90021530Y-108842671D01*
X90021526Y-108842668D01*
X89861842Y-108735970D01*
X89861833Y-108735965D01*
X89684397Y-108662469D01*
X89684389Y-108662467D01*
X89650000Y-108655626D01*
X89650000Y-109484944D01*
X89633134Y-109444226D01*
X89555775Y-109366867D01*
X89454701Y-109325001D01*
X89345299Y-109325001D01*
X89244225Y-109366867D01*
X89166866Y-109444226D01*
X89150000Y-109484944D01*
X89150000Y-108655626D01*
X89115610Y-108662467D01*
X89115602Y-108662469D01*
X88938166Y-108735965D01*
X88938157Y-108735970D01*
X88778473Y-108842668D01*
X88778469Y-108842671D01*
X88642670Y-108978470D01*
X88642667Y-108978474D01*
X88535969Y-109138158D01*
X88535964Y-109138167D01*
X88462468Y-109315603D01*
X88462466Y-109315611D01*
X88425789Y-109500000D01*
X88425790Y-109500001D01*
X89143763Y-109500001D01*
X89125000Y-109545300D01*
X89125000Y-109954702D01*
X89143763Y-110000001D01*
X88425789Y-110000001D01*
X67890500Y-110000001D01*
X67890500Y-106580226D01*
X67910185Y-106513187D01*
X67943374Y-106478654D01*
X68136401Y-106343495D01*
X68303495Y-106176401D01*
X68439035Y-105982830D01*
X68538903Y-105768663D01*
X68600063Y-105540408D01*
X68620659Y-105305000D01*
X68620657Y-105304982D01*
X68605128Y-105127489D01*
X68600063Y-105069592D01*
X68538903Y-104841337D01*
X68439035Y-104627171D01*
X68433731Y-104619595D01*
X68303494Y-104433597D01*
X68136402Y-104266506D01*
X68136396Y-104266501D01*
X67950842Y-104136575D01*
X67907217Y-104081998D01*
X67900023Y-104012500D01*
X67931546Y-103950145D01*
X67950842Y-103933425D01*
X67986546Y-103908425D01*
X68136401Y-103803495D01*
X68303495Y-103636401D01*
X68439035Y-103442830D01*
X68529309Y-103249236D01*
X68575480Y-103196798D01*
X68642673Y-103177646D01*
X68709555Y-103197862D01*
X68729371Y-103213961D01*
X71338181Y-105822771D01*
X71371666Y-105884094D01*
X71374500Y-105910452D01*
X71374500Y-108201312D01*
X71354815Y-108268351D01*
X71342650Y-108284284D01*
X71267466Y-108367784D01*
X71172821Y-108531715D01*
X71172818Y-108531722D01*
X71114327Y-108711740D01*
X71114326Y-108711744D01*
X71094540Y-108900000D01*
X71114326Y-109088256D01*
X71114327Y-109088259D01*
X71172818Y-109268277D01*
X71172821Y-109268284D01*
X71267467Y-109432216D01*
X71328501Y-109500001D01*
X71394129Y-109572888D01*
X71547265Y-109684148D01*
X71547270Y-109684151D01*
X71720192Y-109761142D01*
X71720197Y-109761144D01*
X71905354Y-109800500D01*
X71905355Y-109800500D01*
X72094644Y-109800500D01*
X72094646Y-109800500D01*
X72279803Y-109761144D01*
X72452730Y-109684151D01*
X72605871Y-109572888D01*
X72732533Y-109432216D01*
X72827179Y-109268284D01*
X72885674Y-109088256D01*
X72905460Y-108900000D01*
X72885674Y-108711744D01*
X72827179Y-108531716D01*
X72732533Y-108367784D01*
X72680010Y-108309451D01*
X72657350Y-108284284D01*
X72627120Y-108221292D01*
X72625500Y-108201312D01*
X72625500Y-107820000D01*
X83644341Y-107820000D01*
X83664936Y-108055403D01*
X83664938Y-108055413D01*
X83726094Y-108283655D01*
X83726096Y-108283659D01*
X83726097Y-108283663D01*
X83815016Y-108474350D01*
X83825965Y-108497830D01*
X83825967Y-108497834D01*
X83849692Y-108531716D01*
X83961505Y-108691401D01*
X84128599Y-108858495D01*
X84225384Y-108926265D01*
X84322165Y-108994032D01*
X84322167Y-108994033D01*
X84322170Y-108994035D01*
X84536337Y-109093903D01*
X84764592Y-109155063D01*
X84952918Y-109171539D01*
X84999999Y-109175659D01*
X85000000Y-109175659D01*
X85000001Y-109175659D01*
X85039234Y-109172226D01*
X85235408Y-109155063D01*
X85463663Y-109093903D01*
X85677830Y-108994035D01*
X85871401Y-108858495D01*
X86038495Y-108691401D01*
X86174035Y-108497830D01*
X86273903Y-108283663D01*
X86335063Y-108055408D01*
X86355659Y-107820000D01*
X86335063Y-107584592D01*
X86273903Y-107356337D01*
X86174035Y-107142171D01*
X86038495Y-106948599D01*
X86038494Y-106948597D01*
X85871402Y-106781506D01*
X85871396Y-106781501D01*
X85685842Y-106651575D01*
X85642217Y-106596998D01*
X85635023Y-106527500D01*
X85666546Y-106465145D01*
X85685842Y-106448425D01*
X85708026Y-106432891D01*
X85871401Y-106318495D01*
X86038495Y-106151401D01*
X86174035Y-105957830D01*
X86273903Y-105743663D01*
X86335063Y-105515408D01*
X86355659Y-105280000D01*
X86335063Y-105044592D01*
X86273903Y-104816337D01*
X86174035Y-104602171D01*
X86056001Y-104433599D01*
X86038494Y-104408597D01*
X85871402Y-104241506D01*
X85871396Y-104241501D01*
X85685842Y-104111575D01*
X85642217Y-104056998D01*
X85635023Y-103987500D01*
X85666546Y-103925145D01*
X85685842Y-103908425D01*
X85708026Y-103892891D01*
X85871401Y-103778495D01*
X86038495Y-103611401D01*
X86174035Y-103417830D01*
X86273903Y-103203663D01*
X86335063Y-102975408D01*
X86355659Y-102740000D01*
X86335063Y-102504592D01*
X86276584Y-102286344D01*
X86273905Y-102276344D01*
X86273904Y-102276343D01*
X86273903Y-102276337D01*
X86174035Y-102062171D01*
X86045723Y-101878922D01*
X86038496Y-101868600D01*
X86038495Y-101868599D01*
X85916179Y-101746283D01*
X85882696Y-101684963D01*
X85887680Y-101615271D01*
X85929551Y-101559337D01*
X85960529Y-101542422D01*
X86092086Y-101493354D01*
X86092093Y-101493350D01*
X86207187Y-101407190D01*
X86207190Y-101407187D01*
X86293350Y-101292093D01*
X86293354Y-101292086D01*
X86343596Y-101157379D01*
X86343598Y-101157372D01*
X86349999Y-101097844D01*
X86350000Y-101097827D01*
X86350000Y-100450000D01*
X85433012Y-100450000D01*
X85465925Y-100392993D01*
X85500000Y-100265826D01*
X85500000Y-100134174D01*
X85465925Y-100007007D01*
X85433012Y-99950000D01*
X86350000Y-99950000D01*
X86350000Y-99302172D01*
X86349999Y-99302155D01*
X86343598Y-99242627D01*
X86343596Y-99242620D01*
X86293354Y-99107913D01*
X86293350Y-99107906D01*
X86207190Y-98992812D01*
X86207187Y-98992809D01*
X86092093Y-98906649D01*
X86092086Y-98906645D01*
X85957379Y-98856403D01*
X85957372Y-98856401D01*
X85897844Y-98850000D01*
X85250000Y-98850000D01*
X85250000Y-99766988D01*
X85192993Y-99734075D01*
X85065826Y-99700000D01*
X84934174Y-99700000D01*
X84807007Y-99734075D01*
X84750000Y-99766988D01*
X84750000Y-98850000D01*
X84102155Y-98850000D01*
X84042627Y-98856401D01*
X84042620Y-98856403D01*
X83907913Y-98906645D01*
X83907906Y-98906649D01*
X83792812Y-98992809D01*
X83792809Y-98992812D01*
X83706649Y-99107906D01*
X83706645Y-99107913D01*
X83656403Y-99242620D01*
X83656401Y-99242627D01*
X83650000Y-99302155D01*
X83650000Y-99950000D01*
X84566988Y-99950000D01*
X84534075Y-100007007D01*
X84500000Y-100134174D01*
X84500000Y-100265826D01*
X84534075Y-100392993D01*
X84566988Y-100450000D01*
X83650000Y-100450000D01*
X83650000Y-101097844D01*
X83656401Y-101157372D01*
X83656403Y-101157379D01*
X83706645Y-101292086D01*
X83706649Y-101292093D01*
X83792809Y-101407187D01*
X83792812Y-101407190D01*
X83907906Y-101493350D01*
X83907913Y-101493354D01*
X84039470Y-101542421D01*
X84095403Y-101584292D01*
X84119821Y-101649756D01*
X84104970Y-101718029D01*
X84083819Y-101746284D01*
X83961503Y-101868600D01*
X83825965Y-102062169D01*
X83825964Y-102062171D01*
X83726098Y-102276335D01*
X83726094Y-102276344D01*
X83664938Y-102504586D01*
X83664936Y-102504596D01*
X83644341Y-102739999D01*
X83644341Y-102740000D01*
X83664936Y-102975403D01*
X83664938Y-102975413D01*
X83726094Y-103203655D01*
X83726096Y-103203659D01*
X83726097Y-103203663D01*
X83817661Y-103400023D01*
X83825965Y-103417830D01*
X83825967Y-103417834D01*
X83961501Y-103611395D01*
X83961506Y-103611402D01*
X84128597Y-103778493D01*
X84128603Y-103778498D01*
X84314158Y-103908425D01*
X84357783Y-103963002D01*
X84364977Y-104032500D01*
X84333454Y-104094855D01*
X84314158Y-104111575D01*
X84128597Y-104241505D01*
X83961505Y-104408597D01*
X83825965Y-104602169D01*
X83825964Y-104602171D01*
X83726098Y-104816335D01*
X83726094Y-104816344D01*
X83664938Y-105044586D01*
X83664936Y-105044596D01*
X83644341Y-105279999D01*
X83644341Y-105280000D01*
X83664936Y-105515403D01*
X83664938Y-105515413D01*
X83726094Y-105743655D01*
X83726096Y-105743659D01*
X83726097Y-105743663D01*
X83738810Y-105770925D01*
X83825965Y-105957830D01*
X83825967Y-105957834D01*
X83961501Y-106151395D01*
X83961506Y-106151402D01*
X84128597Y-106318493D01*
X84128603Y-106318498D01*
X84314158Y-106448425D01*
X84357783Y-106503002D01*
X84364977Y-106572500D01*
X84333454Y-106634855D01*
X84314158Y-106651575D01*
X84128597Y-106781505D01*
X83961505Y-106948597D01*
X83825965Y-107142169D01*
X83825964Y-107142171D01*
X83726098Y-107356335D01*
X83726094Y-107356344D01*
X83664938Y-107584586D01*
X83664936Y-107584596D01*
X83644341Y-107819999D01*
X83644341Y-107820000D01*
X72625500Y-107820000D01*
X72625500Y-105538393D01*
X72625499Y-105538389D01*
X72601464Y-105417555D01*
X72601463Y-105417548D01*
X72554844Y-105305000D01*
X72554312Y-105303715D01*
X72538465Y-105279999D01*
X72514006Y-105243393D01*
X72514006Y-105243394D01*
X72485858Y-105201267D01*
X72485855Y-105201264D01*
X72485853Y-105201261D01*
X72395637Y-105111045D01*
X72395606Y-105111016D01*
X68408983Y-101124393D01*
X68375498Y-101063070D01*
X68380482Y-100993378D01*
X68395089Y-100965590D01*
X68417677Y-100933330D01*
X68439032Y-100902835D01*
X68439033Y-100902832D01*
X68439035Y-100902830D01*
X68538903Y-100688663D01*
X68600063Y-100460408D01*
X68620659Y-100225000D01*
X68600063Y-99989592D01*
X68538903Y-99761337D01*
X68439035Y-99547171D01*
X68303495Y-99353599D01*
X68303494Y-99353597D01*
X68136402Y-99186506D01*
X68136395Y-99186501D01*
X67942834Y-99050967D01*
X67942830Y-99050965D01*
X67910660Y-99035964D01*
X67728663Y-98951097D01*
X67728659Y-98951096D01*
X67728655Y-98951094D01*
X67500413Y-98889938D01*
X67500403Y-98889936D01*
X67265001Y-98869341D01*
X67264999Y-98869341D01*
X67029596Y-98889936D01*
X67029586Y-98889938D01*
X66801344Y-98951094D01*
X66801335Y-98951098D01*
X66587171Y-99050964D01*
X66587169Y-99050965D01*
X66393600Y-99186503D01*
X66271673Y-99308430D01*
X66210350Y-99341914D01*
X66140658Y-99336930D01*
X66084725Y-99295058D01*
X66067810Y-99264081D01*
X66018797Y-99132671D01*
X66018793Y-99132664D01*
X65932547Y-99017455D01*
X65932544Y-99017452D01*
X65817335Y-98931206D01*
X65817328Y-98931202D01*
X65682482Y-98880908D01*
X65682483Y-98880908D01*
X65622883Y-98874501D01*
X65622881Y-98874500D01*
X65622873Y-98874500D01*
X65622864Y-98874500D01*
X63827129Y-98874500D01*
X63827123Y-98874501D01*
X63767516Y-98880908D01*
X63632671Y-98931202D01*
X63632664Y-98931206D01*
X63517455Y-99017452D01*
X63517452Y-99017455D01*
X63431206Y-99132664D01*
X63431202Y-99132671D01*
X63380908Y-99267517D01*
X63374501Y-99327116D01*
X63374500Y-99327135D01*
X63374500Y-101122870D01*
X63374501Y-101122876D01*
X63380908Y-101182483D01*
X63431202Y-101317328D01*
X63431206Y-101317335D01*
X63517452Y-101432544D01*
X63517455Y-101432547D01*
X63632664Y-101518793D01*
X63632671Y-101518797D01*
X63764081Y-101567810D01*
X63820015Y-101609681D01*
X63844432Y-101675145D01*
X63829580Y-101743418D01*
X63808430Y-101771673D01*
X63686503Y-101893600D01*
X63550965Y-102087169D01*
X63550964Y-102087171D01*
X63451098Y-102301335D01*
X63451094Y-102301344D01*
X63389938Y-102529586D01*
X63389936Y-102529596D01*
X63369341Y-102764999D01*
X63369341Y-102765000D01*
X63389936Y-103000403D01*
X63389938Y-103000413D01*
X63451094Y-103228655D01*
X63451096Y-103228659D01*
X63451097Y-103228663D01*
X63461047Y-103250000D01*
X63550965Y-103442830D01*
X63550967Y-103442834D01*
X63659281Y-103597521D01*
X63686505Y-103636401D01*
X63853599Y-103803495D01*
X64025746Y-103924034D01*
X64039594Y-103933730D01*
X64083219Y-103988307D01*
X64090413Y-104057805D01*
X64058890Y-104120160D01*
X64039595Y-104136880D01*
X63853922Y-104266890D01*
X63853920Y-104266891D01*
X63686891Y-104433920D01*
X63686886Y-104433926D01*
X63551400Y-104627420D01*
X63551399Y-104627422D01*
X63451570Y-104841507D01*
X63451567Y-104841513D01*
X63394364Y-105054999D01*
X63394364Y-105055000D01*
X64291988Y-105055000D01*
X64259075Y-105112007D01*
X64225000Y-105239174D01*
X64225000Y-105370826D01*
X64259075Y-105497993D01*
X64291988Y-105555000D01*
X63394364Y-105555000D01*
X63451567Y-105768486D01*
X63451570Y-105768492D01*
X63551399Y-105982578D01*
X63686894Y-106176082D01*
X63853917Y-106343105D01*
X64047421Y-106478600D01*
X64261507Y-106578429D01*
X64261516Y-106578433D01*
X64475000Y-106635634D01*
X64475000Y-105738012D01*
X64532007Y-105770925D01*
X64659174Y-105805000D01*
X64790826Y-105805000D01*
X64917993Y-105770925D01*
X64975000Y-105738012D01*
X64975000Y-106635633D01*
X65188483Y-106578433D01*
X65188492Y-106578429D01*
X65402578Y-106478600D01*
X65596082Y-106343105D01*
X65763105Y-106176082D01*
X65893119Y-105990405D01*
X65947696Y-105946781D01*
X66017195Y-105939588D01*
X66079549Y-105971110D01*
X66096269Y-105990405D01*
X66226505Y-106176401D01*
X66393599Y-106343495D01*
X66586624Y-106478653D01*
X66630248Y-106533228D01*
X66639500Y-106580226D01*
X66639500Y-112226611D01*
X66663535Y-112347444D01*
X66663540Y-112347461D01*
X66710685Y-112461280D01*
X66710690Y-112461289D01*
X66744914Y-112512507D01*
X66744915Y-112512509D01*
X66779141Y-112563733D01*
X66870586Y-112655178D01*
X66870608Y-112655198D01*
X68111016Y-113895606D01*
X68111045Y-113895637D01*
X68201264Y-113985856D01*
X68201267Y-113985858D01*
X68252490Y-114020084D01*
X68303714Y-114054312D01*
X68384207Y-114087652D01*
X68417548Y-114101463D01*
X68432328Y-114104402D01*
X68459370Y-114109782D01*
X68459390Y-114109785D01*
X68459412Y-114109790D01*
X68538391Y-114125499D01*
X68538392Y-114125500D01*
X68538393Y-114125500D01*
X68538394Y-114125500D01*
X75441557Y-114125500D01*
X75508596Y-114145185D01*
X75554351Y-114197989D01*
X75564295Y-114267147D01*
X75559488Y-114287818D01*
X75551910Y-114311142D01*
X75543591Y-114336744D01*
X75537081Y-114398684D01*
X75525943Y-114504651D01*
X75499358Y-114569266D01*
X75490303Y-114579370D01*
X74931494Y-115138181D01*
X74870171Y-115171666D01*
X74843813Y-115174500D01*
X63570452Y-115174500D01*
X63503413Y-115154815D01*
X63482771Y-115138181D01*
X52536319Y-104191729D01*
X52502834Y-104130406D01*
X52500000Y-104104048D01*
X52500000Y-103183012D01*
X52557007Y-103215925D01*
X52684174Y-103250000D01*
X52815826Y-103250000D01*
X52942993Y-103215925D01*
X53000000Y-103183012D01*
X53000000Y-104080633D01*
X53213483Y-104023433D01*
X53213492Y-104023429D01*
X53427578Y-103923600D01*
X53621082Y-103788105D01*
X53788105Y-103621082D01*
X53923600Y-103427578D01*
X54023429Y-103213492D01*
X54023432Y-103213486D01*
X54080636Y-103000000D01*
X53183012Y-103000000D01*
X53215925Y-102942993D01*
X53250000Y-102815826D01*
X53250000Y-102684174D01*
X53215925Y-102557007D01*
X53183012Y-102500000D01*
X54080636Y-102500000D01*
X54080635Y-102499999D01*
X54023432Y-102286513D01*
X54023429Y-102286507D01*
X53923600Y-102072422D01*
X53923599Y-102072420D01*
X53788113Y-101878926D01*
X53788108Y-101878920D01*
X53621078Y-101711890D01*
X53435405Y-101581879D01*
X53391780Y-101527302D01*
X53384588Y-101457804D01*
X53416110Y-101395449D01*
X53435406Y-101378730D01*
X53523097Y-101317328D01*
X53621401Y-101248495D01*
X53788495Y-101081401D01*
X53924035Y-100887830D01*
X54023903Y-100673663D01*
X54085063Y-100445408D01*
X54105659Y-100210000D01*
X54085063Y-99974592D01*
X54023903Y-99746337D01*
X53924035Y-99532171D01*
X53790817Y-99341914D01*
X53788494Y-99338597D01*
X53621402Y-99171506D01*
X53621395Y-99171501D01*
X53427834Y-99035967D01*
X53427830Y-99035965D01*
X53388129Y-99017452D01*
X53213663Y-98936097D01*
X53213659Y-98936096D01*
X53213655Y-98936094D01*
X52985413Y-98874938D01*
X52985403Y-98874936D01*
X52750001Y-98854341D01*
X52749999Y-98854341D01*
X52514596Y-98874936D01*
X52514586Y-98874938D01*
X52286344Y-98936094D01*
X52286335Y-98936098D01*
X52072171Y-99035964D01*
X52072169Y-99035965D01*
X51878600Y-99171503D01*
X51756673Y-99293430D01*
X51695350Y-99326914D01*
X51625658Y-99321930D01*
X51569725Y-99280058D01*
X51552810Y-99249081D01*
X51503797Y-99117671D01*
X51503793Y-99117664D01*
X51417547Y-99002455D01*
X51417544Y-99002452D01*
X51302335Y-98916206D01*
X51302328Y-98916202D01*
X51167482Y-98865908D01*
X51167483Y-98865908D01*
X51107883Y-98859501D01*
X51107881Y-98859500D01*
X51107873Y-98859500D01*
X51107864Y-98859500D01*
X49312129Y-98859500D01*
X49312123Y-98859501D01*
X49252516Y-98865908D01*
X49117671Y-98916202D01*
X49117664Y-98916206D01*
X49002455Y-99002452D01*
X49002452Y-99002455D01*
X48916206Y-99117664D01*
X48916202Y-99117671D01*
X48865908Y-99252517D01*
X48859501Y-99312116D01*
X48859500Y-99312135D01*
X48859500Y-101107870D01*
X48859501Y-101107876D01*
X48865908Y-101167483D01*
X48916202Y-101302328D01*
X48916206Y-101302335D01*
X49002452Y-101417544D01*
X49002455Y-101417547D01*
X49117664Y-101503793D01*
X49117671Y-101503797D01*
X49249081Y-101552810D01*
X49305015Y-101594681D01*
X49329432Y-101660145D01*
X49314580Y-101728418D01*
X49293430Y-101756673D01*
X49171503Y-101878600D01*
X49035965Y-102072169D01*
X49035964Y-102072171D01*
X48936098Y-102286335D01*
X48936094Y-102286344D01*
X48874938Y-102514586D01*
X48874936Y-102514596D01*
X48854341Y-102749999D01*
X48854341Y-102750000D01*
X48874936Y-102985403D01*
X48874938Y-102985413D01*
X48936094Y-103213655D01*
X48936096Y-103213659D01*
X48936097Y-103213663D01*
X49022998Y-103400023D01*
X49035965Y-103427830D01*
X49035967Y-103427834D01*
X49052078Y-103450842D01*
X49171505Y-103621401D01*
X49338599Y-103788495D01*
X49435384Y-103856265D01*
X49532165Y-103924032D01*
X49532167Y-103924033D01*
X49532170Y-103924035D01*
X49746337Y-104023903D01*
X49974592Y-104085063D01*
X50146039Y-104100063D01*
X50209999Y-104105659D01*
X50210000Y-104105659D01*
X50210001Y-104105659D01*
X50249234Y-104102226D01*
X50445408Y-104085063D01*
X50545873Y-104058143D01*
X50615722Y-104059806D01*
X50665647Y-104090237D01*
X62771016Y-116195606D01*
X62771045Y-116195637D01*
X62863727Y-116288319D01*
X62897212Y-116349642D01*
X62892228Y-116419334D01*
X62850356Y-116475267D01*
X62784892Y-116499684D01*
X62776046Y-116500000D01*
X45524000Y-116500000D01*
X45456961Y-116480315D01*
X45411206Y-116427511D01*
X45400000Y-116376000D01*
X45400000Y-98624000D01*
X45419685Y-98556961D01*
X45472489Y-98511206D01*
X45524000Y-98500000D01*
X93376000Y-98500000D01*
X93443039Y-98519685D01*
G37*
%TD.AperFunction*%
%TD*%
M02*
