M48
; DRILL file {KiCad 8.0.0} date 2024-02-26T11:33:02-0800
; FORMAT={-:-/ absolute / inch / decimal}
; #@! TF.CreationDate,2024-02-26T11:33:02-08:00
; #@! TF.GenerationSoftware,Kicad,Pcbnew,8.0.0
; #@! TF.FileFunction,Plated,1,2,PTH
FMAT,2
INCH
; #@! TA.AperFunction,Plated,PTH,ViaDrill
T1C0.0157
; #@! TA.AperFunction,Plated,PTH,ComponentDrill
T2C0.0197
; #@! TA.AperFunction,Plated,PTH,ComponentDrill
T3C0.0217
; #@! TA.AperFunction,Plated,PTH,ComponentDrill
T4C0.0394
%
G90
G05
T1
X1.9685Y-4.4488
X2.2441Y-4.4488
X2.3228Y-3.937
X2.3228Y-4.1732
X2.5197Y-4.4488
X2.8346Y-4.2874
X3.009Y-4.5089
X3.0315Y-3.937
X3.0413Y-4.4665
X3.311Y-4.4488
X3.5906Y-4.2441
X3.6614Y-3.9764
T4
X1.9768Y-3.9453
X1.9768Y-4.0453
X2.0768Y-3.9453
X2.0768Y-4.0453
X2.5482Y-3.9459
X2.5482Y-4.0459
X2.5482Y-4.1459
X2.6482Y-3.9459
X2.6482Y-4.0459
X2.6482Y-4.1459
X3.3465Y-3.9449
X3.3465Y-4.0449
X3.3465Y-4.1449
X3.3465Y-4.2449
T2
G00X3.6132Y-4.2815
M15
G01X3.6388Y-4.2815
M16
G05
G00X3.6132Y-4.5571
M15
G01X3.6388Y-4.5571
M16
G05
T3
G00X3.5197Y-4.3268
M15
G01X3.5197Y-4.315
M16
G05
G00X3.5197Y-4.5236
M15
G01X3.5197Y-4.5118
M16
G05
M30
