%TF.GenerationSoftware,KiCad,Pcbnew,8.0.0*%
%TF.CreationDate,2024-02-26T11:34:36-08:00*%
%TF.ProjectId,gotek-breakout,676f7465-6b2d-4627-9265-616b6f75742e,rev?*%
%TF.SameCoordinates,Original*%
%TF.FileFunction,Copper,L1,Top*%
%TF.FilePolarity,Positive*%
%FSLAX46Y46*%
G04 Gerber Fmt 4.6, Leading zero omitted, Abs format (unit mm)*
G04 Created by KiCad (PCBNEW 8.0.0) date 2024-02-26 11:34:36*
%MOMM*%
%LPD*%
G01*
G04 APERTURE LIST*
%TA.AperFunction,ComponentPad*%
%ADD10R,1.600000X1.500000*%
%TD*%
%TA.AperFunction,ComponentPad*%
%ADD11C,1.600000*%
%TD*%
%TA.AperFunction,ComponentPad*%
%ADD12C,3.000000*%
%TD*%
%TA.AperFunction,ComponentPad*%
%ADD13R,1.700000X1.700000*%
%TD*%
%TA.AperFunction,ComponentPad*%
%ADD14O,1.700000X1.700000*%
%TD*%
%TA.AperFunction,ComponentPad*%
%ADD15R,1.600000X1.600000*%
%TD*%
%TA.AperFunction,ViaPad*%
%ADD16C,0.800000*%
%TD*%
%TA.AperFunction,Conductor*%
%ADD17C,0.250000*%
%TD*%
G04 APERTURE END LIST*
D10*
%TO.P,J2,1,VBUS*%
%TO.N,/+5V*%
X64200000Y-52160000D03*
D11*
%TO.P,J2,2,D-*%
%TO.N,/USB_D-*%
X61700000Y-52160000D03*
%TO.P,J2,3,D+*%
%TO.N,/USB_D+*%
X59700000Y-52160000D03*
%TO.P,J2,4,GND*%
%TO.N,/GND*%
X57200000Y-52160000D03*
D12*
%TO.P,J2,5,Shield*%
X67270000Y-49450000D03*
X54130000Y-49450000D03*
%TD*%
D13*
%TO.P,J4,1,Pin_1*%
%TO.N,/GND*%
X137250000Y-55075000D03*
D14*
%TO.P,J4,2,Pin_2*%
%TO.N,/+5V*%
X137250000Y-52535000D03*
%TO.P,J4,3,Pin_3*%
%TO.N,/ROT_SW*%
X137250000Y-49995000D03*
%TO.P,J4,4,Pin_4*%
%TO.N,/ROT_DT*%
X137250000Y-47455000D03*
%TO.P,J4,5,Pin_5*%
%TO.N,/ROT_CLK*%
X137250000Y-44915000D03*
%TD*%
D15*
%TO.P,C1,1*%
%TO.N,/+5V*%
X69544887Y-56750000D03*
D11*
%TO.P,C1,2*%
%TO.N,/GND*%
X72044887Y-56750000D03*
%TD*%
D13*
%TO.P,J3,1,Pin_1*%
%TO.N,/GND*%
X110000000Y-46000000D03*
D14*
%TO.P,J3,2,Pin_2*%
%TO.N,/+5V*%
X110000000Y-48540000D03*
%TO.P,J3,3,Pin_3*%
%TO.N,/OLED_SCK*%
X110000000Y-51080000D03*
%TO.P,J3,4,Pin_4*%
%TO.N,/OLED_SDA*%
X110000000Y-53620000D03*
%TD*%
D16*
%TO.N,/GND*%
X91600000Y-45300000D03*
%TO.N,/+5V*%
X94700000Y-42200000D03*
%TO.N,/OLED_SDA*%
X99200000Y-50000000D03*
%TO.N,/+5V*%
X64600000Y-47000000D03*
%TD*%
D17*
%TO.N,/+5V*%
X110000000Y-48540000D02*
X128940000Y-48540000D01*
X68790000Y-56750000D02*
X69544887Y-56750000D01*
X64200000Y-52160000D02*
X68790000Y-56750000D01*
X128940000Y-48540000D02*
X132935000Y-52535000D01*
X64200000Y-47400000D02*
X64200000Y-52160000D01*
X101100000Y-42200000D02*
X107440000Y-48540000D01*
X94700000Y-42200000D02*
X101100000Y-42200000D01*
X132935000Y-52535000D02*
X137250000Y-52535000D01*
X64600000Y-47000000D02*
X64200000Y-47400000D01*
X107440000Y-48540000D02*
X110000000Y-48540000D01*
%TO.N,/OLED_SDA*%
X99200000Y-50000000D02*
X102820000Y-53620000D01*
X102820000Y-53620000D02*
X110000000Y-53620000D01*
%TD*%
%TA.AperFunction,Conductor*%
%TO.N,/GND*%
G36*
X146001509Y-40000037D02*
G01*
X146007232Y-40000177D01*
X146087583Y-40002145D01*
X146108728Y-40004490D01*
X146279013Y-40038362D01*
X146302261Y-40045413D01*
X146461257Y-40111272D01*
X146482692Y-40122730D01*
X146625775Y-40218335D01*
X146644565Y-40233756D01*
X146766243Y-40355434D01*
X146781664Y-40374224D01*
X146877269Y-40517307D01*
X146888728Y-40538745D01*
X146954583Y-40697731D01*
X146961639Y-40720993D01*
X146995508Y-40891266D01*
X146997854Y-40912419D01*
X146999963Y-40998488D01*
X147000000Y-41001526D01*
X147000000Y-58998473D01*
X146999963Y-59001511D01*
X146997854Y-59087580D01*
X146995508Y-59108733D01*
X146961639Y-59279006D01*
X146954583Y-59302268D01*
X146888728Y-59461254D01*
X146877269Y-59482692D01*
X146781664Y-59625775D01*
X146766243Y-59644565D01*
X146644565Y-59766243D01*
X146625775Y-59781664D01*
X146482692Y-59877269D01*
X146461254Y-59888728D01*
X146302268Y-59954583D01*
X146279006Y-59961639D01*
X146108733Y-59995508D01*
X146087580Y-59997854D01*
X146004250Y-59999895D01*
X146001509Y-59999963D01*
X145998473Y-60000000D01*
X48001527Y-60000000D01*
X47998490Y-59999963D01*
X47912420Y-59997854D01*
X47891266Y-59995508D01*
X47720993Y-59961639D01*
X47697731Y-59954583D01*
X47538745Y-59888728D01*
X47517307Y-59877269D01*
X47374224Y-59781664D01*
X47355434Y-59766243D01*
X47233756Y-59644565D01*
X47218335Y-59625775D01*
X47122730Y-59482692D01*
X47111271Y-59461254D01*
X47045413Y-59302261D01*
X47038362Y-59279013D01*
X47004490Y-59108728D01*
X47002145Y-59087583D01*
X47000037Y-59001509D01*
X47000000Y-58998473D01*
X47000000Y-57146047D01*
X47399500Y-57146047D01*
X47432199Y-57436271D01*
X47432202Y-57436285D01*
X47497196Y-57721044D01*
X47497197Y-57721046D01*
X47593665Y-57996738D01*
X47720393Y-58259890D01*
X47720395Y-58259893D01*
X47875792Y-58507206D01*
X48057902Y-58735565D01*
X48264435Y-58942098D01*
X48492794Y-59124208D01*
X48740107Y-59279605D01*
X49003263Y-59406335D01*
X49278955Y-59502803D01*
X49563714Y-59567798D01*
X49563723Y-59567799D01*
X49563728Y-59567800D01*
X49757210Y-59589599D01*
X49853953Y-59600499D01*
X49853956Y-59600500D01*
X49853959Y-59600500D01*
X50146044Y-59600500D01*
X50146045Y-59600499D01*
X50294371Y-59583787D01*
X50436271Y-59567800D01*
X50436274Y-59567799D01*
X50436286Y-59567798D01*
X50721045Y-59502803D01*
X50996737Y-59406335D01*
X51259893Y-59279605D01*
X51507206Y-59124208D01*
X51735565Y-58942098D01*
X51942098Y-58735565D01*
X52124208Y-58507206D01*
X52279605Y-58259893D01*
X52406335Y-57996737D01*
X52502803Y-57721045D01*
X52567798Y-57436286D01*
X52600500Y-57146041D01*
X52600500Y-56853959D01*
X52582854Y-56697339D01*
X52567800Y-56563728D01*
X52567799Y-56563723D01*
X52567798Y-56563714D01*
X52502803Y-56278955D01*
X52406335Y-56003263D01*
X52279605Y-55740107D01*
X52124208Y-55492794D01*
X51942098Y-55264435D01*
X51735565Y-55057902D01*
X51507206Y-54875792D01*
X51259893Y-54720395D01*
X51259890Y-54720393D01*
X50996738Y-54593665D01*
X50721046Y-54497197D01*
X50721044Y-54497196D01*
X50501280Y-54447036D01*
X50436286Y-54432202D01*
X50436283Y-54432201D01*
X50436271Y-54432199D01*
X50146047Y-54399500D01*
X50146041Y-54399500D01*
X49853959Y-54399500D01*
X49853952Y-54399500D01*
X49563728Y-54432199D01*
X49563714Y-54432202D01*
X49278955Y-54497196D01*
X49278953Y-54497197D01*
X49003261Y-54593665D01*
X48740109Y-54720393D01*
X48492795Y-54875791D01*
X48264435Y-55057901D01*
X48057901Y-55264435D01*
X47875791Y-55492795D01*
X47720393Y-55740109D01*
X47593665Y-56003261D01*
X47497197Y-56278953D01*
X47497196Y-56278955D01*
X47432202Y-56563714D01*
X47432199Y-56563728D01*
X47399500Y-56853952D01*
X47399500Y-57146047D01*
X47000000Y-57146047D01*
X47000000Y-52160002D01*
X55895034Y-52160002D01*
X55914858Y-52386599D01*
X55914860Y-52386610D01*
X55973730Y-52606317D01*
X55973735Y-52606331D01*
X56069863Y-52812478D01*
X56120974Y-52885472D01*
X56737449Y-52268997D01*
X56757370Y-52343343D01*
X56819905Y-52451657D01*
X56908343Y-52540095D01*
X57016657Y-52602630D01*
X57091002Y-52622550D01*
X56474526Y-53239025D01*
X56547513Y-53290132D01*
X56547521Y-53290136D01*
X56753668Y-53386264D01*
X56753682Y-53386269D01*
X56973389Y-53445139D01*
X56973400Y-53445141D01*
X57199998Y-53464966D01*
X57200002Y-53464966D01*
X57426599Y-53445141D01*
X57426610Y-53445139D01*
X57646317Y-53386269D01*
X57646331Y-53386264D01*
X57852478Y-53290136D01*
X57925471Y-53239024D01*
X57308997Y-52622550D01*
X57383343Y-52602630D01*
X57491657Y-52540095D01*
X57580095Y-52451657D01*
X57642630Y-52343343D01*
X57662550Y-52268997D01*
X58279024Y-52885471D01*
X58330134Y-52812481D01*
X58337340Y-52797028D01*
X58383511Y-52744587D01*
X58450704Y-52725433D01*
X58517585Y-52745646D01*
X58562105Y-52797022D01*
X58569430Y-52812730D01*
X58569432Y-52812734D01*
X58699954Y-52999141D01*
X58860858Y-53160045D01*
X58861508Y-53160500D01*
X59047266Y-53290568D01*
X59253504Y-53386739D01*
X59473308Y-53445635D01*
X59635230Y-53459801D01*
X59699998Y-53465468D01*
X59700000Y-53465468D01*
X59700002Y-53465468D01*
X59756673Y-53460509D01*
X59926692Y-53445635D01*
X60146496Y-53386739D01*
X60352734Y-53290568D01*
X60539139Y-53160047D01*
X60612320Y-53086865D01*
X60673641Y-53053382D01*
X60743333Y-53058366D01*
X60787679Y-53086865D01*
X60837275Y-53136461D01*
X60860862Y-53160048D01*
X60861508Y-53160500D01*
X61047266Y-53290568D01*
X61253504Y-53386739D01*
X61473308Y-53445635D01*
X61635230Y-53459801D01*
X61699998Y-53465468D01*
X61700000Y-53465468D01*
X61700002Y-53465468D01*
X61756673Y-53460509D01*
X61926692Y-53445635D01*
X62146496Y-53386739D01*
X62352734Y-53290568D01*
X62539139Y-53160047D01*
X62700047Y-52999139D01*
X62700055Y-52999127D01*
X62701010Y-52997990D01*
X62701569Y-52997617D01*
X62703876Y-52995311D01*
X62704339Y-52995774D01*
X62759173Y-52959277D01*
X62829034Y-52958154D01*
X62888411Y-52994979D01*
X62912197Y-53034344D01*
X62956202Y-53152328D01*
X62956206Y-53152335D01*
X63042452Y-53267544D01*
X63042455Y-53267547D01*
X63157664Y-53353793D01*
X63157671Y-53353797D01*
X63292517Y-53404091D01*
X63292516Y-53404091D01*
X63299444Y-53404835D01*
X63352127Y-53410500D01*
X64514547Y-53410499D01*
X64581586Y-53430184D01*
X64602228Y-53446818D01*
X68208068Y-57052658D01*
X68241553Y-57113981D01*
X68244387Y-57140339D01*
X68244387Y-57597870D01*
X68244388Y-57597876D01*
X68250795Y-57657483D01*
X68301089Y-57792328D01*
X68301093Y-57792335D01*
X68387339Y-57907544D01*
X68387342Y-57907547D01*
X68502551Y-57993793D01*
X68502558Y-57993797D01*
X68637404Y-58044091D01*
X68637403Y-58044091D01*
X68644331Y-58044835D01*
X68697014Y-58050500D01*
X70392759Y-58050499D01*
X70452370Y-58044091D01*
X70587218Y-57993796D01*
X70702433Y-57907546D01*
X70788683Y-57792331D01*
X70838978Y-57657483D01*
X70845387Y-57597873D01*
X70845386Y-57597845D01*
X70845565Y-57594547D01*
X70847070Y-57594627D01*
X70864999Y-57533326D01*
X70917755Y-57487514D01*
X70961352Y-57479981D01*
X71644887Y-56796446D01*
X71644887Y-56802661D01*
X71672146Y-56904394D01*
X71724807Y-56995606D01*
X71799281Y-57070080D01*
X71890493Y-57122741D01*
X71992226Y-57150000D01*
X71998440Y-57150000D01*
X71319413Y-57829025D01*
X71392400Y-57880132D01*
X71392408Y-57880136D01*
X71598555Y-57976264D01*
X71598569Y-57976269D01*
X71818276Y-58035139D01*
X71818287Y-58035141D01*
X72044885Y-58054966D01*
X72044889Y-58054966D01*
X72271486Y-58035141D01*
X72271497Y-58035139D01*
X72491204Y-57976269D01*
X72491218Y-57976264D01*
X72697365Y-57880136D01*
X72770358Y-57829024D01*
X72091334Y-57150000D01*
X72097548Y-57150000D01*
X72199281Y-57122741D01*
X72290493Y-57070080D01*
X72364967Y-56995606D01*
X72417628Y-56904394D01*
X72444887Y-56802661D01*
X72444887Y-56796447D01*
X73123911Y-57475471D01*
X73175023Y-57402478D01*
X73271151Y-57196331D01*
X73271156Y-57196317D01*
X73284626Y-57146047D01*
X141399500Y-57146047D01*
X141432199Y-57436271D01*
X141432202Y-57436285D01*
X141497196Y-57721044D01*
X141497197Y-57721046D01*
X141593665Y-57996738D01*
X141720393Y-58259890D01*
X141720395Y-58259893D01*
X141875792Y-58507206D01*
X142057902Y-58735565D01*
X142264435Y-58942098D01*
X142492794Y-59124208D01*
X142740107Y-59279605D01*
X143003263Y-59406335D01*
X143278955Y-59502803D01*
X143563714Y-59567798D01*
X143563723Y-59567799D01*
X143563728Y-59567800D01*
X143757210Y-59589599D01*
X143853953Y-59600499D01*
X143853956Y-59600500D01*
X143853959Y-59600500D01*
X144146044Y-59600500D01*
X144146045Y-59600499D01*
X144294371Y-59583787D01*
X144436271Y-59567800D01*
X144436274Y-59567799D01*
X144436286Y-59567798D01*
X144721045Y-59502803D01*
X144996737Y-59406335D01*
X145259893Y-59279605D01*
X145507206Y-59124208D01*
X145735565Y-58942098D01*
X145942098Y-58735565D01*
X146124208Y-58507206D01*
X146279605Y-58259893D01*
X146406335Y-57996737D01*
X146502803Y-57721045D01*
X146567798Y-57436286D01*
X146600500Y-57146041D01*
X146600500Y-56853959D01*
X146582854Y-56697339D01*
X146567800Y-56563728D01*
X146567799Y-56563723D01*
X146567798Y-56563714D01*
X146502803Y-56278955D01*
X146406335Y-56003263D01*
X146279605Y-55740107D01*
X146124208Y-55492794D01*
X145942098Y-55264435D01*
X145735565Y-55057902D01*
X145507206Y-54875792D01*
X145259893Y-54720395D01*
X145259890Y-54720393D01*
X144996738Y-54593665D01*
X144721046Y-54497197D01*
X144721044Y-54497196D01*
X144501280Y-54447036D01*
X144436286Y-54432202D01*
X144436283Y-54432201D01*
X144436271Y-54432199D01*
X144146047Y-54399500D01*
X144146041Y-54399500D01*
X143853959Y-54399500D01*
X143853952Y-54399500D01*
X143563728Y-54432199D01*
X143563714Y-54432202D01*
X143278955Y-54497196D01*
X143278953Y-54497197D01*
X143003261Y-54593665D01*
X142740109Y-54720393D01*
X142492795Y-54875791D01*
X142264435Y-55057901D01*
X142057901Y-55264435D01*
X141875791Y-55492795D01*
X141720393Y-55740109D01*
X141593665Y-56003261D01*
X141497197Y-56278953D01*
X141497196Y-56278955D01*
X141432202Y-56563714D01*
X141432199Y-56563728D01*
X141399500Y-56853952D01*
X141399500Y-57146047D01*
X73284626Y-57146047D01*
X73330026Y-56976610D01*
X73330028Y-56976599D01*
X73349853Y-56750002D01*
X73349853Y-56749997D01*
X73330028Y-56523400D01*
X73330026Y-56523389D01*
X73271156Y-56303682D01*
X73271151Y-56303668D01*
X73175023Y-56097521D01*
X73175019Y-56097513D01*
X73123912Y-56024526D01*
X72444887Y-56703551D01*
X72444887Y-56697339D01*
X72417628Y-56595606D01*
X72364967Y-56504394D01*
X72290493Y-56429920D01*
X72199281Y-56377259D01*
X72097548Y-56350000D01*
X72091335Y-56350000D01*
X72770359Y-55670974D01*
X72697365Y-55619863D01*
X72491218Y-55523735D01*
X72491204Y-55523730D01*
X72271497Y-55464860D01*
X72271486Y-55464858D01*
X72044889Y-55445034D01*
X72044885Y-55445034D01*
X71818287Y-55464858D01*
X71818276Y-55464860D01*
X71598569Y-55523730D01*
X71598560Y-55523734D01*
X71392403Y-55619866D01*
X71392399Y-55619868D01*
X71319413Y-55670973D01*
X71319413Y-55670974D01*
X71998440Y-56350000D01*
X71992226Y-56350000D01*
X71890493Y-56377259D01*
X71799281Y-56429920D01*
X71724807Y-56504394D01*
X71672146Y-56595606D01*
X71644887Y-56697339D01*
X71644887Y-56703552D01*
X70960686Y-56019351D01*
X70911692Y-56009505D01*
X70861509Y-55960889D01*
X70846868Y-55905366D01*
X70845787Y-55905423D01*
X70845741Y-55905429D01*
X70845740Y-55905426D01*
X70845563Y-55905436D01*
X70845386Y-55902141D01*
X70845386Y-55902128D01*
X70838978Y-55842517D01*
X70800782Y-55740109D01*
X70788684Y-55707671D01*
X70788680Y-55707664D01*
X70702434Y-55592455D01*
X70702431Y-55592452D01*
X70587222Y-55506206D01*
X70587215Y-55506202D01*
X70452369Y-55455908D01*
X70452370Y-55455908D01*
X70392770Y-55449501D01*
X70392768Y-55449500D01*
X70392760Y-55449500D01*
X70392751Y-55449500D01*
X68697016Y-55449500D01*
X68697010Y-55449501D01*
X68637403Y-55455908D01*
X68524953Y-55497850D01*
X68455261Y-55502834D01*
X68393939Y-55469349D01*
X65536818Y-52612228D01*
X65503333Y-52550905D01*
X65500499Y-52524547D01*
X65500499Y-51362129D01*
X65500498Y-51362123D01*
X65499179Y-51349855D01*
X65494091Y-51302517D01*
X65487802Y-51285656D01*
X65443797Y-51167671D01*
X65443793Y-51167664D01*
X65357547Y-51052455D01*
X65357544Y-51052452D01*
X65242335Y-50966206D01*
X65242328Y-50966202D01*
X65107482Y-50915908D01*
X65107483Y-50915908D01*
X65047883Y-50909501D01*
X65047881Y-50909500D01*
X65047873Y-50909500D01*
X65047865Y-50909500D01*
X64949500Y-50909500D01*
X64882461Y-50889815D01*
X64836706Y-50837011D01*
X64825500Y-50785500D01*
X64825500Y-49450001D01*
X65264891Y-49450001D01*
X65285300Y-49735362D01*
X65346109Y-50014895D01*
X65446091Y-50282958D01*
X65583191Y-50534038D01*
X65583196Y-50534046D01*
X65689882Y-50676561D01*
X65689883Y-50676562D01*
X66297912Y-50068532D01*
X66392829Y-50199175D01*
X66520825Y-50327171D01*
X66651465Y-50422086D01*
X66043436Y-51030115D01*
X66185960Y-51136807D01*
X66185961Y-51136808D01*
X66437042Y-51273908D01*
X66437041Y-51273908D01*
X66705104Y-51373890D01*
X66984637Y-51434699D01*
X67269999Y-51455109D01*
X67270001Y-51455109D01*
X67555362Y-51434699D01*
X67834895Y-51373890D01*
X68102958Y-51273908D01*
X68354047Y-51136803D01*
X68496561Y-51030116D01*
X68496562Y-51030115D01*
X67888534Y-50422086D01*
X68019175Y-50327171D01*
X68147171Y-50199175D01*
X68242086Y-50068533D01*
X68850115Y-50676562D01*
X68850116Y-50676561D01*
X68956803Y-50534047D01*
X69093908Y-50282958D01*
X69193890Y-50014895D01*
X69254699Y-49735362D01*
X69275109Y-49450001D01*
X69275109Y-49449998D01*
X69254699Y-49164637D01*
X69193890Y-48885104D01*
X69093908Y-48617041D01*
X68956808Y-48365961D01*
X68956807Y-48365960D01*
X68850115Y-48223436D01*
X68242086Y-48831465D01*
X68147171Y-48700825D01*
X68019175Y-48572829D01*
X67888533Y-48477912D01*
X68496562Y-47869883D01*
X68496561Y-47869882D01*
X68354046Y-47763196D01*
X68354038Y-47763191D01*
X68102957Y-47626091D01*
X68102958Y-47626091D01*
X67834895Y-47526109D01*
X67555362Y-47465300D01*
X67270001Y-47444891D01*
X67269999Y-47444891D01*
X66984637Y-47465300D01*
X66705104Y-47526109D01*
X66437041Y-47626091D01*
X66185961Y-47763191D01*
X66185953Y-47763196D01*
X66043437Y-47869882D01*
X66043436Y-47869883D01*
X66651466Y-48477913D01*
X66520825Y-48572829D01*
X66392829Y-48700825D01*
X66297913Y-48831466D01*
X65689883Y-48223436D01*
X65689882Y-48223437D01*
X65583196Y-48365953D01*
X65583191Y-48365961D01*
X65446091Y-48617041D01*
X65346109Y-48885104D01*
X65285300Y-49164637D01*
X65264891Y-49449998D01*
X65264891Y-49450001D01*
X64825500Y-49450001D01*
X64825500Y-47965847D01*
X64845185Y-47898808D01*
X64897989Y-47853053D01*
X64899005Y-47852594D01*
X65052730Y-47784151D01*
X65205871Y-47672888D01*
X65332533Y-47532216D01*
X65427179Y-47368284D01*
X65485674Y-47188256D01*
X65505460Y-47000000D01*
X65485674Y-46811744D01*
X65427179Y-46631716D01*
X65332533Y-46467784D01*
X65205871Y-46327112D01*
X65178199Y-46307007D01*
X65052734Y-46215851D01*
X65052729Y-46215848D01*
X64879807Y-46138857D01*
X64879802Y-46138855D01*
X64734001Y-46107865D01*
X64694646Y-46099500D01*
X64505354Y-46099500D01*
X64472897Y-46106398D01*
X64320197Y-46138855D01*
X64320192Y-46138857D01*
X64147270Y-46215848D01*
X64147265Y-46215851D01*
X63994129Y-46327111D01*
X63867466Y-46467785D01*
X63772821Y-46631715D01*
X63772818Y-46631722D01*
X63714327Y-46811740D01*
X63714326Y-46811744D01*
X63695450Y-46991344D01*
X63693925Y-47005853D01*
X63673706Y-47061783D01*
X63645687Y-47103714D01*
X63621063Y-47163165D01*
X63598537Y-47217546D01*
X63598534Y-47217555D01*
X63588879Y-47266093D01*
X63588880Y-47266094D01*
X63582877Y-47296280D01*
X63582876Y-47296287D01*
X63574500Y-47338392D01*
X63574500Y-50785500D01*
X63554815Y-50852539D01*
X63502011Y-50898294D01*
X63450501Y-50909500D01*
X63352130Y-50909500D01*
X63352123Y-50909501D01*
X63292516Y-50915908D01*
X63157671Y-50966202D01*
X63157664Y-50966206D01*
X63042455Y-51052452D01*
X63042452Y-51052455D01*
X62956206Y-51167664D01*
X62956203Y-51167669D01*
X62912197Y-51285656D01*
X62870325Y-51341589D01*
X62804861Y-51366006D01*
X62736588Y-51351154D01*
X62704057Y-51324507D01*
X62703876Y-51324689D01*
X62702050Y-51322863D01*
X62701017Y-51322017D01*
X62700043Y-51320856D01*
X62539141Y-51159954D01*
X62352734Y-51029432D01*
X62352732Y-51029431D01*
X62146497Y-50933261D01*
X62146488Y-50933258D01*
X61926697Y-50874366D01*
X61926693Y-50874365D01*
X61926692Y-50874365D01*
X61926691Y-50874364D01*
X61926686Y-50874364D01*
X61700002Y-50854532D01*
X61699998Y-50854532D01*
X61473313Y-50874364D01*
X61473302Y-50874366D01*
X61253511Y-50933258D01*
X61253502Y-50933261D01*
X61047267Y-51029431D01*
X61047265Y-51029432D01*
X60860858Y-51159954D01*
X60787681Y-51233132D01*
X60726358Y-51266617D01*
X60656666Y-51261633D01*
X60612319Y-51233132D01*
X60539141Y-51159954D01*
X60352734Y-51029432D01*
X60352732Y-51029431D01*
X60146497Y-50933261D01*
X60146488Y-50933258D01*
X59926697Y-50874366D01*
X59926693Y-50874365D01*
X59926692Y-50874365D01*
X59926691Y-50874364D01*
X59926686Y-50874364D01*
X59700002Y-50854532D01*
X59699998Y-50854532D01*
X59473313Y-50874364D01*
X59473302Y-50874366D01*
X59253511Y-50933258D01*
X59253502Y-50933261D01*
X59047267Y-51029431D01*
X59047265Y-51029432D01*
X58860858Y-51159954D01*
X58699954Y-51320858D01*
X58569432Y-51507265D01*
X58569429Y-51507270D01*
X58562104Y-51522979D01*
X58515929Y-51575417D01*
X58448735Y-51594566D01*
X58381855Y-51574347D01*
X58337341Y-51522973D01*
X58330133Y-51507515D01*
X58330132Y-51507513D01*
X58279025Y-51434526D01*
X57662550Y-52051001D01*
X57642630Y-51976657D01*
X57580095Y-51868343D01*
X57491657Y-51779905D01*
X57383343Y-51717370D01*
X57308998Y-51697449D01*
X57925472Y-51080974D01*
X57852478Y-51029863D01*
X57646331Y-50933735D01*
X57646317Y-50933730D01*
X57426610Y-50874860D01*
X57426599Y-50874858D01*
X57200002Y-50855034D01*
X57199998Y-50855034D01*
X56973400Y-50874858D01*
X56973389Y-50874860D01*
X56753682Y-50933730D01*
X56753673Y-50933734D01*
X56547516Y-51029866D01*
X56547512Y-51029868D01*
X56474526Y-51080973D01*
X56474526Y-51080974D01*
X57091002Y-51697449D01*
X57016657Y-51717370D01*
X56908343Y-51779905D01*
X56819905Y-51868343D01*
X56757370Y-51976657D01*
X56737449Y-52051001D01*
X56120974Y-51434526D01*
X56120973Y-51434526D01*
X56069868Y-51507512D01*
X56069866Y-51507516D01*
X55973734Y-51713673D01*
X55973730Y-51713682D01*
X55914860Y-51933389D01*
X55914858Y-51933400D01*
X55895034Y-52159997D01*
X55895034Y-52160002D01*
X47000000Y-52160002D01*
X47000000Y-49450001D01*
X52124891Y-49450001D01*
X52145300Y-49735362D01*
X52206109Y-50014895D01*
X52306091Y-50282958D01*
X52443191Y-50534038D01*
X52443196Y-50534046D01*
X52549882Y-50676561D01*
X52549883Y-50676562D01*
X53157912Y-50068532D01*
X53252829Y-50199175D01*
X53380825Y-50327171D01*
X53511465Y-50422086D01*
X52903436Y-51030115D01*
X53045960Y-51136807D01*
X53045961Y-51136808D01*
X53297042Y-51273908D01*
X53297041Y-51273908D01*
X53565104Y-51373890D01*
X53844637Y-51434699D01*
X54129999Y-51455109D01*
X54130001Y-51455109D01*
X54415362Y-51434699D01*
X54694895Y-51373890D01*
X54962958Y-51273908D01*
X55214047Y-51136803D01*
X55356561Y-51030116D01*
X55356562Y-51030115D01*
X54748534Y-50422086D01*
X54879175Y-50327171D01*
X55007171Y-50199175D01*
X55102086Y-50068533D01*
X55710115Y-50676562D01*
X55710116Y-50676561D01*
X55816803Y-50534047D01*
X55953908Y-50282958D01*
X56053890Y-50014895D01*
X56114699Y-49735362D01*
X56135109Y-49450001D01*
X56135109Y-49449998D01*
X56114699Y-49164637D01*
X56053890Y-48885104D01*
X55953908Y-48617041D01*
X55816808Y-48365961D01*
X55816807Y-48365960D01*
X55710115Y-48223436D01*
X55102086Y-48831465D01*
X55007171Y-48700825D01*
X54879175Y-48572829D01*
X54748533Y-48477912D01*
X55356562Y-47869883D01*
X55356561Y-47869882D01*
X55214046Y-47763196D01*
X55214038Y-47763191D01*
X54962957Y-47626091D01*
X54962958Y-47626091D01*
X54694895Y-47526109D01*
X54415362Y-47465300D01*
X54130001Y-47444891D01*
X54129999Y-47444891D01*
X53844637Y-47465300D01*
X53565104Y-47526109D01*
X53297041Y-47626091D01*
X53045961Y-47763191D01*
X53045953Y-47763196D01*
X52903437Y-47869882D01*
X52903436Y-47869883D01*
X53511466Y-48477913D01*
X53380825Y-48572829D01*
X53252829Y-48700825D01*
X53157913Y-48831466D01*
X52549883Y-48223436D01*
X52549882Y-48223437D01*
X52443196Y-48365953D01*
X52443191Y-48365961D01*
X52306091Y-48617041D01*
X52206109Y-48885104D01*
X52145300Y-49164637D01*
X52124891Y-49449998D01*
X52124891Y-49450001D01*
X47000000Y-49450001D01*
X47000000Y-43146047D01*
X47399500Y-43146047D01*
X47432199Y-43436271D01*
X47432202Y-43436285D01*
X47497196Y-43721044D01*
X47497197Y-43721046D01*
X47593665Y-43996738D01*
X47720393Y-44259890D01*
X47720395Y-44259893D01*
X47875792Y-44507206D01*
X48057902Y-44735565D01*
X48264435Y-44942098D01*
X48492794Y-45124208D01*
X48740107Y-45279605D01*
X49003263Y-45406335D01*
X49278955Y-45502803D01*
X49563714Y-45567798D01*
X49563723Y-45567799D01*
X49563728Y-45567800D01*
X49757210Y-45589599D01*
X49853953Y-45600499D01*
X49853956Y-45600500D01*
X49853959Y-45600500D01*
X50146044Y-45600500D01*
X50146045Y-45600499D01*
X50294371Y-45583787D01*
X50436271Y-45567800D01*
X50436274Y-45567799D01*
X50436286Y-45567798D01*
X50721045Y-45502803D01*
X50996737Y-45406335D01*
X51259893Y-45279605D01*
X51507206Y-45124208D01*
X51735565Y-44942098D01*
X51942098Y-44735565D01*
X52124208Y-44507206D01*
X52279605Y-44259893D01*
X52406335Y-43996737D01*
X52502803Y-43721045D01*
X52567798Y-43436286D01*
X52600500Y-43146041D01*
X52600500Y-42853959D01*
X52568313Y-42568284D01*
X52567800Y-42563728D01*
X52567799Y-42563723D01*
X52567798Y-42563714D01*
X52502803Y-42278955D01*
X52475176Y-42200000D01*
X93794540Y-42200000D01*
X93814326Y-42388256D01*
X93814327Y-42388259D01*
X93872818Y-42568277D01*
X93872821Y-42568284D01*
X93967467Y-42732216D01*
X94069185Y-42845185D01*
X94094129Y-42872888D01*
X94247265Y-42984148D01*
X94247270Y-42984151D01*
X94420192Y-43061142D01*
X94420197Y-43061144D01*
X94605354Y-43100500D01*
X94605355Y-43100500D01*
X94794644Y-43100500D01*
X94794646Y-43100500D01*
X94979803Y-43061144D01*
X95152730Y-42984151D01*
X95305871Y-42872888D01*
X95308788Y-42869647D01*
X95311600Y-42866526D01*
X95371087Y-42829879D01*
X95403748Y-42825500D01*
X100789548Y-42825500D01*
X100856587Y-42845185D01*
X100877229Y-42861819D01*
X106951016Y-48935606D01*
X106951045Y-48935637D01*
X107041264Y-49025856D01*
X107041267Y-49025858D01*
X107092490Y-49060084D01*
X107143714Y-49094312D01*
X107175240Y-49107370D01*
X107214412Y-49123596D01*
X107214417Y-49123597D01*
X107214421Y-49123599D01*
X107257548Y-49141463D01*
X107317971Y-49153481D01*
X107378393Y-49165500D01*
X107378394Y-49165500D01*
X108724773Y-49165500D01*
X108791812Y-49185185D01*
X108826348Y-49218377D01*
X108961501Y-49411396D01*
X108961506Y-49411402D01*
X109128597Y-49578493D01*
X109128603Y-49578498D01*
X109314158Y-49708425D01*
X109357783Y-49763002D01*
X109364977Y-49832500D01*
X109333454Y-49894855D01*
X109314158Y-49911575D01*
X109128597Y-50041505D01*
X108961505Y-50208597D01*
X108825965Y-50402169D01*
X108825964Y-50402171D01*
X108726098Y-50616335D01*
X108726094Y-50616344D01*
X108664938Y-50844586D01*
X108664936Y-50844596D01*
X108644341Y-51079999D01*
X108644341Y-51080000D01*
X108664936Y-51315403D01*
X108664938Y-51315413D01*
X108726094Y-51543655D01*
X108726096Y-51543659D01*
X108726097Y-51543663D01*
X108807098Y-51717370D01*
X108825965Y-51757830D01*
X108825967Y-51757834D01*
X108961501Y-51951395D01*
X108961506Y-51951402D01*
X109128597Y-52118493D01*
X109128603Y-52118498D01*
X109314158Y-52248425D01*
X109357783Y-52303002D01*
X109364977Y-52372500D01*
X109333454Y-52434855D01*
X109314158Y-52451575D01*
X109128597Y-52581505D01*
X108961505Y-52748597D01*
X108826348Y-52941623D01*
X108771771Y-52985248D01*
X108724773Y-52994500D01*
X103130452Y-52994500D01*
X103063413Y-52974815D01*
X103042771Y-52958181D01*
X100138960Y-50054370D01*
X100105475Y-49993047D01*
X100103323Y-49979671D01*
X100085674Y-49811744D01*
X100027179Y-49631716D01*
X99932533Y-49467784D01*
X99805871Y-49327112D01*
X99805870Y-49327111D01*
X99652734Y-49215851D01*
X99652729Y-49215848D01*
X99479807Y-49138857D01*
X99479802Y-49138855D01*
X99334001Y-49107865D01*
X99294646Y-49099500D01*
X99105354Y-49099500D01*
X99072897Y-49106398D01*
X98920197Y-49138855D01*
X98920192Y-49138857D01*
X98747270Y-49215848D01*
X98747265Y-49215851D01*
X98594129Y-49327111D01*
X98467466Y-49467785D01*
X98372821Y-49631715D01*
X98372818Y-49631722D01*
X98314327Y-49811740D01*
X98314326Y-49811744D01*
X98294540Y-50000000D01*
X98314326Y-50188256D01*
X98314327Y-50188259D01*
X98372818Y-50368277D01*
X98372821Y-50368284D01*
X98467467Y-50532216D01*
X98594077Y-50672830D01*
X98594129Y-50672888D01*
X98747265Y-50784148D01*
X98747270Y-50784151D01*
X98920192Y-50861142D01*
X98920197Y-50861144D01*
X99105354Y-50900500D01*
X99164548Y-50900500D01*
X99231587Y-50920185D01*
X99252229Y-50936819D01*
X102331016Y-54015606D01*
X102331045Y-54015637D01*
X102421264Y-54105856D01*
X102421267Y-54105858D01*
X102472490Y-54140084D01*
X102523714Y-54174312D01*
X102604207Y-54207652D01*
X102637548Y-54221463D01*
X102697971Y-54233481D01*
X102758393Y-54245500D01*
X102758394Y-54245500D01*
X108724773Y-54245500D01*
X108791812Y-54265185D01*
X108826348Y-54298377D01*
X108961500Y-54491395D01*
X108961505Y-54491401D01*
X109128599Y-54658495D01*
X109216998Y-54720393D01*
X109322165Y-54794032D01*
X109322167Y-54794033D01*
X109322170Y-54794035D01*
X109536337Y-54893903D01*
X109764592Y-54955063D01*
X109952918Y-54971539D01*
X109999999Y-54975659D01*
X110000000Y-54975659D01*
X110000001Y-54975659D01*
X110039234Y-54972226D01*
X110235408Y-54955063D01*
X110463663Y-54893903D01*
X110677830Y-54794035D01*
X110871401Y-54658495D01*
X111038495Y-54491401D01*
X111174035Y-54297830D01*
X111273903Y-54083663D01*
X111335063Y-53855408D01*
X111355659Y-53620000D01*
X111335063Y-53384592D01*
X111280293Y-53180185D01*
X111273905Y-53156344D01*
X111273904Y-53156343D01*
X111273903Y-53156337D01*
X111174035Y-52942171D01*
X111173652Y-52941623D01*
X111038494Y-52748597D01*
X110871402Y-52581506D01*
X110871396Y-52581501D01*
X110685842Y-52451575D01*
X110642217Y-52396998D01*
X110635023Y-52327500D01*
X110666546Y-52265145D01*
X110685842Y-52248425D01*
X110722817Y-52222535D01*
X110871401Y-52118495D01*
X111038495Y-51951401D01*
X111174035Y-51757830D01*
X111273903Y-51543663D01*
X111335063Y-51315408D01*
X111355659Y-51080000D01*
X111335063Y-50844592D01*
X111273903Y-50616337D01*
X111174035Y-50402171D01*
X111150308Y-50368284D01*
X111038494Y-50208597D01*
X110871402Y-50041506D01*
X110871396Y-50041501D01*
X110685842Y-49911575D01*
X110642217Y-49856998D01*
X110635023Y-49787500D01*
X110666546Y-49725145D01*
X110685842Y-49708425D01*
X110795385Y-49631722D01*
X110871401Y-49578495D01*
X111038495Y-49411401D01*
X111173652Y-49218377D01*
X111228229Y-49174752D01*
X111275227Y-49165500D01*
X128629548Y-49165500D01*
X128696587Y-49185185D01*
X128717229Y-49201819D01*
X132446016Y-52930606D01*
X132446045Y-52930637D01*
X132536263Y-53020855D01*
X132536267Y-53020858D01*
X132638707Y-53089307D01*
X132638713Y-53089310D01*
X132638714Y-53089311D01*
X132752548Y-53136463D01*
X132777962Y-53141517D01*
X132800886Y-53146078D01*
X132800906Y-53146081D01*
X132800928Y-53146086D01*
X132873391Y-53160499D01*
X132873392Y-53160500D01*
X132873393Y-53160500D01*
X132873394Y-53160500D01*
X135974773Y-53160500D01*
X136041812Y-53180185D01*
X136076348Y-53213377D01*
X136211501Y-53406396D01*
X136211506Y-53406402D01*
X136333818Y-53528714D01*
X136367303Y-53590037D01*
X136362319Y-53659729D01*
X136320447Y-53715662D01*
X136289471Y-53732577D01*
X136157912Y-53781646D01*
X136157906Y-53781649D01*
X136042812Y-53867809D01*
X136042809Y-53867812D01*
X135956649Y-53982906D01*
X135956645Y-53982913D01*
X135906403Y-54117620D01*
X135906401Y-54117627D01*
X135900000Y-54177155D01*
X135900000Y-54825000D01*
X136816988Y-54825000D01*
X136784075Y-54882007D01*
X136750000Y-55009174D01*
X136750000Y-55140826D01*
X136784075Y-55267993D01*
X136816988Y-55325000D01*
X135900000Y-55325000D01*
X135900000Y-55972844D01*
X135906401Y-56032372D01*
X135906403Y-56032379D01*
X135956645Y-56167086D01*
X135956649Y-56167093D01*
X136042809Y-56282187D01*
X136042812Y-56282190D01*
X136157906Y-56368350D01*
X136157913Y-56368354D01*
X136292620Y-56418596D01*
X136292627Y-56418598D01*
X136352155Y-56424999D01*
X136352172Y-56425000D01*
X137000000Y-56425000D01*
X137000000Y-55508012D01*
X137057007Y-55540925D01*
X137184174Y-55575000D01*
X137315826Y-55575000D01*
X137442993Y-55540925D01*
X137500000Y-55508012D01*
X137500000Y-56425000D01*
X138147828Y-56425000D01*
X138147844Y-56424999D01*
X138207372Y-56418598D01*
X138207379Y-56418596D01*
X138342086Y-56368354D01*
X138342093Y-56368350D01*
X138457187Y-56282190D01*
X138457190Y-56282187D01*
X138543350Y-56167093D01*
X138543354Y-56167086D01*
X138593596Y-56032379D01*
X138593598Y-56032372D01*
X138599999Y-55972844D01*
X138600000Y-55972827D01*
X138600000Y-55325000D01*
X137683012Y-55325000D01*
X137715925Y-55267993D01*
X137750000Y-55140826D01*
X137750000Y-55009174D01*
X137715925Y-54882007D01*
X137683012Y-54825000D01*
X138600000Y-54825000D01*
X138600000Y-54177172D01*
X138599999Y-54177155D01*
X138593598Y-54117627D01*
X138593596Y-54117620D01*
X138543354Y-53982913D01*
X138543350Y-53982906D01*
X138457190Y-53867812D01*
X138457187Y-53867809D01*
X138342093Y-53781649D01*
X138342088Y-53781646D01*
X138210528Y-53732577D01*
X138154595Y-53690705D01*
X138130178Y-53625241D01*
X138145030Y-53556968D01*
X138166175Y-53528720D01*
X138288495Y-53406401D01*
X138424035Y-53212830D01*
X138523903Y-52998663D01*
X138585063Y-52770408D01*
X138605659Y-52535000D01*
X138604744Y-52524547D01*
X138588891Y-52343343D01*
X138585063Y-52299592D01*
X138523903Y-52071337D01*
X138424035Y-51857171D01*
X138423652Y-51856623D01*
X138288494Y-51663597D01*
X138121402Y-51496506D01*
X138121396Y-51496501D01*
X137935842Y-51366575D01*
X137892217Y-51311998D01*
X137885023Y-51242500D01*
X137916546Y-51180145D01*
X137935842Y-51163425D01*
X138094323Y-51052455D01*
X138121401Y-51033495D01*
X138288495Y-50866401D01*
X138424035Y-50672830D01*
X138523903Y-50458663D01*
X138585063Y-50230408D01*
X138605659Y-49995000D01*
X138585063Y-49759592D01*
X138523903Y-49531337D01*
X138424035Y-49317171D01*
X138353091Y-49215851D01*
X138288494Y-49123597D01*
X138121402Y-48956506D01*
X138121396Y-48956501D01*
X137935842Y-48826575D01*
X137892217Y-48771998D01*
X137885023Y-48702500D01*
X137916546Y-48640145D01*
X137935842Y-48623425D01*
X138008100Y-48572829D01*
X138121401Y-48493495D01*
X138288495Y-48326401D01*
X138424035Y-48132830D01*
X138523903Y-47918663D01*
X138585063Y-47690408D01*
X138605659Y-47455000D01*
X138585063Y-47219592D01*
X138523903Y-46991337D01*
X138424035Y-46777171D01*
X138288495Y-46583599D01*
X138288494Y-46583597D01*
X138121402Y-46416506D01*
X138121396Y-46416501D01*
X137935842Y-46286575D01*
X137892217Y-46231998D01*
X137885023Y-46162500D01*
X137916546Y-46100145D01*
X137935842Y-46083425D01*
X137960976Y-46065826D01*
X138121401Y-45953495D01*
X138288495Y-45786401D01*
X138424035Y-45592830D01*
X138523903Y-45378663D01*
X138585063Y-45150408D01*
X138605659Y-44915000D01*
X138585063Y-44679592D01*
X138523903Y-44451337D01*
X138424035Y-44237171D01*
X138288495Y-44043599D01*
X138288494Y-44043597D01*
X138121402Y-43876506D01*
X138121395Y-43876501D01*
X137927834Y-43740967D01*
X137927830Y-43740965D01*
X137927828Y-43740964D01*
X137713663Y-43641097D01*
X137713659Y-43641096D01*
X137713655Y-43641094D01*
X137485413Y-43579938D01*
X137485403Y-43579936D01*
X137250001Y-43559341D01*
X137249999Y-43559341D01*
X137014596Y-43579936D01*
X137014586Y-43579938D01*
X136786344Y-43641094D01*
X136786335Y-43641098D01*
X136572171Y-43740964D01*
X136572169Y-43740965D01*
X136378597Y-43876505D01*
X136211505Y-44043597D01*
X136075965Y-44237169D01*
X136075964Y-44237171D01*
X135976098Y-44451335D01*
X135976094Y-44451344D01*
X135914938Y-44679586D01*
X135914936Y-44679596D01*
X135894341Y-44914999D01*
X135894341Y-44915000D01*
X135914936Y-45150403D01*
X135914938Y-45150413D01*
X135976094Y-45378655D01*
X135976096Y-45378659D01*
X135976097Y-45378663D01*
X135989001Y-45406335D01*
X136075965Y-45592830D01*
X136075967Y-45592834D01*
X136211501Y-45786395D01*
X136211506Y-45786402D01*
X136378597Y-45953493D01*
X136378603Y-45953498D01*
X136564158Y-46083425D01*
X136607783Y-46138002D01*
X136614977Y-46207500D01*
X136583454Y-46269855D01*
X136564158Y-46286575D01*
X136378597Y-46416505D01*
X136211505Y-46583597D01*
X136075965Y-46777169D01*
X136075964Y-46777171D01*
X135976098Y-46991335D01*
X135976094Y-46991344D01*
X135914938Y-47219586D01*
X135914936Y-47219596D01*
X135894341Y-47454999D01*
X135894341Y-47455000D01*
X135914936Y-47690403D01*
X135914938Y-47690413D01*
X135976094Y-47918655D01*
X135976096Y-47918659D01*
X135976097Y-47918663D01*
X136007352Y-47985689D01*
X136075965Y-48132830D01*
X136075967Y-48132834D01*
X136211501Y-48326395D01*
X136211506Y-48326402D01*
X136378597Y-48493493D01*
X136378603Y-48493498D01*
X136564158Y-48623425D01*
X136607783Y-48678002D01*
X136614977Y-48747500D01*
X136583454Y-48809855D01*
X136564158Y-48826575D01*
X136378597Y-48956505D01*
X136211505Y-49123597D01*
X136075965Y-49317169D01*
X136075964Y-49317171D01*
X135976098Y-49531335D01*
X135976094Y-49531344D01*
X135914938Y-49759586D01*
X135914936Y-49759596D01*
X135894341Y-49994999D01*
X135894341Y-49995000D01*
X135914936Y-50230403D01*
X135914938Y-50230413D01*
X135976094Y-50458655D01*
X135976096Y-50458659D01*
X135976097Y-50458663D01*
X136028799Y-50571683D01*
X136075965Y-50672830D01*
X136075967Y-50672834D01*
X136211501Y-50866395D01*
X136211506Y-50866402D01*
X136378597Y-51033493D01*
X136378603Y-51033498D01*
X136564158Y-51163425D01*
X136607783Y-51218002D01*
X136614977Y-51287500D01*
X136583454Y-51349855D01*
X136564158Y-51366575D01*
X136378597Y-51496505D01*
X136211505Y-51663597D01*
X136076348Y-51856623D01*
X136021771Y-51900248D01*
X135974773Y-51909500D01*
X133245452Y-51909500D01*
X133178413Y-51889815D01*
X133157771Y-51873181D01*
X129430198Y-48145608D01*
X129430178Y-48145586D01*
X129338733Y-48054141D01*
X129287509Y-48019915D01*
X129236287Y-47985689D01*
X129236286Y-47985688D01*
X129236283Y-47985686D01*
X129236280Y-47985685D01*
X129155792Y-47952347D01*
X129122453Y-47938537D01*
X129112427Y-47936543D01*
X129062029Y-47926518D01*
X129001610Y-47914500D01*
X129001607Y-47914500D01*
X129001606Y-47914500D01*
X111275227Y-47914500D01*
X111208188Y-47894815D01*
X111173652Y-47861623D01*
X111038496Y-47668600D01*
X110995987Y-47626091D01*
X110916179Y-47546283D01*
X110882696Y-47484963D01*
X110887680Y-47415271D01*
X110929551Y-47359337D01*
X110960529Y-47342422D01*
X111092086Y-47293354D01*
X111092093Y-47293350D01*
X111207187Y-47207190D01*
X111207190Y-47207187D01*
X111293350Y-47092093D01*
X111293354Y-47092086D01*
X111343596Y-46957379D01*
X111343598Y-46957372D01*
X111349999Y-46897844D01*
X111350000Y-46897827D01*
X111350000Y-46250000D01*
X110433012Y-46250000D01*
X110465925Y-46192993D01*
X110500000Y-46065826D01*
X110500000Y-45934174D01*
X110465925Y-45807007D01*
X110433012Y-45750000D01*
X111350000Y-45750000D01*
X111350000Y-45102172D01*
X111349999Y-45102155D01*
X111343598Y-45042627D01*
X111343596Y-45042620D01*
X111293354Y-44907913D01*
X111293350Y-44907906D01*
X111207190Y-44792812D01*
X111207187Y-44792809D01*
X111092093Y-44706649D01*
X111092086Y-44706645D01*
X110957379Y-44656403D01*
X110957372Y-44656401D01*
X110897844Y-44650000D01*
X110250000Y-44650000D01*
X110250000Y-45566988D01*
X110192993Y-45534075D01*
X110065826Y-45500000D01*
X109934174Y-45500000D01*
X109807007Y-45534075D01*
X109750000Y-45566988D01*
X109750000Y-44650000D01*
X109102155Y-44650000D01*
X109042627Y-44656401D01*
X109042620Y-44656403D01*
X108907913Y-44706645D01*
X108907906Y-44706649D01*
X108792812Y-44792809D01*
X108792809Y-44792812D01*
X108706649Y-44907906D01*
X108706645Y-44907913D01*
X108656403Y-45042620D01*
X108656401Y-45042627D01*
X108650000Y-45102155D01*
X108650000Y-45750000D01*
X109566988Y-45750000D01*
X109534075Y-45807007D01*
X109500000Y-45934174D01*
X109500000Y-46065826D01*
X109534075Y-46192993D01*
X109566988Y-46250000D01*
X108650000Y-46250000D01*
X108650000Y-46897844D01*
X108656401Y-46957372D01*
X108656403Y-46957379D01*
X108706645Y-47092086D01*
X108706649Y-47092093D01*
X108792809Y-47207187D01*
X108792812Y-47207190D01*
X108907906Y-47293350D01*
X108907913Y-47293354D01*
X109039470Y-47342421D01*
X109095403Y-47384292D01*
X109119821Y-47449756D01*
X109104970Y-47518029D01*
X109083819Y-47546284D01*
X108961503Y-47668600D01*
X108826348Y-47861623D01*
X108771771Y-47905248D01*
X108724773Y-47914500D01*
X107750452Y-47914500D01*
X107683413Y-47894815D01*
X107662771Y-47878181D01*
X102930637Y-43146047D01*
X141399500Y-43146047D01*
X141432199Y-43436271D01*
X141432202Y-43436285D01*
X141497196Y-43721044D01*
X141497197Y-43721046D01*
X141593665Y-43996738D01*
X141720393Y-44259890D01*
X141720395Y-44259893D01*
X141875792Y-44507206D01*
X142057902Y-44735565D01*
X142264435Y-44942098D01*
X142492794Y-45124208D01*
X142740107Y-45279605D01*
X143003263Y-45406335D01*
X143278955Y-45502803D01*
X143563714Y-45567798D01*
X143563723Y-45567799D01*
X143563728Y-45567800D01*
X143757210Y-45589599D01*
X143853953Y-45600499D01*
X143853956Y-45600500D01*
X143853959Y-45600500D01*
X144146044Y-45600500D01*
X144146045Y-45600499D01*
X144294371Y-45583787D01*
X144436271Y-45567800D01*
X144436274Y-45567799D01*
X144436286Y-45567798D01*
X144721045Y-45502803D01*
X144996737Y-45406335D01*
X145259893Y-45279605D01*
X145507206Y-45124208D01*
X145735565Y-44942098D01*
X145942098Y-44735565D01*
X146124208Y-44507206D01*
X146279605Y-44259893D01*
X146406335Y-43996737D01*
X146502803Y-43721045D01*
X146567798Y-43436286D01*
X146600500Y-43146041D01*
X146600500Y-42853959D01*
X146568313Y-42568284D01*
X146567800Y-42563728D01*
X146567799Y-42563723D01*
X146567798Y-42563714D01*
X146502803Y-42278955D01*
X146406335Y-42003263D01*
X146279605Y-41740107D01*
X146124208Y-41492794D01*
X145942098Y-41264435D01*
X145735565Y-41057902D01*
X145507206Y-40875792D01*
X145259893Y-40720395D01*
X145259890Y-40720393D01*
X144996738Y-40593665D01*
X144721046Y-40497197D01*
X144721044Y-40497196D01*
X144501280Y-40447036D01*
X144436286Y-40432202D01*
X144436283Y-40432201D01*
X144436271Y-40432199D01*
X144146047Y-40399500D01*
X144146041Y-40399500D01*
X143853959Y-40399500D01*
X143853952Y-40399500D01*
X143563728Y-40432199D01*
X143563714Y-40432202D01*
X143278955Y-40497196D01*
X143278953Y-40497197D01*
X143003261Y-40593665D01*
X142740109Y-40720393D01*
X142492795Y-40875791D01*
X142264435Y-41057901D01*
X142057901Y-41264435D01*
X141875791Y-41492795D01*
X141720393Y-41740109D01*
X141593665Y-42003261D01*
X141497197Y-42278953D01*
X141497196Y-42278955D01*
X141432202Y-42563714D01*
X141432199Y-42563728D01*
X141399500Y-42853952D01*
X141399500Y-43146047D01*
X102930637Y-43146047D01*
X101590198Y-41805608D01*
X101590178Y-41805586D01*
X101498733Y-41714141D01*
X101447509Y-41679915D01*
X101396286Y-41645688D01*
X101396283Y-41645686D01*
X101396280Y-41645685D01*
X101315792Y-41612347D01*
X101282453Y-41598537D01*
X101272427Y-41596543D01*
X101222029Y-41586518D01*
X101161610Y-41574500D01*
X101161607Y-41574500D01*
X101161606Y-41574500D01*
X95403748Y-41574500D01*
X95336709Y-41554815D01*
X95311600Y-41533474D01*
X95305873Y-41527114D01*
X95305869Y-41527110D01*
X95152734Y-41415851D01*
X95152729Y-41415848D01*
X94979807Y-41338857D01*
X94979802Y-41338855D01*
X94834001Y-41307865D01*
X94794646Y-41299500D01*
X94605354Y-41299500D01*
X94572897Y-41306398D01*
X94420197Y-41338855D01*
X94420192Y-41338857D01*
X94247270Y-41415848D01*
X94247265Y-41415851D01*
X94094129Y-41527111D01*
X93967466Y-41667785D01*
X93872821Y-41831715D01*
X93872818Y-41831722D01*
X93814327Y-42011740D01*
X93814326Y-42011744D01*
X93794540Y-42200000D01*
X52475176Y-42200000D01*
X52406335Y-42003263D01*
X52279605Y-41740107D01*
X52124208Y-41492794D01*
X51942098Y-41264435D01*
X51735565Y-41057902D01*
X51507206Y-40875792D01*
X51259893Y-40720395D01*
X51259890Y-40720393D01*
X50996738Y-40593665D01*
X50721046Y-40497197D01*
X50721044Y-40497196D01*
X50501280Y-40447036D01*
X50436286Y-40432202D01*
X50436283Y-40432201D01*
X50436271Y-40432199D01*
X50146047Y-40399500D01*
X50146041Y-40399500D01*
X49853959Y-40399500D01*
X49853952Y-40399500D01*
X49563728Y-40432199D01*
X49563714Y-40432202D01*
X49278955Y-40497196D01*
X49278953Y-40497197D01*
X49003261Y-40593665D01*
X48740109Y-40720393D01*
X48492795Y-40875791D01*
X48264435Y-41057901D01*
X48057901Y-41264435D01*
X47875791Y-41492795D01*
X47720393Y-41740109D01*
X47593665Y-42003261D01*
X47497197Y-42278953D01*
X47497196Y-42278955D01*
X47432202Y-42563714D01*
X47432199Y-42563728D01*
X47399500Y-42853952D01*
X47399500Y-43146047D01*
X47000000Y-43146047D01*
X47000000Y-41001526D01*
X47000037Y-40998490D01*
X47002145Y-40912421D01*
X47002146Y-40912419D01*
X47002145Y-40912415D01*
X47004490Y-40891272D01*
X47038362Y-40720983D01*
X47045412Y-40697741D01*
X47111274Y-40538738D01*
X47122726Y-40517314D01*
X47218338Y-40374219D01*
X47233751Y-40355439D01*
X47355439Y-40233751D01*
X47374219Y-40218338D01*
X47517314Y-40122726D01*
X47538738Y-40111274D01*
X47697741Y-40045412D01*
X47720983Y-40038362D01*
X47891272Y-40004490D01*
X47912415Y-40002145D01*
X47993037Y-40000170D01*
X47998491Y-40000037D01*
X48001527Y-40000000D01*
X145998473Y-40000000D01*
X146001509Y-40000037D01*
G37*
%TD.AperFunction*%
%TD*%
M02*
