%TF.GenerationSoftware,KiCad,Pcbnew,8.0.0*%
%TF.CreationDate,2024-02-26T11:34:36-08:00*%
%TF.ProjectId,gotek-breakout,676f7465-6b2d-4627-9265-616b6f75742e,rev?*%
%TF.SameCoordinates,Original*%
%TF.FileFunction,Legend,Top*%
%TF.FilePolarity,Positive*%
%FSLAX46Y46*%
G04 Gerber Fmt 4.6, Leading zero omitted, Abs format (unit mm)*
G04 Created by KiCad (PCBNEW 8.0.0) date 2024-02-26 11:34:36*
%MOMM*%
%LPD*%
G01*
G04 APERTURE LIST*
%ADD10C,0.150000*%
%ADD11C,0.120000*%
G04 APERTURE END LIST*
D10*
X121422493Y-57069819D02*
X121422493Y-57784104D01*
X121422493Y-57784104D02*
X121374874Y-57926961D01*
X121374874Y-57926961D02*
X121279636Y-58022200D01*
X121279636Y-58022200D02*
X121136779Y-58069819D01*
X121136779Y-58069819D02*
X121041541Y-58069819D01*
X122374874Y-58069819D02*
X121898684Y-58069819D01*
X121898684Y-58069819D02*
X121898684Y-57069819D01*
X123279636Y-57974580D02*
X123232017Y-58022200D01*
X123232017Y-58022200D02*
X123089160Y-58069819D01*
X123089160Y-58069819D02*
X122993922Y-58069819D01*
X122993922Y-58069819D02*
X122851065Y-58022200D01*
X122851065Y-58022200D02*
X122755827Y-57926961D01*
X122755827Y-57926961D02*
X122708208Y-57831723D01*
X122708208Y-57831723D02*
X122660589Y-57641247D01*
X122660589Y-57641247D02*
X122660589Y-57498390D01*
X122660589Y-57498390D02*
X122708208Y-57307914D01*
X122708208Y-57307914D02*
X122755827Y-57212676D01*
X122755827Y-57212676D02*
X122851065Y-57117438D01*
X122851065Y-57117438D02*
X122993922Y-57069819D01*
X122993922Y-57069819D02*
X123089160Y-57069819D01*
X123089160Y-57069819D02*
X123232017Y-57117438D01*
X123232017Y-57117438D02*
X123279636Y-57165057D01*
X123993922Y-57069819D02*
X123993922Y-57784104D01*
X123993922Y-57784104D02*
X123946303Y-57926961D01*
X123946303Y-57926961D02*
X123851065Y-58022200D01*
X123851065Y-58022200D02*
X123708208Y-58069819D01*
X123708208Y-58069819D02*
X123612970Y-58069819D01*
X124946303Y-58069819D02*
X124470113Y-58069819D01*
X124470113Y-58069819D02*
X124470113Y-57069819D01*
X125851065Y-57974580D02*
X125803446Y-58022200D01*
X125803446Y-58022200D02*
X125660589Y-58069819D01*
X125660589Y-58069819D02*
X125565351Y-58069819D01*
X125565351Y-58069819D02*
X125422494Y-58022200D01*
X125422494Y-58022200D02*
X125327256Y-57926961D01*
X125327256Y-57926961D02*
X125279637Y-57831723D01*
X125279637Y-57831723D02*
X125232018Y-57641247D01*
X125232018Y-57641247D02*
X125232018Y-57498390D01*
X125232018Y-57498390D02*
X125279637Y-57307914D01*
X125279637Y-57307914D02*
X125327256Y-57212676D01*
X125327256Y-57212676D02*
X125422494Y-57117438D01*
X125422494Y-57117438D02*
X125565351Y-57069819D01*
X125565351Y-57069819D02*
X125660589Y-57069819D01*
X125660589Y-57069819D02*
X125803446Y-57117438D01*
X125803446Y-57117438D02*
X125851065Y-57165057D01*
X126565351Y-57069819D02*
X126565351Y-57784104D01*
X126565351Y-57784104D02*
X126517732Y-57926961D01*
X126517732Y-57926961D02*
X126422494Y-58022200D01*
X126422494Y-58022200D02*
X126279637Y-58069819D01*
X126279637Y-58069819D02*
X126184399Y-58069819D01*
X127517732Y-58069819D02*
X127041542Y-58069819D01*
X127041542Y-58069819D02*
X127041542Y-57069819D01*
X128422494Y-57974580D02*
X128374875Y-58022200D01*
X128374875Y-58022200D02*
X128232018Y-58069819D01*
X128232018Y-58069819D02*
X128136780Y-58069819D01*
X128136780Y-58069819D02*
X127993923Y-58022200D01*
X127993923Y-58022200D02*
X127898685Y-57926961D01*
X127898685Y-57926961D02*
X127851066Y-57831723D01*
X127851066Y-57831723D02*
X127803447Y-57641247D01*
X127803447Y-57641247D02*
X127803447Y-57498390D01*
X127803447Y-57498390D02*
X127851066Y-57307914D01*
X127851066Y-57307914D02*
X127898685Y-57212676D01*
X127898685Y-57212676D02*
X127993923Y-57117438D01*
X127993923Y-57117438D02*
X128136780Y-57069819D01*
X128136780Y-57069819D02*
X128232018Y-57069819D01*
X128232018Y-57069819D02*
X128374875Y-57117438D01*
X128374875Y-57117438D02*
X128422494Y-57165057D01*
X129136780Y-57069819D02*
X129136780Y-57784104D01*
X129136780Y-57784104D02*
X129089161Y-57926961D01*
X129089161Y-57926961D02*
X128993923Y-58022200D01*
X128993923Y-58022200D02*
X128851066Y-58069819D01*
X128851066Y-58069819D02*
X128755828Y-58069819D01*
X130089161Y-58069819D02*
X129612971Y-58069819D01*
X129612971Y-58069819D02*
X129612971Y-57069819D01*
X130993923Y-57974580D02*
X130946304Y-58022200D01*
X130946304Y-58022200D02*
X130803447Y-58069819D01*
X130803447Y-58069819D02*
X130708209Y-58069819D01*
X130708209Y-58069819D02*
X130565352Y-58022200D01*
X130565352Y-58022200D02*
X130470114Y-57926961D01*
X130470114Y-57926961D02*
X130422495Y-57831723D01*
X130422495Y-57831723D02*
X130374876Y-57641247D01*
X130374876Y-57641247D02*
X130374876Y-57498390D01*
X130374876Y-57498390D02*
X130422495Y-57307914D01*
X130422495Y-57307914D02*
X130470114Y-57212676D01*
X130470114Y-57212676D02*
X130565352Y-57117438D01*
X130565352Y-57117438D02*
X130708209Y-57069819D01*
X130708209Y-57069819D02*
X130803447Y-57069819D01*
X130803447Y-57069819D02*
X130946304Y-57117438D01*
X130946304Y-57117438D02*
X130993923Y-57165057D01*
X74000000Y-43750000D02*
X112000000Y-43750000D01*
X112000000Y-55750000D01*
X74000000Y-55750000D01*
X74000000Y-43750000D01*
X113250000Y-40750000D02*
X139250000Y-40750000D01*
X139250000Y-59250000D01*
X113250000Y-59250000D01*
X113250000Y-40750000D01*
X58628571Y-41254819D02*
X58628571Y-42064342D01*
X58628571Y-42064342D02*
X58676190Y-42159580D01*
X58676190Y-42159580D02*
X58723809Y-42207200D01*
X58723809Y-42207200D02*
X58819047Y-42254819D01*
X58819047Y-42254819D02*
X59009523Y-42254819D01*
X59009523Y-42254819D02*
X59104761Y-42207200D01*
X59104761Y-42207200D02*
X59152380Y-42159580D01*
X59152380Y-42159580D02*
X59199999Y-42064342D01*
X59199999Y-42064342D02*
X59199999Y-41254819D01*
X59628571Y-42207200D02*
X59771428Y-42254819D01*
X59771428Y-42254819D02*
X60009523Y-42254819D01*
X60009523Y-42254819D02*
X60104761Y-42207200D01*
X60104761Y-42207200D02*
X60152380Y-42159580D01*
X60152380Y-42159580D02*
X60199999Y-42064342D01*
X60199999Y-42064342D02*
X60199999Y-41969104D01*
X60199999Y-41969104D02*
X60152380Y-41873866D01*
X60152380Y-41873866D02*
X60104761Y-41826247D01*
X60104761Y-41826247D02*
X60009523Y-41778628D01*
X60009523Y-41778628D02*
X59819047Y-41731009D01*
X59819047Y-41731009D02*
X59723809Y-41683390D01*
X59723809Y-41683390D02*
X59676190Y-41635771D01*
X59676190Y-41635771D02*
X59628571Y-41540533D01*
X59628571Y-41540533D02*
X59628571Y-41445295D01*
X59628571Y-41445295D02*
X59676190Y-41350057D01*
X59676190Y-41350057D02*
X59723809Y-41302438D01*
X59723809Y-41302438D02*
X59819047Y-41254819D01*
X59819047Y-41254819D02*
X60057142Y-41254819D01*
X60057142Y-41254819D02*
X60199999Y-41302438D01*
X60961904Y-41731009D02*
X61104761Y-41778628D01*
X61104761Y-41778628D02*
X61152380Y-41826247D01*
X61152380Y-41826247D02*
X61199999Y-41921485D01*
X61199999Y-41921485D02*
X61199999Y-42064342D01*
X61199999Y-42064342D02*
X61152380Y-42159580D01*
X61152380Y-42159580D02*
X61104761Y-42207200D01*
X61104761Y-42207200D02*
X61009523Y-42254819D01*
X61009523Y-42254819D02*
X60628571Y-42254819D01*
X60628571Y-42254819D02*
X60628571Y-41254819D01*
X60628571Y-41254819D02*
X60961904Y-41254819D01*
X60961904Y-41254819D02*
X61057142Y-41302438D01*
X61057142Y-41302438D02*
X61104761Y-41350057D01*
X61104761Y-41350057D02*
X61152380Y-41445295D01*
X61152380Y-41445295D02*
X61152380Y-41540533D01*
X61152380Y-41540533D02*
X61104761Y-41635771D01*
X61104761Y-41635771D02*
X61057142Y-41683390D01*
X61057142Y-41683390D02*
X60961904Y-41731009D01*
X60961904Y-41731009D02*
X60628571Y-41731009D01*
X61390476Y-42350057D02*
X62152380Y-42350057D01*
X62342857Y-41969104D02*
X62819047Y-41969104D01*
X62247619Y-42254819D02*
X62580952Y-41254819D01*
X62580952Y-41254819D02*
X62914285Y-42254819D01*
X114331009Y-52438095D02*
X114331009Y-52104762D01*
X114854819Y-51961905D02*
X114854819Y-52438095D01*
X114854819Y-52438095D02*
X113854819Y-52438095D01*
X113854819Y-52438095D02*
X113854819Y-51961905D01*
X114188152Y-51533333D02*
X114854819Y-51533333D01*
X114283390Y-51533333D02*
X114235771Y-51485714D01*
X114235771Y-51485714D02*
X114188152Y-51390476D01*
X114188152Y-51390476D02*
X114188152Y-51247619D01*
X114188152Y-51247619D02*
X114235771Y-51152381D01*
X114235771Y-51152381D02*
X114331009Y-51104762D01*
X114331009Y-51104762D02*
X114854819Y-51104762D01*
X114807200Y-50200000D02*
X114854819Y-50295238D01*
X114854819Y-50295238D02*
X114854819Y-50485714D01*
X114854819Y-50485714D02*
X114807200Y-50580952D01*
X114807200Y-50580952D02*
X114759580Y-50628571D01*
X114759580Y-50628571D02*
X114664342Y-50676190D01*
X114664342Y-50676190D02*
X114378628Y-50676190D01*
X114378628Y-50676190D02*
X114283390Y-50628571D01*
X114283390Y-50628571D02*
X114235771Y-50580952D01*
X114235771Y-50580952D02*
X114188152Y-50485714D01*
X114188152Y-50485714D02*
X114188152Y-50295238D01*
X114188152Y-50295238D02*
X114235771Y-50200000D01*
X114854819Y-49628571D02*
X114807200Y-49723809D01*
X114807200Y-49723809D02*
X114759580Y-49771428D01*
X114759580Y-49771428D02*
X114664342Y-49819047D01*
X114664342Y-49819047D02*
X114378628Y-49819047D01*
X114378628Y-49819047D02*
X114283390Y-49771428D01*
X114283390Y-49771428D02*
X114235771Y-49723809D01*
X114235771Y-49723809D02*
X114188152Y-49628571D01*
X114188152Y-49628571D02*
X114188152Y-49485714D01*
X114188152Y-49485714D02*
X114235771Y-49390476D01*
X114235771Y-49390476D02*
X114283390Y-49342857D01*
X114283390Y-49342857D02*
X114378628Y-49295238D01*
X114378628Y-49295238D02*
X114664342Y-49295238D01*
X114664342Y-49295238D02*
X114759580Y-49342857D01*
X114759580Y-49342857D02*
X114807200Y-49390476D01*
X114807200Y-49390476D02*
X114854819Y-49485714D01*
X114854819Y-49485714D02*
X114854819Y-49628571D01*
X114854819Y-48438095D02*
X113854819Y-48438095D01*
X114807200Y-48438095D02*
X114854819Y-48533333D01*
X114854819Y-48533333D02*
X114854819Y-48723809D01*
X114854819Y-48723809D02*
X114807200Y-48819047D01*
X114807200Y-48819047D02*
X114759580Y-48866666D01*
X114759580Y-48866666D02*
X114664342Y-48914285D01*
X114664342Y-48914285D02*
X114378628Y-48914285D01*
X114378628Y-48914285D02*
X114283390Y-48866666D01*
X114283390Y-48866666D02*
X114235771Y-48819047D01*
X114235771Y-48819047D02*
X114188152Y-48723809D01*
X114188152Y-48723809D02*
X114188152Y-48533333D01*
X114188152Y-48533333D02*
X114235771Y-48438095D01*
X114807200Y-47580952D02*
X114854819Y-47676190D01*
X114854819Y-47676190D02*
X114854819Y-47866666D01*
X114854819Y-47866666D02*
X114807200Y-47961904D01*
X114807200Y-47961904D02*
X114711961Y-48009523D01*
X114711961Y-48009523D02*
X114331009Y-48009523D01*
X114331009Y-48009523D02*
X114235771Y-47961904D01*
X114235771Y-47961904D02*
X114188152Y-47866666D01*
X114188152Y-47866666D02*
X114188152Y-47676190D01*
X114188152Y-47676190D02*
X114235771Y-47580952D01*
X114235771Y-47580952D02*
X114331009Y-47533333D01*
X114331009Y-47533333D02*
X114426247Y-47533333D01*
X114426247Y-47533333D02*
X114521485Y-48009523D01*
X114854819Y-47104761D02*
X114188152Y-47104761D01*
X114378628Y-47104761D02*
X114283390Y-47057142D01*
X114283390Y-47057142D02*
X114235771Y-47009523D01*
X114235771Y-47009523D02*
X114188152Y-46914285D01*
X114188152Y-46914285D02*
X114188152Y-46819047D01*
X70628220Y-53359580D02*
X70580601Y-53407200D01*
X70580601Y-53407200D02*
X70437744Y-53454819D01*
X70437744Y-53454819D02*
X70342506Y-53454819D01*
X70342506Y-53454819D02*
X70199649Y-53407200D01*
X70199649Y-53407200D02*
X70104411Y-53311961D01*
X70104411Y-53311961D02*
X70056792Y-53216723D01*
X70056792Y-53216723D02*
X70009173Y-53026247D01*
X70009173Y-53026247D02*
X70009173Y-52883390D01*
X70009173Y-52883390D02*
X70056792Y-52692914D01*
X70056792Y-52692914D02*
X70104411Y-52597676D01*
X70104411Y-52597676D02*
X70199649Y-52502438D01*
X70199649Y-52502438D02*
X70342506Y-52454819D01*
X70342506Y-52454819D02*
X70437744Y-52454819D01*
X70437744Y-52454819D02*
X70580601Y-52502438D01*
X70580601Y-52502438D02*
X70628220Y-52550057D01*
X71580601Y-53454819D02*
X71009173Y-53454819D01*
X71294887Y-53454819D02*
X71294887Y-52454819D01*
X71294887Y-52454819D02*
X71199649Y-52597676D01*
X71199649Y-52597676D02*
X71104411Y-52692914D01*
X71104411Y-52692914D02*
X71009173Y-52740533D01*
X74454819Y-50852380D02*
X74454819Y-50661904D01*
X74454819Y-50661904D02*
X74502438Y-50566666D01*
X74502438Y-50566666D02*
X74597676Y-50471428D01*
X74597676Y-50471428D02*
X74788152Y-50423809D01*
X74788152Y-50423809D02*
X75121485Y-50423809D01*
X75121485Y-50423809D02*
X75311961Y-50471428D01*
X75311961Y-50471428D02*
X75407200Y-50566666D01*
X75407200Y-50566666D02*
X75454819Y-50661904D01*
X75454819Y-50661904D02*
X75454819Y-50852380D01*
X75454819Y-50852380D02*
X75407200Y-50947618D01*
X75407200Y-50947618D02*
X75311961Y-51042856D01*
X75311961Y-51042856D02*
X75121485Y-51090475D01*
X75121485Y-51090475D02*
X74788152Y-51090475D01*
X74788152Y-51090475D02*
X74597676Y-51042856D01*
X74597676Y-51042856D02*
X74502438Y-50947618D01*
X74502438Y-50947618D02*
X74454819Y-50852380D01*
X75454819Y-49519047D02*
X75454819Y-49995237D01*
X75454819Y-49995237D02*
X74454819Y-49995237D01*
X74931009Y-49185713D02*
X74931009Y-48852380D01*
X75454819Y-48709523D02*
X75454819Y-49185713D01*
X75454819Y-49185713D02*
X74454819Y-49185713D01*
X74454819Y-49185713D02*
X74454819Y-48709523D01*
X75454819Y-48280951D02*
X74454819Y-48280951D01*
X74454819Y-48280951D02*
X74454819Y-48042856D01*
X74454819Y-48042856D02*
X74502438Y-47899999D01*
X74502438Y-47899999D02*
X74597676Y-47804761D01*
X74597676Y-47804761D02*
X74692914Y-47757142D01*
X74692914Y-47757142D02*
X74883390Y-47709523D01*
X74883390Y-47709523D02*
X75026247Y-47709523D01*
X75026247Y-47709523D02*
X75216723Y-47757142D01*
X75216723Y-47757142D02*
X75311961Y-47804761D01*
X75311961Y-47804761D02*
X75407200Y-47899999D01*
X75407200Y-47899999D02*
X75454819Y-48042856D01*
X75454819Y-48042856D02*
X75454819Y-48280951D01*
D11*
%TO.C,J2*%
X53390000Y-39060000D02*
X53390000Y-39580000D01*
X53390000Y-39580000D02*
X54040000Y-39580000D01*
X54040000Y-47690000D02*
X54040000Y-39580000D01*
X54040000Y-54540000D02*
X54040000Y-51210000D01*
X65100000Y-54760000D02*
X63300000Y-54760000D01*
X67360000Y-39580000D02*
X67360000Y-47690000D01*
X67360000Y-39580000D02*
X68010000Y-39580000D01*
X67360000Y-54540000D02*
X54040000Y-54540000D01*
X67360000Y-54540000D02*
X67360000Y-51210000D01*
X68010000Y-39060000D02*
X53390000Y-39060000D01*
X68010000Y-39580000D02*
X68010000Y-39060000D01*
%TO.C,J4*%
X135920000Y-53805000D02*
X135920000Y-43585000D01*
X138580000Y-43585000D02*
X135920000Y-43585000D01*
X138580000Y-53805000D02*
X135920000Y-53805000D01*
X138580000Y-53805000D02*
X138580000Y-43585000D01*
X138580000Y-55075000D02*
X138580000Y-56405000D01*
X138580000Y-56405000D02*
X137250000Y-56405000D01*
%TO.C,C1*%
X67990113Y-55275000D02*
X68490112Y-55275000D01*
X68240112Y-55025000D02*
X68240112Y-55525000D01*
X70794887Y-54170000D02*
X70794887Y-59330000D01*
X70834887Y-54170000D02*
X70834887Y-59330000D01*
X70874887Y-54171001D02*
X70874887Y-59328999D01*
X70914887Y-54172000D02*
X70914887Y-59328000D01*
X70954887Y-54173999D02*
X70954887Y-59326001D01*
X70994887Y-54177000D02*
X70994887Y-59323000D01*
X71034887Y-54181000D02*
X71034887Y-55710000D01*
X71034887Y-57790000D02*
X71034887Y-59319000D01*
X71074886Y-54185000D02*
X71074886Y-55710000D01*
X71074886Y-57790000D02*
X71074886Y-59315000D01*
X71114887Y-54189000D02*
X71114887Y-55710000D01*
X71114887Y-57790000D02*
X71114887Y-59311000D01*
X71154887Y-54194000D02*
X71154887Y-55710000D01*
X71154887Y-57790000D02*
X71154887Y-59306000D01*
X71194887Y-54200000D02*
X71194887Y-55710000D01*
X71194887Y-57790000D02*
X71194887Y-59300000D01*
X71234887Y-54207000D02*
X71234887Y-55709999D01*
X71234887Y-57790001D02*
X71234887Y-59293000D01*
X71274887Y-54214000D02*
X71274887Y-55710000D01*
X71274887Y-57790000D02*
X71274887Y-59286000D01*
X71314887Y-54222000D02*
X71314887Y-55710000D01*
X71314887Y-57790000D02*
X71314887Y-59278000D01*
X71354887Y-54230000D02*
X71354887Y-55710000D01*
X71354887Y-57790000D02*
X71354887Y-59270000D01*
X71394887Y-54238999D02*
X71394887Y-55709999D01*
X71394887Y-57790001D02*
X71394887Y-59261001D01*
X71434887Y-54249000D02*
X71434887Y-55710000D01*
X71434887Y-57790000D02*
X71434887Y-59251000D01*
X71474887Y-54259000D02*
X71474887Y-55710000D01*
X71474887Y-57790000D02*
X71474887Y-59241000D01*
X71515887Y-54270000D02*
X71515887Y-55709999D01*
X71515887Y-57790001D02*
X71515887Y-59230000D01*
X71555887Y-54282000D02*
X71555887Y-55710000D01*
X71555887Y-57790000D02*
X71555887Y-59218000D01*
X71595887Y-54295000D02*
X71595887Y-55710000D01*
X71595887Y-57790000D02*
X71595887Y-59205000D01*
X71635887Y-54308000D02*
X71635887Y-55710000D01*
X71635887Y-57790000D02*
X71635887Y-59192000D01*
X71675887Y-54322000D02*
X71675887Y-55709999D01*
X71675887Y-57790001D02*
X71675887Y-59178000D01*
X71715887Y-54336000D02*
X71715887Y-55710000D01*
X71715887Y-57790000D02*
X71715887Y-59164000D01*
X71755887Y-54352000D02*
X71755887Y-55710000D01*
X71755887Y-57790000D02*
X71755887Y-59148000D01*
X71795886Y-57790000D02*
X71795887Y-59132000D01*
X71795887Y-54368000D02*
X71795886Y-55710000D01*
X71835887Y-54385000D02*
X71835888Y-55710000D01*
X71835888Y-57790000D02*
X71835887Y-59115000D01*
X71875887Y-54402000D02*
X71875887Y-55710000D01*
X71875887Y-57790000D02*
X71875887Y-59098000D01*
X71915887Y-54421000D02*
X71915887Y-55710000D01*
X71915887Y-57790000D02*
X71915887Y-59079000D01*
X71955887Y-54440000D02*
X71955887Y-55709999D01*
X71955887Y-57790001D02*
X71955887Y-59060000D01*
X71995887Y-54460000D02*
X71995887Y-55710000D01*
X71995887Y-57790000D02*
X71995887Y-59040000D01*
X72035887Y-54482000D02*
X72035887Y-55710000D01*
X72035887Y-57790000D02*
X72035887Y-59018000D01*
X72075887Y-54503000D02*
X72075887Y-55710000D01*
X72075887Y-57790000D02*
X72075887Y-58997000D01*
X72115887Y-54526000D02*
X72115887Y-55709999D01*
X72115887Y-57790001D02*
X72115887Y-58974000D01*
X72155887Y-54550000D02*
X72155887Y-55710000D01*
X72155887Y-57790000D02*
X72155887Y-58950000D01*
X72195887Y-54575000D02*
X72195887Y-55710000D01*
X72195887Y-57790000D02*
X72195887Y-58925000D01*
X72235887Y-54601000D02*
X72235887Y-55710000D01*
X72235887Y-57790000D02*
X72235887Y-58899000D01*
X72275887Y-54628000D02*
X72275888Y-55710000D01*
X72275888Y-57790000D02*
X72275887Y-58872000D01*
X72315887Y-54655000D02*
X72315887Y-55710000D01*
X72315887Y-57790000D02*
X72315887Y-58845000D01*
X72355887Y-54685000D02*
X72355887Y-55710000D01*
X72355887Y-57790000D02*
X72355887Y-58815000D01*
X72395886Y-57790000D02*
X72395887Y-58785000D01*
X72395887Y-54715000D02*
X72395886Y-55710000D01*
X72435887Y-54746000D02*
X72435887Y-55710000D01*
X72435887Y-57790000D02*
X72435887Y-58754000D01*
X72475887Y-54779001D02*
X72475887Y-55710000D01*
X72475887Y-57790000D02*
X72475887Y-58720999D01*
X72515887Y-54813000D02*
X72515887Y-55710000D01*
X72515887Y-57790000D02*
X72515887Y-58687000D01*
X72555887Y-57790001D02*
X72555888Y-58651000D01*
X72555888Y-54849000D02*
X72555887Y-55709999D01*
X72595887Y-54886000D02*
X72595887Y-55710000D01*
X72595887Y-57790000D02*
X72595887Y-58614000D01*
X72635887Y-54924000D02*
X72635887Y-55710000D01*
X72635887Y-57790000D02*
X72635887Y-58576000D01*
X72675887Y-54965000D02*
X72675887Y-55710000D01*
X72675887Y-57790000D02*
X72675887Y-58535000D01*
X72715887Y-55006999D02*
X72715888Y-55710000D01*
X72715888Y-57790000D02*
X72715887Y-58493001D01*
X72755886Y-55051000D02*
X72755887Y-55710000D01*
X72755887Y-57790000D02*
X72755886Y-58449000D01*
X72795887Y-57790000D02*
X72795888Y-58403000D01*
X72795888Y-55097000D02*
X72795887Y-55710000D01*
X72835886Y-57790000D02*
X72835887Y-58355000D01*
X72835887Y-55145000D02*
X72835886Y-55710000D01*
X72875887Y-55196000D02*
X72875887Y-55710000D01*
X72875887Y-57790000D02*
X72875887Y-58304000D01*
X72915887Y-55250000D02*
X72915887Y-55710000D01*
X72915887Y-57790000D02*
X72915887Y-58250000D01*
X72955887Y-55307000D02*
X72955887Y-55710000D01*
X72955887Y-57790000D02*
X72955887Y-58193000D01*
X72995887Y-55367000D02*
X72995887Y-55709999D01*
X72995887Y-57790001D02*
X72995887Y-58133000D01*
X73035887Y-55431000D02*
X73035887Y-55710000D01*
X73035887Y-57790000D02*
X73035887Y-58069000D01*
X73075887Y-55498999D02*
X73075887Y-55710000D01*
X73075887Y-57790000D02*
X73075887Y-58001001D01*
X73115887Y-55572000D02*
X73115887Y-57928000D01*
X73155887Y-55652000D02*
X73155887Y-57848000D01*
X73195887Y-55739000D02*
X73195887Y-57761000D01*
X73235887Y-55835000D02*
X73235887Y-57665000D01*
X73275886Y-55945000D02*
X73275886Y-57555000D01*
X73315887Y-56073000D02*
X73315887Y-57427000D01*
X73355887Y-56232000D02*
X73355887Y-57268000D01*
X73395887Y-56466000D02*
X73395887Y-57034000D01*
X73414887Y-56750000D02*
G75*
G02*
X68174885Y-56750000I-2620001J0D01*
G01*
X68174885Y-56750000D02*
G75*
G02*
X73414887Y-56750000I2620001J0D01*
G01*
%TO.C,J3*%
X108670000Y-44670000D02*
X110000000Y-44670000D01*
X108670000Y-46000000D02*
X108670000Y-44670000D01*
X108670000Y-47270000D02*
X108670000Y-54950000D01*
X108670000Y-47270000D02*
X111330000Y-47270000D01*
X108670000Y-54950000D02*
X111330000Y-54950000D01*
X111330000Y-47270000D02*
X111330000Y-54950000D01*
%TD*%
M02*
