M48
; DRILL file {KiCad 8.0.0} date 2024-02-26T11:34:39-0800
; FORMAT={-:-/ absolute / inch / decimal}
; #@! TF.CreationDate,2024-02-26T11:34:39-08:00
; #@! TF.GenerationSoftware,Kicad,Pcbnew,8.0.0
; #@! TF.FileFunction,Plated,1,2,PTH
FMAT,2
INCH
; #@! TA.AperFunction,Plated,PTH,ViaDrill
T1C0.0157
; #@! TA.AperFunction,Plated,PTH,ComponentDrill
T2C0.0315
; #@! TA.AperFunction,Plated,PTH,ComponentDrill
T3C0.0374
; #@! TA.AperFunction,Plated,PTH,ComponentDrill
T4C0.0394
; #@! TA.AperFunction,Plated,PTH,ComponentDrill
T5C0.0906
%
G90
G05
T1
X2.5433Y-1.8504
X3.6063Y-1.7835
X3.7283Y-1.6614
X3.9055Y-1.9685
T2
X2.738Y-2.2343
X2.8364Y-2.2343
T3
X2.252Y-2.0535
X2.3504Y-2.0535
X2.4291Y-2.0535
X2.5276Y-2.0535
T4
X4.3307Y-1.811
X4.3307Y-1.911
X4.3307Y-2.011
X4.3307Y-2.111
X5.4035Y-1.7683
X5.4035Y-1.8683
X5.4035Y-1.9683
X5.4035Y-2.0683
X5.4035Y-2.1683
T5
X2.1311Y-1.9469
X2.6484Y-1.9469
M30
